<?xml version="1.0" standalone="no"?>
<!DOCTYPE svg PUBLIC "-//W3C//DTD SVG 1.1//EN" "http://www.w3.org/Graphics/SVG/1.1/DTD/svg11.dtd" >
<svg>
<metadata>
Created by FontForge 20090914 at Sat Jan 25 05:46:51 2014
 By www-data
&#194;&#169; Graham Meade &#38; Apostrophic Labs. All rights reserved. gem@c031.aone.net.au
</metadata>
<defs>
<font id="Youthanasia" horiz-adv-x="1067" >
  <font-face 
    font-family="Youthanasia"
    font-weight="400"
    font-stretch="normal"
    units-per-em="2061"
    panose-1="2 0 4 0 0 0 0 0 0 0"
    ascent="1648"
    descent="-413"
    x-height="898.999"
    cap-height="1214"
    bbox="-185.999 -410 2675 1651"
    underline-thickness="150"
    underline-position="-141"
    unicode-range="U+0020-U+F002"
  />
<missing-glyph horiz-adv-x="1030" 
 />
    <glyph glyph-name=".notdef" horiz-adv-x="1030" 
 />
    <glyph glyph-name="space" unicode=" " horiz-adv-x="841" 
 />
    <glyph glyph-name="space" unicode="&#xa0;" horiz-adv-x="841" 
 />
    <glyph glyph-name="exclam" unicode="!" horiz-adv-x="459" 
d="M397 126c0 37.333 -16.333 67.668 -49 91.001c-29.333 21.333 -63.333 32 -102 32c-40 0 -74.333 -10.333 -103 -31c-32.667 -22.667 -49 -53.334 -49 -92.001c0 -37.333 16.667 -67.333 50 -90c29.333 -20.667 63.333 -31 102 -31c37.333 0 71 10.667 101 32
c33.333 23.333 50 53 50 89zM397 1097c0 37.333 -16.333 67.667 -49 91c-29.333 21.333 -63.333 32 -102 32c-40 0 -74.333 -10.333 -103 -31c-32.667 -23.333 -49 -54 -49 -92v-668c0 -37.333 16.667 -67.333 50 -90c29.333 -20.667 63.333 -31 102 -31
c37.333 0 71 10.667 101 32c33.333 23.333 50 53 50 89v668z" />
    <glyph glyph-name="quotedbl" unicode="&#x22;" horiz-adv-x="854" 
d="M793 909c0 -36 -17 -65.6689 -51 -89.002c-30 -21.333 -63.667 -32 -101 -32c-38.667 0 -72.667 10.333 -102 31c-33.333 22.667 -50 52.667 -50 90v183c0 38.667 16.333 69.334 49 92.001c28.667 20 63 30 103 30c38.667 0 73 -10.333 103 -31
c32.667 -23.333 49 -53.666 49 -90.999v-183zM397 908.998c0 -37.333 -16.333 -67.335 -49 -90.002c-29.333 -20.667 -63.333 -31 -102 -31s-72.667 10.333 -102 31c-33.333 22.667 -50 52.667 -50 90v183c0 38.667 16.333 69.334 49 92.001c28.667 20 63 30 103 30
c39.333 0 73.333 -10.333 102 -31c32.667 -23.333 49 -53.666 49 -90.999v-183z" />
    <glyph glyph-name="numbersign" unicode="#" horiz-adv-x="1309" 
d="M1247 455c0 -24.667 -8.83008 -45.832 -26.4971 -63.499s-38.834 -26.5 -63.501 -26.5h-92v-93c0 -37.333 -16.333 -67.333 -49 -90c-28.667 -20 -63 -30 -103 -30c-39.333 0 -73.333 10 -102 30c-32.667 22.667 -49 52.667 -49 90v93h-182v-93
c0 -37.333 -16.667 -67.333 -50 -90c-28.667 -20 -62.667 -30 -102 -30s-73.333 10 -102 30c-33.333 22.667 -50 52.667 -50 90v93h-90c-61.333 0 -92 30 -92 90c0 61.333 30.667 92 92 92h90v121h-90c-61.333 0 -92 30 -92 90c0 61.333 30.667 92 92 92h90v90
c0 37.333 16.667 67.666 50 90.999c29.333 21.333 63.333 32 102 32s72.667 -10.667 102 -32c33.333 -23.333 50 -53.666 50 -90.999v-90h182v90c0 37.333 16.333 67.666 49 90.999c29.333 21.333 63.333 32 102 32c39.333 0 73.666 -10.667 102.999 -32
c32.667 -23.333 49 -53.666 49 -90.999v-90h92c60 0 90 -30.667 90 -92c0 -24.667 -8.83301 -45.834 -26.5 -63.501s-38.834 -26.5 -63.501 -26.5h-92v-121h92c60 0 90 -30.667 90 -92zM762.003 547.002v121h-182v-121h182z" />
    <glyph glyph-name="dollar" unicode="$" horiz-adv-x="1065" 
d="M1004 244c0 -37.333 -16.666 -67.6689 -49.999 -91.002c-29.333 -21.333 -63.333 -32 -102 -32h-152v-90c0 -37.333 -16.333 -67.333 -49 -90c-29.333 -20.667 -63.333 -31 -102 -31c-39.333 0 -73.666 10 -102.999 30c-32.667 22.667 -49 53 -49 91v90h-151
c-40 0 -74.333 10.333 -103 31c-32.667 22.667 -49 53.334 -49 92.001c0 37.333 16.667 67.333 50 90c29.333 20.667 63.333 31 102 31c57.333 0 101 -20.667 131 -62h323v213h-454c-38.667 0 -72.667 10.333 -102 31c-33.333 22.667 -50 52.667 -50 90v303
c0 38 16.333 68.667 49 92c28.667 20.667 63 31 103 31h151v90c0 37.333 16.667 67.333 50 90c29.333 20.667 63.333 31 102 31s72.667 -10.333 102 -31c32.667 -22.667 49 -52.667 49 -90v-90h152c38.667 0 72.667 -10.667 102 -32c33.333 -23.333 50 -53.666 50 -90.999
s-16.667 -67.333 -50 -90c-29.333 -20.667 -63.333 -31 -102 -31c-58.667 0 -102.334 20.667 -131.001 62h-324v-183h455c39.333 0 73.666 -10.333 102.999 -31c32.667 -23.333 49 -54 49 -92v-331z" />
    <glyph glyph-name="percent" unicode="%" horiz-adv-x="1917" 
d="M1855 121c0 -37.333 -16.666 -67.333 -49.999 -90c-30 -20.667 -64.333 -31 -103 -31h-424c-38.667 -0 -72.667 10.333 -102 31c-33.333 22.667 -50 52.667 -50 90v364c0 38 16.333 68.333 49 91c29.333 20 63.666 30 102.999 30h424c40 0 74.333 -10 103 -30
c33.333 -22.667 50 -53 50 -91v-364zM1272 1116c0 -9.33301 -1.33301 -19.667 -4 -31l-387 -1040h-2c-16.667 -34 -43.334 -51 -80.001 -51c-61.333 0 -92 30.667 -92 92c0 10 2 20.333 6 31l383 1032c14.667 39.333 43.334 59 86.001 59c60 0 90 -30.667 90 -92z
M823.001 728.999c0 -37.333 -16.334 -67.667 -49.001 -91c-29.333 -21.333 -63.333 -32 -102 -32h-426c-39.333 0 -73.666 10.333 -102.999 31c-32.667 24 -49 54.667 -49 92v363c0 37.333 16.333 67.666 49 90.999c28.667 20.667 63 31 103 31h426
c39.333 0 73.333 -10.333 102 -31c32.667 -23.333 49 -53.666 49 -90.999v-363zM1550 181.998v242h-121v-242h121zM520 787.998v244h-123v-244h123z" />
    <glyph glyph-name="ampersand" unicode="&#x26;" horiz-adv-x="1077" 
d="M1016 121c0 -36 -16.999 -65.6709 -50.999 -89.0039c-30 -21.333 -63.667 -32 -101 -32h-618c-38.667 0 -72.667 10.333 -102 31c-33.333 22.667 -50 52.667 -50 90v454c0 32 13.333 59.667 40 83c24 20 53 32.667 87 38c-2.66699 11.333 -4 22.333 -4 33
c0 18 4.66699 35 14 51c-43.333 23.333 -65 57 -65 101v211c0 38.667 16 69.334 48 92.001c28 20 62.333 30 103 30h486c39.333 0 73.333 -10.333 102 -31c32.667 -23.333 49 -53.666 49 -90.999v-211c0 -49.333 -27.333 -85.666 -82 -108.999
c7.33301 -13.333 11 -27.666 11 -42.999c0 -61.333 -30 -92 -90 -92h-416c13.333 -19.333 20 -40 20 -62v-393h316v121h-123c-60 0 -90 30.667 -90 92c0 60 30 90 90 90h305v-2c31.333 -5.33301 58.666 -18.333 81.999 -39c26 -22.667 39 -49 39 -79v-244zM672.001 818.996
c-14 19.333 -21 40 -21 62v151h-182v-151c0 -22 -6.66699 -42.667 -20 -62h223z" />
    <glyph glyph-name="quotesingle" unicode="'" horiz-adv-x="459" 
d="M397 909c0 -36 -16.667 -65.6689 -50 -89.002c-30 -21.333 -63.667 -32 -101 -32c-38.667 0 -72.667 10.333 -102 31c-33.333 22.667 -50 52.667 -50 90v183c0 38.667 16.333 69.334 49 92.001c28.667 20 63 30 103 30c39.333 0 73.333 -10.333 102 -31
c32.667 -23.333 49 -53.666 49 -90.999v-183z" />
    <glyph glyph-name="parenleft" unicode="(" horiz-adv-x="702" 
d="M641 -152c0 -24.667 -8.83203 -45.832 -26.499 -63.499s-38.834 -26.5 -63.501 -26.5c-120 0 -224.333 35 -313 105c-96 76 -144 172.333 -144 289v911c0 116.667 48 213 144 289c88 69.333 192.333 104 313 104c24.667 0 45.834 -8.83301 63.501 -26.5
s26.5 -38.834 26.5 -63.501c0 -61.333 -30 -92 -90 -92c-56 0 -107.333 -11.667 -154 -35v-1264c46.667 -24 98 -36 154 -36c25.333 0 46.666 -8.83301 63.999 -26.5s26 -39.167 26 -64.5z" />
    <glyph glyph-name="parenright" unicode=")" horiz-adv-x="702" 
d="M641 152c0 -118.667 -47.001 -215.333 -141.001 -290c-87.333 -69.333 -192 -104 -314 -104c-61.333 0 -92 30 -92 90c0 60.667 30.667 91 92 91c54.667 0 105.334 12 152.001 36v1264c-48 23.333 -98.667 35 -152 35c-61.333 0 -92 30.667 -92 92c0 60 30.667 90 92 90
c119.333 0 223.333 -35 312 -105c95.333 -75.333 143 -171.333 143 -288v-911z" />
    <glyph glyph-name="asterisk" unicode="*" horiz-adv-x="764" 
d="M702 807c0 -22.667 -8.49902 -43.3301 -25.499 -61.9971s-36.5 -28 -58.5 -28c-10 0 -18.667 2 -26 6l-100 57c-4.66699 1.33301 -9 5 -13 11v-123c0 -42.667 -27.333 -64 -82 -64s-82 21.333 -82 64v92l-94 -53c-8 -4.66699 -17.333 -7 -28 -7
c-24 0 -44 9.16699 -60 27.5s-24 39.5 -24 63.5c0 25.333 10 43.666 30 54.999l90 51c-2.66699 1.33301 -4.66699 2 -6 2l-100 57c-19.333 11.333 -29 29.333 -29 54c0 24 8.16699 45.333 24.5 64s36.166 28 59.499 28c8.66699 0 17.667 -2.66699 27 -8l100 -56
c3.33301 -1.33301 6.66602 -4 9.99902 -8v119c0 43.333 27.333 65 82 65s82 -21.667 82 -65v-113l4 2l101 58c6.66699 4 15.334 6 26.001 6c22 0 41.5 -9.33301 58.5 -28s25.5 -39.334 25.5 -62.001c0 -26.667 -9.33301 -45.334 -28 -56.001l-80 -45l88 -49
c18.667 -10.667 28 -29 28 -55z" />
    <glyph glyph-name="plus" unicode="+" horiz-adv-x="1036" 
d="M975 606c0 -60 -30.6689 -90.001 -92.002 -90.001h-211v-244c0 -36 -17 -65.667 -51 -89c-30 -20.667 -63.667 -31 -101 -31c-39.333 0 -73.666 10 -102.999 30c-33.333 22.667 -50 52.667 -50 90v244h-181c-61.333 0 -92 30 -92 90c0 61.333 30.667 92 92 92h181v242
c0 39.333 16.333 70.333 49 93c28.667 20 63.334 30 104.001 30c38.667 0 72.667 -10.667 102 -32c33.333 -23.333 50 -53.666 50 -90.999v-242h211c26 0 47.833 -8.83301 65.5 -26.5s26.5 -39.5 26.5 -65.5z" />
    <glyph glyph-name="comma" unicode="," horiz-adv-x="459" 
d="M397 -90c0 -37.333 -16.333 -67.668 -49 -91.001c-29.333 -21.333 -63.333 -32 -102 -32c-39.333 0 -73.666 10.333 -102.999 31c-32.667 24 -49 54.667 -49 92v211c0 37.333 16.333 68 49 92c29.333 20.667 63.666 31 102.999 31c38.667 0 72.667 -10.667 102 -32
c32.667 -23.333 49 -53.666 49 -90.999v-211z" />
    <glyph glyph-name="hyphen" unicode="-" horiz-adv-x="1036" 
d="M975 606c0 -60 -30.667 -90 -92 -90h-697c-61.333 0 -92 30 -92 90c0 61.333 30.667 92 92 92h697c26 0 47.833 -8.83301 65.5 -26.5s26.5 -39.5 26.5 -65.5z" />
    <glyph glyph-name="hyphen" unicode="&#x2010;" horiz-adv-x="1036" 
d="M975 606c0 -60 -30.667 -90 -92 -90h-697c-61.333 0 -92 30 -92 90c0 61.333 30.667 92 92 92h697c26 0 47.833 -8.83301 65.5 -26.5s26.5 -39.5 26.5 -65.5z" />
    <glyph glyph-name="period" unicode="." horiz-adv-x="459" 
d="M397 121c0 -37.333 -16.333 -67.334 -49 -90.001c-29.333 -20.667 -63.333 -31 -102 -31s-72.667 10.333 -102 31c-33.333 22.667 -50 52.667 -50 90c0 38 16.333 68.667 49 92c28.667 20.667 63 31 103 31c38.667 0 72.667 -10.667 102 -32
c32.667 -23.333 49 -53.666 49 -90.999z" />
    <glyph glyph-name="slash" unicode="/" horiz-adv-x="721" 
d="M659 1116c0 -10 -2.00098 -20.333 -6.00098 -31l-385 -1040h-2c-16 -34 -43.333 -51 -82 -51c-60 0 -90 30.667 -90 92c0 10 2 20.333 6 31l383 1032c14.667 39.333 43.334 59 86.001 59c60 0 90 -30.667 90 -92z" />
    <glyph glyph-name="zero" unicode="0" 
d="M1006 395c0 -116 -48 -212.333 -144 -289c-88.667 -70.667 -192.334 -106 -311.001 -106c-120 0 -224.333 35 -313 105c-96 76 -144 172.667 -144 290v424c0 117.333 48 214 144 290c88.667 70 193 105 313 105c118.667 0 222.334 -35.333 311.001 -106
c96 -76.667 144 -173 144 -289v-424zM702 217l0.000976562 778c-46 24.667 -96.333 37 -151 37c-56 0 -107.333 -12.333 -154 -37v-778c45.333 -23.333 96.666 -35 153.999 -35c54.667 0 105 11.667 151 35z" />
    <glyph glyph-name="one" unicode="1" horiz-adv-x="885" 
d="M823 90c0 -24.667 -8.83301 -45.834 -26.5 -63.501s-38.834 -26.5 -63.501 -26.5h-547c-61.333 0 -92 30 -92 90c0 61.333 30.667 92 92 92h121v711l-59 -55c-18 -16.667 -38.667 -25 -62 -25c-26 0 -47.833 8.83301 -65.5 26.5s-26.5 39.5 -26.5 65.5
c0 26.667 9.66699 48.667 29 66l217 196c34.667 31.333 74.334 47 119.001 47c39.333 0 73.333 -10.333 102 -31c32.667 -23.333 49 -53.666 49 -90.999v-910h123c60 0 90 -30.667 90 -92z" />
    <glyph glyph-name="two" unicode="2" 
d="M1006 121c0 -36 -17 -65.667 -51 -89c-30 -21.333 -63.667 -32 -101 -32h-608c-38.667 -0 -72.667 10.333 -102 31c-33.333 22.667 -50 52.667 -50 90v213c0 117.333 48 214 144 290c88.667 70 193 105 313 105h151v303h-305v-61c0 -37.333 -16.333 -67.333 -49 -90
c-29.333 -20.667 -63.333 -31 -102 -31s-72.667 10.333 -102 31c-33.333 22.667 -50 52.667 -50 90v121c0 37.333 16.333 67.666 49 90.999c28.667 20.667 63 31 103 31h608c38.667 0 73 -10.333 103 -31c32.667 -23.333 49 -53.666 49 -90.999v-424
c0 -37.333 -16.667 -67.333 -50 -90c-29.333 -20.667 -63.333 -31 -102 -31h-303c-56 0 -107.333 -12.333 -154 -37v-328h305v62c0 37.333 16.667 67.333 50 90c29.333 20.667 63.333 31 102 31s72.667 -10.333 102 -31c33.333 -22.667 50 -52.667 50 -90v-123z" />
    <glyph glyph-name="three" unicode="3" 
d="M1006 121c0 -36 -16.999 -65.667 -50.999 -89c-30 -21.333 -63.667 -32 -101 -32h-608c-38.667 -0 -72.667 10.333 -102 31c-33.333 22.667 -50 52.667 -50 90s16.333 68 49 92c29.333 20.667 63.666 31 102.999 31c58.667 0 102.334 -20.667 131.001 -62h325v303
c0 22 7 42.667 21 62h-385c-61.333 0 -92 30 -92 90c0 61.333 30.667 92 92 92h385c-14 18 -21 37.667 -21 59v244h-325c-28.667 -40.667 -72.334 -61 -131.001 -61c-39.333 0 -73.666 10 -102.999 30c-32.667 22.667 -49 53 -49 91c0 37.333 16.333 67.666 49 90.999
c28.667 20.667 63 31 103 31h608c38.667 0 73 -10.333 103 -31c32.667 -23.333 49 -53.666 49 -90.999v-304c0 -31.333 -13.667 -58.333 -41 -81c-24.667 -20.667 -53.334 -33 -86.001 -37c2.66699 -11.333 4 -22.333 4 -33s-1.33301 -21.667 -4 -33
c33.333 -4 62 -16.333 86 -37c27.333 -22.667 41 -50 41 -82v-364z" />
    <glyph glyph-name="four" unicode="4" horiz-adv-x="1036" 
d="M975 121c0 -37.333 -16.666 -67.3359 -49.999 -90.0029c-29.333 -20.667 -63.333 -31 -102 -31s-72.667 10.333 -102 31c-32.667 22.667 -49 52.667 -49 90v207h-426c-40 0 -74.333 10.333 -103 31c-32.667 23.333 -49 54 -49 92c0 22.667 7 49.667 21 81l174 609
c15.333 53.333 57 80 125 80c14.667 0 33 -3.66699 55 -11c75.333 -25.333 113 -69 113 -131c0 -9.33301 -1.33301 -18.666 -4 -27.999l-158 -541h252v248c0 38.667 16 69.334 48 92.001c28.667 20.667 63 31 103 31c39.333 0 73.666 -10.667 102.999 -32
c32.667 -23.333 49 -53.666 49 -90.999v-637z" />
    <glyph glyph-name="five" unicode="5" 
d="M1006 121c0 -36 -17 -65.666 -51 -88.999c-30 -21.333 -63.667 -32 -101 -32h-608c-38.667 0 -72.667 10.333 -102 31c-33.333 22.667 -50 52.667 -50 90v123c0 37.333 16.333 67.666 49 90.999c29.333 20 63.666 30 102.999 30c38.667 0 72.667 -10.333 102 -31
c32.667 -22.667 49 -52.667 49 -90v-62h305v328c-46 24.667 -96.333 37 -151 37h-305c-38.667 0 -72.667 10.333 -102 31c-33.333 22.667 -50 52.667 -50 90v424c0 37.333 16.333 67.666 49 90.999c28.667 20.667 63 31 103 31h608c38.667 0 73 -10.333 103 -31
c32.667 -23.333 49 -53.666 49 -90.999v-121c0 -36 -17 -65.667 -51 -89c-30 -21.333 -63.667 -32 -101 -32c-38.667 0 -72.667 10.333 -102 31c-33.333 22.667 -50 52.667 -50 90v61h-305v-303h154c118.667 0 222.334 -35.333 311.001 -106c96 -76.667 144 -173 144 -289
v-213z" />
    <glyph glyph-name="six" unicode="6" 
d="M1006 121c0 -36 -17.001 -65.667 -51.001 -89c-30 -21.333 -63.667 -32 -101 -32h-608c-38.667 -0 -72.667 10.333 -102 31c-33.333 22.667 -50 52.667 -50 90v971c0 37.333 16.333 67.666 49 90.999c28.667 20.667 63 31 103 31h608c38.667 0 73 -10.333 103 -31
c32.667 -23.333 49 -53.666 49 -90.999v-121c0 -36 -17 -65.667 -51 -89c-30 -21.333 -63.667 -32 -101 -32c-38.667 0 -72.667 10.333 -102 31c-33.333 22.667 -50 52.667 -50 90v61h-305v-303h154c118.667 0 222.334 -35.333 311.001 -106c96 -76.667 144 -173 144 -289
v-213zM701.999 182v328c-46 24.667 -96.333 37 -151 37h-154v-365h305z" />
    <glyph glyph-name="seven" unicode="7" horiz-adv-x="954" 
d="M921 1092c0 37.333 -16.333 67.6641 -49 90.9971c-28.667 20.667 -63 31 -103 31h-608c-40 0 -74.333 -10.333 -103 -31c-32 -23.333 -48 -53.666 -48 -90.999c0 -36.667 16 -66.667 48 -90c30 -20.667 64.333 -31 103 -31c58.667 0 102.667 20.667 132 62h296l-294 -868
c-2.66699 -11.333 -4 -21.666 -4 -30.999c0 -41.333 17.667 -75.666 53 -102.999c33.333 -24.667 71.333 -37 114 -37c64 0 105.667 26.667 125 80l328 979c6.66699 14 10 27 10 39z" />
    <glyph glyph-name="eight" unicode="8" 
d="M1006 121c0 -36 -16.998 -65.667 -50.998 -89c-30 -21.333 -63.667 -32 -101 -32h-608c-38.667 -0 -72.667 10.333 -102 31c-33.333 22.667 -50 52.667 -50 90v364c0 32 13.667 59.333 41 82c24 20.667 52.667 33 86 37c-2.66699 11.333 -4 22.333 -4 33
s1.33301 21.667 4 33c-32.667 4 -61.334 16.333 -86.001 37c-27.333 22.667 -41 49.667 -41 81v304c0 37.333 16.333 67.666 49 90.999c28.667 20.667 63 31 103 31h608c38.667 0 73 -10.333 103 -31c32.667 -23.333 49 -53.666 49 -90.999v-304
c0 -31.333 -13.667 -58.333 -41 -81c-24.667 -20.667 -53.334 -33 -86.001 -37c2.66699 -11.333 4 -22.333 4 -33s-1.33301 -21.667 -4 -33c33.333 -4 62 -16.333 86 -37c27.333 -22.667 41 -50 41 -82v-364zM723.002 729c-14 18 -21 37.667 -21 59v244h-305v-244
c0 -21.333 -6.66699 -41 -20 -59h346zM723.002 547h-346c13.333 -19.333 20 -40 20 -62v-303h305v303c0 22 7 42.667 21 62z" />
    <glyph glyph-name="nine" unicode="9" 
d="M1006 121c0 -36 -16.999 -65.666 -50.999 -88.999c-30 -21.333 -63.667 -32 -101 -32h-608c-38.667 0 -72.667 10.333 -102 31c-33.333 22.667 -50 52.667 -50 90v123c0 37.333 16.333 67.666 49 90.999c29.333 20 63.666 30 102.999 30c38.667 0 72.667 -10.333 102 -31
c32.667 -22.667 49 -52.667 49 -90v-62h305v303h-151c-118.667 0 -223 35.667 -313 107c-96 76 -144 172.333 -144 289v211c0 37.333 16.333 67.666 49 90.999c28.667 20.667 63 31 103 31h608c38.667 0 73 -10.333 103 -31c32.667 -23.333 49 -53.666 49 -90.999v-971z
M702.001 668.001l0.000976562 364h-305v-330c45.333 -22.667 96.666 -34 153.999 -34h151z" />
    <glyph glyph-name="colon" unicode=":" horiz-adv-x="459" 
d="M397 729c0 -37.333 -16.333 -67.667 -49 -91c-29.333 -21.333 -63.333 -32 -102 -32c-40 0 -74.333 10.333 -103 31c-32.667 23.333 -49 54 -49 92c0 37.333 16.667 67.333 50 90c29.333 20.667 63.333 31 102 31s72.667 -10.333 102 -31
c32.667 -22.667 49 -52.667 49 -90zM397 120.999c0 -37.333 -16.333 -67.334 -49 -90.001c-29.333 -20.667 -63.333 -31 -102 -31s-72.667 10.333 -102 31c-33.333 22.667 -50 52.667 -50 90c0 38 16.333 68.667 49 92c28.667 20.667 63 31 103 31
c38.667 0 72.667 -10.667 102 -32c32.667 -23.333 49 -53.666 49 -90.999z" />
    <glyph glyph-name="semicolon" unicode=";" horiz-adv-x="459" 
d="M397 729c0 -37.333 -16.334 -67.667 -49.001 -91c-29.333 -21.333 -63.333 -32 -102 -32c-39.333 0 -73.666 10.333 -102.999 31c-32.667 24 -49 54.667 -49 92c0 38 16.333 68.333 49 91c28.667 20 63 30 103 30c38.667 0 72.667 -10.333 102 -31
c32.667 -22.667 49 -52.667 49 -90zM396.999 -90.001c0 -37.333 -16.333 -67.668 -49 -91.001c-29.333 -21.333 -63.333 -32 -102 -32c-39.333 0 -73.666 10.333 -102.999 31c-32.667 24 -49 54.667 -49 92v211c0 37.333 16.333 68 49 92
c29.333 20.667 63.666 31 102.999 31c38.667 0 72.667 -10.667 102 -32c32.667 -23.333 49 -53.666 49 -90.999v-211z" />
    <glyph glyph-name="less" unicode="&#x3c;" horiz-adv-x="1065" 
d="M1004 350c0 -42 -13 -80 -39 -114c-28 -37.333 -62.333 -56 -103 -56c-14 0 -25.667 2 -35 6l-659 285c-49.333 21.333 -74 62.333 -74 123c0 70.667 28.667 122 86 154v0l688 290c17.333 7.33301 30.333 11 39 11c25.333 0 47 -8.83301 65 -26.5s27 -39.167 27 -64.5
c0 -40 -20.333 -68.667 -61 -86l-469 -200l461 -199c49.333 -21.333 74 -62.333 74 -123z" />
    <glyph glyph-name="equal" unicode="=" horiz-adv-x="1036" 
d="M975 819c0 -60 -30.667 -90 -92 -90h-697c-61.333 0 -92 30 -92 90s30.667 90 92 90h697c61.333 0 92 -30 92 -90zM975 395c0 -26 -8.83301 -47.833 -26.5 -65.5s-39.5 -26.5 -65.5 -26.5h-697c-61.333 0 -92 30.667 -92 92c0 60 30.667 90 92 90h697
c61.333 0 92 -30 92 -90z" />
    <glyph glyph-name="greater" unicode="&#x3e;" horiz-adv-x="1065" 
d="M1004 631c0 -71.333 -28.999 -122.666 -86.999 -153.999v0l-688 -291c-16 -6.66699 -29 -10 -39 -10c-60 0 -90 30 -90 90c0 40 20 68.667 60 86l469 201l-461 199c-49.333 21.333 -74 62 -74 122c0 43.333 12.667 81.666 38 114.999c27.333 36.667 62 55 104 55
c13.333 0 24.666 -2 33.999 -6l660 -284c49.333 -21.333 74 -62.333 74 -123z" />
    <glyph glyph-name="question" unicode="?" 
d="M1006 668c0 -37.333 -16.667 -67.334 -50 -90.001c-29.333 -20.667 -63.333 -31 -102 -31h-244v-123c0 -37.333 -16.333 -67.333 -49 -90c-29.333 -20.667 -63.333 -31 -102 -31s-72.667 10.333 -102 31c-33.333 22.667 -50 52.667 -50 90v182
c0 38.667 16.333 69.334 49 92.001c28.667 20.667 63 31 103 31h243v303h-305v-61c0 -37.333 -16.333 -67.333 -49 -90c-29.333 -20.667 -63.333 -31 -102 -31s-72.667 10.333 -102 31c-33.333 22.667 -50 52.667 -50 90v121c0 37.333 16.333 67.666 49 90.999
c28.667 20.667 63 31 103 31h608c38.667 0 73 -10.333 103 -31c32.667 -23.333 49 -53.666 49 -90.999v-424zM610 120.999c0 -37.333 -16.333 -67.334 -49 -90.001c-29.333 -20.667 -63.333 -31 -102 -31s-72.667 10.333 -102 31c-33.333 22.667 -50 52.667 -50 90
c0 38 16.333 68.667 49 92c28.667 20.667 63 31 103 31c38.667 0 72.667 -10.667 102 -32c32.667 -23.333 49 -53.666 49 -90.999z" />
    <glyph glyph-name="at" unicode="@" horiz-adv-x="2129" 
d="M1702 120l0.00195312 971.999c0 36 -16.333 65.667 -49 89c-31.333 20.667 -65.666 31 -102.999 31c-38.667 0 -72.334 -10.333 -101.001 -31c-33.333 -23.333 -50 -53 -50 -89v-911h-1001v849h608v-152h-396c-38.667 0 -73 -10.333 -103 -31
c-31.333 -23.333 -47 -53 -47 -89v-333c0 -38.667 15.667 -69.667 47 -93c28.667 -20.667 63 -31 103 -31h546c41.333 0 75.666 11 102.999 33c33.333 22 50 52.333 50 91v667c0 36 -16.667 65.667 -50 89c-28.667 20.667 -63 31 -103 31h-911
c-36.667 0 -71 -9.66699 -103 -29c-31.333 -23.333 -47 -53.666 -47 -90.999v-972c0 -38.667 16.333 -69 49 -91c29.333 -20.667 63 -31 101 -31h1305c37.333 0 71.666 10.333 102.999 31c32.667 22 49 52.333 49 91zM1006 483.999h-243v213h243v-213z" />
    <glyph glyph-name="A" unicode="A" 
d="M1006 121c0 -36 -17 -65.667 -51 -89c-30 -21.333 -63.667 -32 -101 -32c-38.667 -0 -72.667 10.333 -102 31c-33.333 22.667 -50 52.667 -50 90v414h-305v-414c0 -37.333 -16.333 -67.333 -49 -90c-29.333 -20.667 -63.333 -31 -102 -31s-72.667 10.333 -102 31
c-33.333 22.667 -50 52.667 -50 90v971c0 37.333 16.333 67.666 49 90.999c28.667 20.667 63 31 103 31h608c38.667 0 73 -10.333 103 -31c32.667 -23.333 49 -53.666 49 -90.999v-971zM702 717v315h-305v-315h305z" />
    <glyph glyph-name="B" unicode="B" 
d="M1006 121c0 -36 -16.999 -65.667 -50.999 -89c-30 -21.333 -63.667 -32 -101 -32h-608c-38.667 -0 -72.667 10.333 -102 31c-33.333 22.667 -50 52.667 -50 90v971c0 37.333 16.333 67.666 49 90.999c28.667 20.667 63 31 103 31h608c38.667 0 73 -10.333 103 -31
c32.667 -23.333 49 -53.666 49 -90.999v-304c0 -31.333 -13.667 -58.333 -41 -81c-24.667 -20.667 -53.334 -33 -86.001 -37c2.66699 -11.333 4 -22.333 4 -33s-1.33301 -21.667 -4 -33c33.333 -4 62 -16.333 86 -37c27.333 -22.667 41 -50 41 -82v-364zM723.001 729
c-14 18 -21 37.667 -21 59v244h-305v-303h326zM723.001 547h-326v-365h305v303c0 22 7 42.667 21 62z" />
    <glyph glyph-name="C" unicode="C" 
d="M1006 121c0 -36 -17 -65.6689 -51 -89.002c-30 -21.333 -63.667 -32 -101 -32h-608c-38.667 0 -72.667 10.333 -102 31c-33.333 22.667 -50 52.667 -50 90v971c0 37.333 16.333 67.666 49 90.999c28.667 20.667 63 31 103 31h608c38.667 0 73 -10.333 103 -31
c32.667 -23.333 49 -53.666 49 -90.999v-211c0 -37.333 -16.667 -67.666 -50 -90.999c-29.333 -21.333 -63.333 -32 -102 -32c-40 0 -74.333 10.333 -103 31c-32.667 22.667 -49 53.334 -49 92.001v151h-305v-850h305v152c0 37.333 16.667 67.333 50 90
c29.333 20.667 63.333 31 102 31s72.667 -10.333 102 -31c33.333 -22.667 50 -52.667 50 -90v-213z" />
    <glyph glyph-name="D" unicode="D" 
d="M1006 395c0 -116 -48 -212.332 -144 -288.999c-88.667 -70.667 -192.334 -106 -311.001 -106h-305c-38.667 0 -72.667 10.333 -102 31c-33.333 22.667 -50 52.667 -50 90v971c0 37.333 16.333 67.666 49 90.999c28.667 20.667 63 31 103 31h305
c118.667 0 222.334 -35.333 311.001 -106c96 -76.667 144 -173 144 -289v-424zM702 217.001v778c-46 24.667 -96.333 37 -151 37h-154v-850h154c54.667 0 105 11.667 151 35z" />
    <glyph glyph-name="E" unicode="E" horiz-adv-x="1026" 
d="M1006 122c0 36.667 -16.667 66.667 -50 90c-28.667 20.667 -63 31 -103 31c-57.333 0 -100.666 -20.667 -129.999 -62h-325v334h395c25.333 0 46.5 9 63.5 27s25.5 39.333 25.5 64c0 62 -29.667 93 -89 93h-395v334h325c29.333 -41.333 72.666 -62 129.999 -62
c40 0 73.667 11 101 33c34.667 22 52 51.333 52 88c0 37.333 -16.667 67.666 -50 90.999c-28.667 20.667 -63 31 -103 31h-608c-40 0 -74.333 -10.333 -103 -31c-31.333 -23.333 -47 -53.666 -47 -90.999v-970c0 -38.667 16.333 -69 49 -91c29.333 -20.667 63 -31 101 -31
h608c40 0 73.667 11 101 33c34.667 22 52 51.667 52 89z" />
    <glyph glyph-name="F" unicode="F" horiz-adv-x="1016" 
d="M1006 1092c0 37.333 -16.666 67.666 -49.999 90.999c-28.667 20.667 -63 31 -103 31h-608c-40 0 -74.333 -10.333 -103 -31c-31.333 -23.333 -47 -53.666 -47 -90.999v-970c0 -38.667 16.333 -69 49 -91c29.333 -20.667 63 -31 101 -31c40 -0 74.333 10.333 103 31
c33.333 22 50 52.333 50 91v393h395c25.333 0 46.5 9 63.5 27s25.5 39.333 25.5 64c0 62 -29.667 93 -89 93h-395v334h325c29.333 -41.333 72.666 -62 129.999 -62c40 0 73.667 11 101 33c34.667 22 52 51.333 52 88z" />
    <glyph glyph-name="G" unicode="G" 
d="M1006 121c0 -36 -17 -65.667 -51 -89c-30 -21.333 -63.667 -32 -101 -32h-608c-38.667 -0 -72.667 10.333 -102 31c-33.333 22.667 -50 52.667 -50 90v971c0 37.333 16.333 67.666 49 90.999c28.667 20.667 63 31 103 31h608c38.667 0 73 -10.333 103 -31
c32.667 -23.333 49 -53.666 49 -90.999v-183c0 -36 -17 -65.667 -51 -89c-30 -21.333 -63.667 -32 -101 -32c-38.667 0 -72.667 10.333 -102 31c-33.333 22.667 -50 52.667 -50 90v123h-305v-850h305v273h-92c-60 0 -90 30.667 -90 92c0 60 30 90 90 90h244
c38.667 0 72.667 -10.333 102 -31c33.333 -22.667 50 -52.667 50 -90v-395z" />
    <glyph glyph-name="H" unicode="H" 
d="M1006 121c0 -36 -17 -65.668 -51 -89.001c-30 -21.333 -63.667 -32 -101 -32c-38.667 0 -72.667 10.333 -102 31c-33.333 22.667 -50 52.667 -50 90v414h-305v-414c0 -37.333 -16.333 -67.333 -49 -90c-29.333 -20.667 -63.333 -31 -102 -31s-72.667 10.333 -102 31
c-33.333 22.667 -50 52.667 -50 90v971c0 37.333 16.333 67.666 49 90.999c28.667 20.667 63 31 103 31c52 0 102.333 -40.667 151 -122v-375h305v375c0 38.667 16.333 69.334 49 92.001c28.667 20 63 30 103 30c38.667 0 73 -10.333 103 -31
c32.667 -23.333 49 -53.666 49 -90.999v-971z" />
    <glyph glyph-name="I" unicode="I" horiz-adv-x="459" 
d="M397 121c0 -37.333 -16.333 -67.333 -49 -90c-29.333 -20.667 -63.333 -31 -102 -31s-72.667 10.333 -102 31c-33.333 22.667 -50 52.667 -50 90v971c0 37.333 16.333 67.666 49 90.999c28.667 20.667 63 31 103 31c39.333 0 73.333 -10.333 102 -31
c32.667 -23.333 49 -53.666 49 -90.999v-971z" />
    <glyph glyph-name="J" unicode="J" horiz-adv-x="981" 
d="M919 122l-0.000976562 970c0 37.333 -16.333 67.666 -49 90.999c-29.333 20.667 -63 31 -101 31c-40 0 -74.333 -10.333 -103 -31c-33.333 -23.333 -50 -53.666 -50 -90.999v-911h-243v153c0 37.333 -16.333 67.666 -49 90.999c-29.333 20 -63.666 30 -102.999 30
c-38.667 0 -72.334 -10 -101.001 -30c-33.333 -23.333 -50 -53.666 -50 -90.999v-212c0 -38.667 16.667 -69 50 -91c28.667 -20.667 62.334 -31 101.001 -31h548c38 -0 71.667 10.333 101 31c32.667 22 49 52.333 49 91z" />
    <glyph glyph-name="K" unicode="K" horiz-adv-x="1074" 
d="M1012 1123c0 24.667 -9.00098 45.999 -27.001 63.999s-39.333 27 -64 27c-30 0 -54.667 -11.667 -74 -35l-449 -610v523c-49.333 81.333 -100.333 122 -153 122c-40 0 -74.333 -10.333 -103 -31c-31.333 -23.333 -47 -53.666 -47 -90.999v-970
c0 -38.667 16.333 -69 49 -91c29.333 -20.667 63 -31 101 -31c40 -0 74.333 10.333 103 31c33.333 22 50 52.333 50 91v132l152 210l169 -396c18 -45.333 57.333 -68 118 -68c24.667 0 47.334 4.66699 68.001 14c67.333 26.667 101 70 101 130c0 14 -2.66699 27 -8 39
l-233 573l228 314c12.667 16 19 33.667 19 53z" />
    <glyph glyph-name="L" unicode="L" horiz-adv-x="1028" 
d="M1006 122c0 36.667 -16.668 66.666 -50.001 89.999c-28.667 20.667 -63 31 -103 31c-57.333 0 -100.666 -20.667 -129.999 -62h-325v911c-49.333 81.333 -100.333 122 -153 122c-40 0 -74.333 -10.333 -103 -31c-31.333 -23.333 -47 -53.666 -47 -90.999v-970
c0 -38.667 16.333 -69 49 -91c29.333 -20.667 63 -31 101 -31h608c40 0 73.667 11 101 33c34.667 22 52 51.667 52 89z" />
    <glyph glyph-name="M" unicode="M" horiz-adv-x="1612" 
d="M1550 121c0 -37.333 -16.3311 -67.335 -48.998 -90.002c-29.333 -20.667 -63.333 -31 -102 -31s-72.667 10.333 -102 31c-33.333 22.667 -50 52.667 -50 90v911h-110c-30 -40.667 -73.667 -61 -131 -61c-14 0 -26.333 1.33301 -37 4c4 -11.333 6 -23 6 -35v-819
c0 -37.333 -16.667 -67.333 -50 -90c-29.333 -20.667 -63.333 -31 -102 -31s-72.667 10.333 -102 31c-32.667 22.667 -49 52.667 -49 90v819c0 12 2 23.667 6 35c-12.667 -2.66699 -25 -4 -37 -4c-58.667 0 -102.334 20.333 -131.001 61h-113v-911
c0 -37.333 -16.333 -67.333 -49 -90c-29.333 -20.667 -63.333 -31 -102 -31s-72.667 10.333 -102 31c-33.333 22.667 -50 52.667 -50 90v971c0 37.333 16.333 67.666 49 90.999c28.667 20.667 63 31 103 31h395c38.667 0 73 -10.333 103 -31
c32.667 -23.333 49 -53.666 49 -90.999c0 -11.333 -2.33301 -22.333 -7 -33c12.667 2.66699 25 4 37 4c11.333 0 23.666 -1.33301 36.999 -4c-4 10.667 -6 21.667 -6 33c0 38.667 16.333 69.334 49 92.001c28.667 20 63 30 103 30h393c39.333 0 73.333 -10.333 102 -31
c32.667 -23.333 49 -53.666 49 -90.999v-971z" />
    <glyph glyph-name="N" unicode="N" 
d="M1006 121c0 -36 -17.001 -65.668 -51.001 -89.001c-30 -21.333 -63.667 -32 -101 -32c-68 0 -115 24.667 -141 74v0l-316 633v-586c0 -37.333 -16.333 -67.333 -49 -90c-29.333 -20.667 -63.333 -31 -102 -31s-72.667 10.333 -102 31c-33.333 22.667 -50 52.667 -50 90
v971c0 37.333 16.333 67.666 49 90.999c28.667 20.667 63 31 103 31c68.667 0 114.334 -23 137.001 -69l319 -639v586c0 38.667 16.333 69.334 49 92.001c28.667 20 63 30 103 30c38.667 0 73 -10.333 103 -31c32.667 -23.333 49 -53.666 49 -90.999v-971z" />
    <glyph glyph-name="O" unicode="O" 
d="M1006 121c0 -36 -17 -65.667 -51 -89c-30 -21.333 -63.667 -32 -101 -32h-608c-38.667 -0 -72.667 10.333 -102 31c-33.333 22.667 -50 52.667 -50 90v971c0 37.333 16.333 67.666 49 90.999c28.667 20.667 63 31 103 31h608c38.667 0 73 -10.333 103 -31
c32.667 -23.333 49 -53.666 49 -90.999v-971zM702 182v850h-305v-850h305z" />
    <glyph glyph-name="P" unicode="P" horiz-adv-x="1068" 
d="M1006 668v424c0 37.333 -16.667 67.666 -50 90.999c-28.667 20.667 -63 31 -103 31h-608c-40 0 -74.333 -10.333 -103 -31c-31.333 -23.333 -47 -53.666 -47 -90.999v-970c0 -38.667 16.333 -69 49 -91c29.333 -20.667 63 -31 101 -31c40 -0 74.333 10.333 103 31
c33.333 22 50 52.333 50 91v424h455c40 0 74.333 10.333 103 31c33.333 22 50 52.333 50 91zM703 730h-305v303h305v-303z" />
    <glyph glyph-name="Q" unicode="Q" 
d="M1006 121c0 -36 -16.999 -65.667 -50.999 -89c-30 -21.333 -63.667 -32 -101 -32c-38.667 -0 -72.667 10.333 -102 31c-33.333 22.667 -50 52.667 -50 90v911h-305v-850h92v-2c10 1.33301 20.333 2 31 2c39.333 0 73.666 -10 102.999 -30c32.667 -22.667 49 -53 49 -91
v-243c0 -36 -17 -65.667 -51 -89c-30 -21.333 -63.667 -32 -101 -32c-38.667 0 -72.667 10.333 -102 31c-32.667 22.667 -49 52.667 -49 90v182h-123c-38.667 -0 -72.667 10.333 -102 31c-33.333 22.667 -50 52.667 -50 90v971c0 37.333 16.333 67.666 49 90.999
c28.667 20.667 63 31 103 31h608c38.667 0 73 -10.333 103 -31c32.667 -23.333 49 -53.666 49 -90.999v-971z" />
    <glyph glyph-name="R" unicode="R" horiz-adv-x="1071" 
d="M1010 96c0 -28.667 -15.001 -52.333 -45.001 -71c-26 -16.667 -54 -25 -84 -25c-94 -0 -153.667 40.333 -179 121l-133 426h-172v-426c0 -37.333 -16.333 -67.333 -49 -90c-29.333 -20.667 -63.333 -31 -102 -31s-72.667 10.333 -102 31
c-33.333 22.667 -50 52.667 -50 90v971c0 37.333 16.333 67.666 49 90.999c28.667 20.667 63 31 103 31h608c38.667 0 73 -10.333 103 -31c32.667 -23.333 49 -53.666 49 -90.999v-424c0 -33.333 -14.333 -61.333 -43 -84c-25.333 -20.667 -55.666 -33 -90.999 -37l134 -426
c2.66699 -8.66699 4 -17 4 -25zM701.999 729.001v303h-305v-303h305z" />
    <glyph glyph-name="S" unicode="S" 
d="M1006 121c0 -36 -16.999 -65.667 -50.999 -89c-30 -21.333 -63.667 -32 -101 -32h-608c-38.667 -0 -72.667 10.333 -102 31c-33.333 22.667 -50 52.667 -50 90v123c0 37.333 16.333 67.666 49 90.999c29.333 20 63.666 30 102.999 30c38.667 0 72.667 -10.333 102 -31
c32.667 -22.667 49 -52.667 49 -90v-62h305v365h-456c-38.667 0 -72.667 10.333 -102 31c-33.333 22.667 -50 52.667 -50 90v424c0 37.333 16.333 67.666 49 90.999c28.667 20.667 63 31 103 31h608c38.667 0 73 -10.333 103 -31c32.667 -23.333 49 -53.666 49 -90.999v-121
c0 -36 -17 -65.667 -51 -89c-30 -21.333 -63.667 -32 -101 -32c-38.667 0 -72.667 10.333 -102 31c-33.333 22.667 -50 52.667 -50 90v61h-305v-303h457c38.667 0 72.667 -10.667 102 -32c33.333 -23.333 50 -53.666 50 -90.999v-485z" />
    <glyph glyph-name="T" unicode="T" horiz-adv-x="1039" 
d="M1039 1092c0 37.333 -16.001 67.665 -48.001 90.998c-28.667 20.667 -63 31 -103 31h-729c-40 0 -74.333 -10.333 -103 -31c-32 -23.333 -48 -53.666 -48 -90.999c0 -36.667 16 -66.667 48 -90c30 -20.667 64.333 -31 103 -31c58.667 0 102.667 20.667 132 62h82v-911
c0 -37.333 15.667 -67.666 47 -90.999c30.667 -20.667 65 -31 103 -31c38.667 -0 72.334 10.333 101.001 31c34.667 22 52 52.333 52 91v911h82c26.667 -41.333 70 -62 130 -62c40 0 74.333 10.333 103 31c32 23.333 48 53.333 48 90z" />
    <glyph glyph-name="U" unicode="U" 
d="M1006 121c0 -36 -17 -65.6689 -51 -89.002c-30 -21.333 -63.667 -32 -101 -32h-608c-38.667 0 -72.667 10.333 -102 31c-33.333 22.667 -50 52.667 -50 90v971c0 37.333 16.333 67.666 49 90.999c28.667 20.667 63 31 103 31c39.333 0 73.333 -10.333 102 -31
c32.667 -23.333 49 -53.666 49 -90.999v-910h305v910c0 38.667 16.333 69.334 49 92.001c28.667 20 63 30 103 30c38.667 0 73 -10.333 103 -31c32.667 -23.333 49 -53.666 49 -90.999v-971z" />
    <glyph glyph-name="V" unicode="V" horiz-adv-x="1059" 
d="M1059 1127c0 26.667 -8.83105 48.5 -26.498 65.5s-38.834 25.5 -63.501 25.5c-42.667 0 -71.667 -20 -87 -60l-272 -756l-272 740c-19.333 48 -60 72 -122 72c-18.667 0 -39 -4 -61 -12c-72 -26.667 -108 -70 -108 -130c0 -14 2.33301 -25.667 7 -35l358 -975
c16.667 -48 56.667 -72 120 -72c71.333 0 122.666 28.667 153.999 86h2l367 1023c2.66699 8 4 17.333 4 28z" />
    <glyph glyph-name="W" unicode="W" horiz-adv-x="1690" 
d="M1690 1127c0 26.667 -8.66699 48.5 -26 65.5s-38.333 25.5 -63 25.5c-42 0 -70.667 -20 -86 -60l-272 -756l-272 740c-19.333 48 -60 72 -122 72c-20.667 0 -42 -4 -64 -12c-70 -28 -105 -71.333 -105 -130c0 -14 2 -25.667 6 -35l81 -219l-151 -410l-268 734
c-19.333 48 -59.666 72 -120.999 72c-19.333 0 -40 -4 -62 -12c-71.333 -26.667 -107 -70 -107 -130c0 -14 2 -25.667 6 -35l359 -975c17.333 -49.333 57 -74 119 -74c34.667 0 67.667 9.83301 99 29.5s52.666 44.834 63.999 75.501l159 455l179 -486
c18 -49.333 58.333 -74 121 -74c73.333 0 125 29.333 155 88h2l365 1023c2.66699 13.333 4 22.666 4 27.999z" />
    <glyph glyph-name="X" unicode="X" horiz-adv-x="1116" 
d="M1055 158c0 -51.333 -25.334 -93.667 -76.001 -127c-31.333 -20.667 -63.333 -31 -96 -31c-44 0 -77 15.667 -99 47l-252 358l-272 -368c-19.333 -26 -44 -39 -74 -39c-26 0 -47.833 8.83301 -65.5 26.5s-26.5 39.5 -26.5 65.5c0 18 6.33301 35.667 19 53l309 420
l-303 436c-12.667 18 -19 36.667 -19 56c0 51.333 25.333 94.333 76 129c29.333 20 61.333 30 96 30c44 0 77 -15.667 99 -47l243 -348l265 359c18 24 42.333 36 73 36c24.667 0 45.834 -8.83301 63.501 -26.5s26.5 -38.834 26.5 -63.501
c0 -23.333 -5.33301 -41.666 -16 -54.999l-29 -37l-274 -368l315 -449c11.333 -16 17 -35 17 -57z" />
    <glyph glyph-name="Y" unicode="Y" horiz-adv-x="1068" 
d="M1006 637v455c0 37.333 -16.667 67.666 -50 90.999c-28.667 20.667 -63 31 -103 31s-74.333 -10.333 -103 -31c-31.333 -23.333 -47 -53.666 -47 -90.999v-393h-305v393c0 37.333 -16.667 67.666 -50 90.999c-28.667 20.667 -63 31 -103 31s-74.333 -10.333 -103 -31
c-31.333 -23.333 -47 -53.666 -47 -90.999v-455c0 -38.667 16.333 -69 49 -91c29.333 -20.667 63 -31 101 -31h153v-393c0 -38.667 16.333 -69 49 -91c30.667 -20.667 65 -31 103 -31c40 0 73.667 11 101 33c34.667 22 52 51.667 52 89v393h150c40 0 73.667 11 101 33
c34.667 22 52 51.667 52 89z" />
    <glyph glyph-name="Z" unicode="Z" horiz-adv-x="1043" 
d="M1012 1055c0 52.667 -26 95.3311 -78 127.998c-32 20.667 -63.667 31 -95 31h-631c-40 0 -74.333 -10.333 -103 -31c-31.333 -23.333 -47 -53.666 -47 -90.999c0 -36.667 15.667 -66.667 47 -90c30 -20.667 64.333 -31 103 -31c59.333 0 103.333 20.667 132 62h307
l-573 -819c-12 -19.333 -18 -37.666 -18 -54.999c0 -51.333 25.333 -94 76 -128c30 -20.667 66.333 -31 109 -31h604c40 -0 74.333 10.333 103 31c33.333 22 50 52.333 50 91c0 36.667 -16.667 66.667 -50 90c-28.667 20.667 -63 31 -103 31
c-58 0 -101.333 -20.667 -130 -62h-295l573 817c12.667 17.333 19 36.333 19 57z" />
    <glyph glyph-name="bracketleft" unicode="[" horiz-adv-x="764" 
d="M702 -152c0 -26 -8.83398 -47.833 -26.501 -65.5s-39.5 -26.5 -65.5 -26.5h-364c-39.333 0 -73.666 10.333 -102.999 31c-32.667 24 -49 54.667 -49 92v1456c0 38 16.333 68.333 49 91c28.667 20 63 30 103 30h364c61.333 0 92 -30 92 -90
c0 -26 -8.83301 -47.833 -26.5 -65.5s-39.5 -26.5 -65.5 -26.5h-213v-1335h213c61.333 0 92 -30.333 92 -91z" />
    <glyph glyph-name="backslash" unicode="\" horiz-adv-x="811" 
d="M750 131c0 -61.333 -36.333 -105 -109 -131c-22.667 -8 -43 -12 -61 -12c-64 0 -105 24.333 -123 73l-357 975c-4 10.667 -6 22.334 -6 35.001c0 61.333 35.667 105 107 131c22 8 43 12 63 12c62.667 0 103 -24.333 121 -73l358 -975
c4.66699 -12.667 7 -24.334 7 -35.001z" />
    <glyph glyph-name="bracketright" unicode="]" horiz-adv-x="764" 
d="M702 -121c0 -37.333 -16.333 -67.667 -49 -91c-29.333 -21.333 -63.333 -32 -102 -32h-365c-26 0 -47.833 8.83301 -65.5 26.5s-26.5 39.5 -26.5 65.5c0 60.667 30.667 91 92 91h211v1335h-211c-61.333 0 -92 30.667 -92 92c0 60 30.667 90 92 90h365
c38.667 0 72.667 -10.333 102 -31c32.667 -22.667 49 -52.667 49 -90v-1456z" />
    <glyph glyph-name="asciicircum" unicode="^" horiz-adv-x="842" 
d="M780 702c0 -60 -30.667 -90.001 -92 -90.001c-42 0 -70 20 -84 60l-117 215l-100 -207c-24 -49.333 -65 -74 -123 -74c-18 0 -38.333 4 -61 12c-72.667 26 -109 70 -109 132c0 18.667 5.66699 36.334 17 53.001l172 348c17.333 49.333 57.333 74 120 74
c73.333 0 125.333 -28.667 156 -86l205 -383c10.667 -15.333 16 -33.333 16 -54z" />
    <glyph glyph-name="underscore" unicode="_" horiz-adv-x="1262" 
d="M1200 -274c0 -60.667 -30.667 -91 -92 -91h-922c-61.333 0 -92 30.333 -92 91c0 61.333 30.667 92 92 92h922c26 0 47.833 -8.83301 65.5 -26.5s26.5 -39.5 26.5 -65.5z" />
    <glyph glyph-name="grave" unicode="`" horiz-adv-x="618" 
d="M557 846c0 -56.667 -34.667 -89.335 -104 -98.002c-40.667 -5.33301 -81.334 1.33398 -122.001 20.001s-69.667 46 -87 82l-140 285c-6.66699 13.333 -10 29 -10 47c0 54 34.333 85.333 103 94c42.667 5.33301 83.334 -1 122.001 -19c41.333 -18.667 71 -46.667 89 -84
l139 -284c6.66699 -13.333 10 -27.666 10 -42.999z" />
    <glyph glyph-name="a" unicode="a" horiz-adv-x="1006" 
d="M944 121c0 -37.333 -16.3311 -67.333 -48.998 -90c-29.333 -20.667 -63.333 -31 -102 -31h-547c-38.667 -0 -72.667 10.333 -102 31c-33.333 22.667 -50 52.667 -50 90v334c0 37.333 16.667 67.333 50 90c28.667 20 62.667 30 102 30h395v154h-264
c-28.667 -40.667 -72.334 -61 -131.001 -61c-39.333 0 -73.333 10 -102 30c-33.333 22.667 -50 52.667 -50 90c0 38 16.333 68.333 49 91c29.333 20 63.666 30 102.999 30h547c39.333 0 73.333 -10 102 -30c32.667 -22.667 49 -53 49 -91v-667zM641.002 182v213h-244v-213
h244z" />
    <glyph glyph-name="b" unicode="b" horiz-adv-x="1006" 
d="M944 121c0 -37.333 -16.333 -67.333 -49 -90c-29.333 -20.667 -63.333 -31 -102 -31h-547c-38.667 -0 -72.667 10.333 -102 31c-33.333 22.667 -50 52.667 -50 90v971c0 37.333 16.333 67.666 49 90.999c28.667 20.667 63 31 103 31c39.333 0 73.333 -10.333 102 -31
c32.667 -23.333 49 -53.666 49 -90.999v-183h396c39.333 0 73.333 -10 102 -30c32.667 -22.667 49 -53 49 -91v-667zM641 182v547h-244v-547h244z" />
    <glyph glyph-name="c" unicode="c" horiz-adv-x="1006" 
d="M944 121c0 -37.333 -16.332 -67.334 -48.999 -90.001c-29.333 -20.667 -63.333 -31 -102 -31h-547c-38.667 0 -72.667 10.333 -102 31c-33.333 22.667 -50 52.667 -50 90v667c0 38 16.333 68.333 49 91c29.333 20 63.666 30 102.999 30h547c39.333 0 73.333 -10 102 -30
c32.667 -22.667 49 -53 49 -91c0 -37.333 -16.333 -67.333 -49 -90c-28.667 -20 -62.667 -30 -102 -30c-58.667 0 -102.667 20.333 -132 61h-264v-547h264c29.333 41.333 73.333 62 132 62c38.667 0 72.667 -10.667 102 -32c32.667 -23.333 49 -53.666 49 -90.999z" />
    <glyph glyph-name="d" unicode="d" horiz-adv-x="1006" 
d="M944 121c0 -37.333 -16.332 -67.335 -48.999 -90.002c-29.333 -20.667 -63.333 -31 -102 -31h-547c-38.667 0 -72.667 10.333 -102 31c-33.333 22.667 -50 52.667 -50 90v667c0 38 16.333 68.333 49 91c29.333 20 63.666 30 102.999 30h395v183
c0 38.667 16.333 69.334 49 92.001c28.667 20 63 30 103 30c39.333 0 73.333 -10.333 102 -31c32.667 -23.333 49 -53.666 49 -90.999v-971zM641.001 181.998v547h-244v-547h244z" />
    <glyph glyph-name="e" unicode="e" horiz-adv-x="1006" 
d="M944 122c0 36.667 -16.666 66.667 -49.999 90c-28.667 20.667 -62.334 31 -101.001 31c-58.667 0 -102.334 -20.667 -131.001 -62h-264v215h395c38.667 0 72.334 10.333 101.001 31c33.333 22 50 51.333 50 88v272c0 37.333 -16.667 67.666 -50 90.999
c-28.667 20.667 -62.334 31 -101.001 31h-548c-38 0 -72.333 -10.333 -103 -31c-31.333 -23.333 -47 -53.666 -47 -90.999v-665c0 -38.667 16.333 -69 49 -91c29.333 -20.667 63 -31 101 -31h548c38.667 -0 72.334 10.333 101.001 31c33.333 22 50 52.333 50 91z
M641.001 575h-243v155h243v-155z" />
    <glyph glyph-name="f" unicode="f" horiz-adv-x="791" 
d="M853 1092c0 37.333 -15.668 67.667 -47.001 91c-28.667 20.667 -63 31 -103 31h-153c-120.667 0 -225 -35 -313 -105c-94.667 -77.333 -142 -174.333 -142 -291v-696c0 -38.667 16.333 -69 49 -91c29.333 -20.667 63 -31 101 -31c40 -0 74.333 10.333 103 31
c33.333 22 50 52.333 50 91v608h243c24.667 0 46 8.5 64 25.5s27 37.833 27 62.5s-9 46 -27 64s-39.333 27 -64 27h-243v86c46.667 25.333 97.334 38 152.001 38h19c30 -41.333 74.667 -62 134 -62c35.333 0 69 10.333 101 31c32.667 24.667 49 54.667 49 90z" />
    <glyph glyph-name="g" unicode="g" horiz-adv-x="1006" 
d="M944 -244c0 -37.333 -16.332 -67.333 -48.999 -90c-29.333 -20.667 -63.333 -31 -102 -31h-547c-38.667 0 -72.667 10.333 -102 31c-33.333 22.667 -50 52.667 -50 90s16.333 68 49 92c29.333 20.667 63.666 31 102.999 31c58.667 0 102.334 -20.333 131.001 -61h264v182
h-395c-38.667 -0 -72.667 10.333 -102 31c-33.333 22.667 -50 52.667 -50 90v667c0 38 16.333 68.333 49 91c29.333 20 63.666 30 102.999 30h547c39.333 0 73.333 -10 102 -30c32.667 -22.667 49 -53 49 -91v-1032zM641.001 182v547h-244v-547h244z" />
    <glyph glyph-name="h" unicode="h" horiz-adv-x="1006" 
d="M944 121c0 -37.333 -16.334 -67.332 -49.001 -89.999c-29.333 -20.667 -63.333 -31 -102 -31c-39.333 0 -73.666 10 -102.999 30c-32.667 23.333 -49 53.666 -49 90.999v608h-244v-608c0 -37.333 -16.333 -67.333 -49 -90c-29.333 -20.667 -63.333 -31 -102 -31
s-72.667 10.333 -102 31c-33.333 22.667 -50 52.667 -50 90v971c0 37.333 16.333 67.666 49 90.999c28.667 20.667 63 31 103 31c39.333 0 73.333 -10.333 102 -31c32.667 -23.333 49 -53.666 49 -90.999v-183h396c39.333 0 73.333 -10 102 -30
c32.667 -22.667 49 -53 49 -91v-667z" />
    <glyph glyph-name="i" unicode="i" horiz-adv-x="459" 
d="M397 1092c0 -38 -16.334 -68.333 -49.001 -91c-28.667 -20 -62.667 -30 -102 -30s-73.666 10 -102.999 30c-32.667 22.667 -49 53 -49 91c0 37.333 16.333 67.666 49 90.999c28.667 20.667 63 31 103 31c39.333 0 73.333 -10.333 102 -31
c32.667 -23.333 49 -53.666 49 -90.999zM396.999 121c0 -37.333 -16.332 -67.333 -48.999 -90c-29.333 -20.667 -63.333 -31 -102 -31s-72.667 10.333 -102 31c-33.333 22.667 -50 52.667 -50 90v667c0 38 16.333 68.333 49 91c29.333 20 63.666 30 102.999 30
s73.333 -10 102 -30c32.667 -22.667 49 -53 49 -91v-667z" />
    <glyph glyph-name="j" unicode="j" horiz-adv-x="515" 
d="M422 1092c0 -36 -16.668 -65.6689 -50.001 -89.002c-30 -21.333 -63.667 -32 -101 -32c-39.333 0 -74 10 -104 30c-33.333 22.667 -50 53 -50 91c0 38.667 16.667 69.334 50 92.001c28.667 20 63.334 30 104.001 30c39.333 0 73.333 -10.333 102 -31
c32.667 -23.333 49 -53.666 49 -90.999zM421.999 30.998c0 -117.333 -47.665 -214 -142.998 -290c-88.667 -70.667 -193 -106 -313 -106c-38.667 0 -72.667 10.333 -102 31c-33.333 22.667 -50 52.667 -50 90s16.333 68 49 92c29.333 20.667 63.666 31 102.999 31
c44.667 0 82.667 -13.667 114 -41c14 4 26.333 9.66699 37 17v933c0 38 16.333 68.333 49 91c29.333 20 63.666 30 102.999 30c40 0 74.333 -10 103 -30c33.333 -22.667 50 -53 50 -91v-757z" />
    <glyph glyph-name="k" unicode="k" horiz-adv-x="981" 
d="M920 819c0 -28.667 -11.668 -51.666 -35.001 -68.999l-148 -154l166 -412c5.33301 -13.333 8 -26.333 8 -39c0 -34.667 -14.5 -66.5 -43.5 -95.5s-60.833 -43.5 -95.5 -43.5c-43.333 0 -93 20.667 -149 62l-121 282l-105 -106v-123c0 -37.333 -16.333 -67.333 -49 -90
c-29.333 -20.667 -63.333 -31 -102 -31s-72.667 10.333 -102 31c-33.333 22.667 -50 52.667 -50 90v971c0 37.333 16.333 67.666 49 90.999c28.667 20.667 63 31 103 31c52 0 102.333 -40.667 151 -122v-576l357 358c18.667 24.667 43 37 73 37
c26.667 0 48.834 -8.66699 66.501 -26s26.5 -39.333 26.5 -66z" />
    <glyph glyph-name="l" unicode="l" horiz-adv-x="460" 
d="M381 122l0.000976562 1061c0 22 -8 33 -24 33c-22 -6.66699 -48.833 -23.834 -80.5 -51.501s-62.334 -60.667 -92.001 -99s-54.834 -79.833 -75.501 -124.5s-31 -86.334 -31 -125.001v-694c0 -38.667 16.667 -69 50 -91c28.667 -20.667 62.334 -31 101.001 -31
c40 -0 74.333 10.333 103 31c32.667 22 49 52.333 49 91z" />
    <glyph glyph-name="m" unicode="m" horiz-adv-x="1429" 
d="M1368 121c0 -37.333 -16.3311 -67.667 -48.998 -91c-29.333 -20 -63.666 -30 -102.999 -30c-38.667 -0 -72.667 10.333 -102 31c-32.667 22.667 -49 52.667 -49 90v608h-21c-28.667 -40.667 -72.334 -61 -131.001 -61c-12 0 -24 1.33301 -36 4
c4 -12.667 6 -24.334 6 -35.001v-516c0 -37.333 -16.667 -67.333 -50 -90c-29.333 -20.667 -63.333 -31 -102 -31s-72.667 10.333 -102 31c-32.667 22.667 -49 52.667 -49 90v516c0 10.667 2 22.334 6 35.001c-12.667 -2.66699 -24.334 -4 -35.001 -4
c-58.667 0 -103 20.333 -133 61h-21v-608c0 -37.333 -16.333 -67.333 -49 -90c-29.333 -20.667 -63.333 -31 -102 -31s-72.667 10.333 -102 31c-33.333 22.667 -50 52.667 -50 90v667c0 38 16.333 68.333 49 91c29.333 20 63.666 30 102.999 30h305
c39.333 0 73.333 -10 102 -30c32.667 -22.667 49 -53 49 -91c0 -10.667 -2 -21.334 -6 -32.001c12.667 1.33301 24.334 2 35.001 2c11.333 0 23.666 -0.666992 36.999 -2c-4 10.667 -6 21.334 -6 32.001c0 38 16.333 68.333 49 91c28.667 20 62.667 30 102 30h303
c40 0 74.333 -10 103 -30c32.667 -22.667 49 -53 49 -91v-667z" />
    <glyph glyph-name="n" unicode="n" horiz-adv-x="1006" 
d="M944 121c0 -37.333 -16.333 -67.332 -49 -89.999c-29.333 -20.667 -63.333 -31 -102 -31c-39.333 0 -73.666 10 -102.999 30c-32.667 23.333 -49 53.666 -49 90.999v608h-244v-608c0 -37.333 -16.333 -67.333 -49 -90c-29.333 -20.667 -63.333 -31 -102 -31
s-72.667 10.333 -102 31c-33.333 22.667 -50 52.667 -50 90v667c0 38 16.333 68.333 49 91c29.333 20 63.666 30 102.999 30h547c39.333 0 73.333 -10 102 -30c32.667 -22.667 49 -53 49 -91v-667z" />
    <glyph glyph-name="o" unicode="o" horiz-adv-x="1006" 
d="M944 121c0 -37.333 -16.332 -67.333 -48.999 -90c-29.333 -20.667 -63.333 -31 -102 -31h-547c-38.667 -0 -72.667 10.333 -102 31c-33.333 22.667 -50 52.667 -50 90v667c0 38 16.333 68.333 49 91c29.333 20 63.666 30 102.999 30h547c39.333 0 73.333 -10 102 -30
c32.667 -22.667 49 -53 49 -91v-667zM641.001 182v547h-244v-547h244z" />
    <glyph glyph-name="p" unicode="p" horiz-adv-x="1006" 
d="M944 121c0 -37.333 -16.332 -67.333 -48.999 -90c-29.333 -20.667 -63.333 -31 -102 -31h-396v-244c0 -37.333 -16.333 -67.333 -49 -90c-29.333 -20.667 -63.333 -31 -102 -31s-72.667 10.333 -102 31c-33.333 22.667 -50 52.667 -50 90v1032c0 38 16.333 68.333 49 91
c29.333 20 63.666 30 102.999 30h547c39.333 0 73.333 -10 102 -30c32.667 -22.667 49 -53 49 -91v-667zM641.001 182v547h-244v-547h244z" />
    <glyph glyph-name="q" unicode="q" horiz-adv-x="1006" 
d="M944 -244c0 -37.333 -16.333 -67.332 -49 -89.999c-29.333 -20.667 -63.333 -31 -102 -31c-39.333 0 -73.666 10 -102.999 30c-32.667 23.333 -49 53.666 -49 90.999v244h-395c-38.667 -0 -72.667 10.333 -102 31c-33.333 22.667 -50 52.667 -50 90v667
c0 38 16.333 68.333 49 91c29.333 20 63.666 30 102.999 30h547c39.333 0 73.333 -10 102 -30c32.667 -22.667 49 -53 49 -91v-1032zM641 182.001v547h-244v-547h244z" />
    <glyph glyph-name="r" unicode="r" horiz-adv-x="865" 
d="M883 788c0 -37.333 -16.665 -67.333 -49.998 -90c-28.667 -20 -62.667 -30 -102 -30c-57.333 0 -101 20.333 -131 61h-203v-608c0 -37.333 -16.333 -67.333 -49 -90c-29.333 -20.667 -63.333 -31 -102 -31s-72.667 10.333 -102 31c-33.333 22.667 -50 52.667 -50 90v667
c0 38 16.333 68.333 49 91c29.333 20 63.666 30 102.999 30h485c39.333 0 73.666 -10 102.999 -30c32.667 -22.667 49 -53 49 -91z" />
    <glyph glyph-name="s" unicode="s" horiz-adv-x="1006" 
d="M944 121c0 -37.333 -16.332 -67.334 -48.999 -90.001c-29.333 -20.667 -63.333 -31 -102 -31h-547c-38.667 0 -72.667 10.333 -102 31c-33.333 22.667 -50 52.667 -50 90s16.333 68 49 92c29.333 20.667 63.666 31 102.999 31c58.667 0 102.334 -20.667 131.001 -62h264
v183h-395c-39.333 0 -73.333 10 -102 30c-33.333 22.667 -50 52.667 -50 90v303c0 38 16.333 68.333 49 91c29.333 20 63.666 30 102.999 30h547c39.333 0 73.333 -10 102 -30c32.667 -22.667 49 -53 49 -91c0 -38.667 -15.5 -73.5 -46.5 -104.5s-65.833 -46.5 -104.5 -46.5
c-58.667 0 -104 30.667 -136 92h-260v-182h396c38.667 0 72.667 -10.667 102 -32c32.667 -23.333 49 -53.666 49 -90.999v-303z" />
    <glyph glyph-name="t" unicode="t" horiz-adv-x="678" 
d="M672 818c0 60.667 -31 91 -93 91h-179v183c0 37.333 -16.667 67.666 -50 90.999c-28.667 20.667 -63.667 31 -105 31c-40 0 -74.333 -10.333 -103 -31c-31.333 -23.333 -47 -53.666 -47 -90.999v-970c0 -38.667 16.333 -69 49 -91c29.333 -20.667 63 -31 101 -31
c40 -0 74.333 10.333 103 31c34.667 22 52 52.333 52 91v608h179c62 0 93 29.333 93 88z" />
    <glyph glyph-name="u" unicode="u" horiz-adv-x="1006" 
d="M944 121c0 -37.333 -16.332 -67.333 -48.999 -90c-29.333 -20.667 -63.333 -31 -102 -31h-547c-38.667 -0 -72.667 10.333 -102 31c-33.333 22.667 -50 52.667 -50 90v667c0 38 16.333 68.333 49 91c29.333 20 63.666 30 102.999 30s73.333 -10 102 -30
c32.667 -22.667 49 -53 49 -91v-606h244v606c0 38 16.333 68.333 49 91c28.667 20 63 30 103 30c39.333 0 73.333 -10 102 -30c32.667 -22.667 49 -53 49 -91v-667z" />
    <glyph glyph-name="v" unicode="v" horiz-adv-x="938" 
d="M917 812c0 62 -30.333 92.999 -91 92.999c-40.667 0 -69.334 -20 -86.001 -60l-200 -470l-198 464c-20.667 46.667 -62 70 -124 70c-42 0 -80.333 -12.333 -115 -37c-36 -27.333 -54 -61.666 -54 -102.999c0 -14 2.33301 -25.667 7 -35l286 -660
c20.667 -49.333 61.334 -74 122.001 -74c70 0 120.667 29 152 87h2l291 688c5.33301 12 8 24.333 8 37z" />
    <glyph glyph-name="w" unicode="w" horiz-adv-x="1519" 
d="M1490 814c0 24.667 -8.49805 46 -25.498 64s-38.167 27 -63.5 27c-40.667 0 -69.334 -20 -86.001 -60l-181 -451l-169 445c-18 46.667 -59.333 70 -124 70c-67.333 0 -119 -30.333 -155 -91l-175 -416l-161 437c-17.333 46.667 -58.333 70 -123 70
c-20.667 0 -41.334 -3.33301 -62.001 -10c-71.333 -26.667 -107 -70 -107 -130c0 -14 2 -25.667 6 -35l247 -660c18 -49.333 58.667 -74 122 -74c36.667 0 70.834 11 102.501 33s52.5 50 62.5 84l171 386l165 -429c17.333 -49.333 57.666 -74 120.999 -74
c70 0 121 29 153 87h2l274 694c4 10 6 21 6 33z" />
    <glyph glyph-name="x" unicode="x" horiz-adv-x="961" 
d="M899 158c0 -52 -25.333 -94.334 -76 -127.001c-32 -20.667 -63.333 -31 -94 -31c-42 0 -75.333 15.667 -100 47l-174 219l-195 -229c-21.333 -24.667 -46.666 -37 -75.999 -37c-60 0 -90 30.667 -90 92c0 19.333 6.33301 36.333 19 51l227 267l-217 274
c-18 22.667 -27 45.334 -27 68.001c0 53.333 25.333 96.333 76 129c28.667 18.667 59.334 28 92.001 28c45.333 0 79.666 -15 102.999 -45l172 -219l196 229c21.333 24.667 46.666 37 75.999 37c24.667 0 45.5 -9.16699 62.5 -27.5s25.5 -39.833 25.5 -64.5
c0 -21.333 -6 -39 -18 -53l-226 -266l217 -273c18 -22.667 27 -45.667 27 -69z" />
    <glyph glyph-name="y" unicode="y" horiz-adv-x="1006" 
d="M944 -244c0 -37.333 -16.332 -67.333 -48.999 -90c-29.333 -20.667 -63.333 -31 -102 -31h-547c-38.667 0 -72.667 10.333 -102 31c-33.333 22.667 -50 52.667 -50 90s16.333 68 49 92c29.333 20.667 63.666 31 102.999 31c58.667 0 102.334 -20.333 131.001 -61h264v182
h-395c-38.667 -0 -72.667 10.333 -102 31c-33.333 22.667 -50 52.667 -50 90v667c0 38 16.333 68.333 49 91c29.333 20 63.666 30 102.999 30s73.333 -10 102 -30c32.667 -22.667 49 -53 49 -91v-606h244v606c0 38 16.333 68.333 49 91c28.667 20 63 30 103 30
c39.333 0 73.333 -10 102 -30c32.667 -22.667 49 -53 49 -91v-1032z" />
    <glyph glyph-name="z" unicode="z" horiz-adv-x="1049" 
d="M987 741c0 -31.333 -10.999 -56.334 -32.999 -75.001v-2l-465 -482h203c28.667 41.333 72.334 62 131.001 62c39.333 0 73.666 -10.333 102.999 -31c32.667 -24 49 -54.667 49 -92s-16.667 -67.333 -50 -90c-29.333 -20.667 -63.333 -31 -102 -31h-544
c-40.667 0 -77 10.333 -109 31c-50.667 32.667 -76 75 -76 127c0 27.333 9.66699 50.333 29 69l-2 2l471 488h-213c-30 -40 -73.667 -60 -131 -60c-38.667 0 -72.667 10.333 -102 31c-33.333 22.667 -50 52.667 -50 90s16.667 67.333 50 90c29.333 20.667 63.333 31 102 31
h569c31.333 0 62.666 -10.333 93.999 -31c50.667 -33.333 76 -75.666 76 -126.999z" />
    <glyph glyph-name="braceleft" unicode="{" horiz-adv-x="944" 
d="M883 -152c0 -60 -29.998 -90 -89.998 -90c-122 0 -226.667 34.667 -314 104c-94 74.667 -141 171.334 -141 290.001v327c-46.667 24.667 -97.334 37 -152.001 37h-14l-10 2l-8 4l-9 2l-6 4l-16 13l-4 4l-2 4l-6 6l-5 6v2l-4 6v2l-2 7l-2 2l-2 6v8l-2 4v18l2 5v8l6 12v4
l4 4v4l7 6l4 7l2 4l4 2v2l6 4l2 2l6 4l17 8l16 4l10 2h6c56 0 106.667 11.667 152 35v330c0 116 47.667 211.667 143 287c89.333 70.667 193.333 106 312 106c24.667 0 45.834 -8.83301 63.501 -26.5s26.5 -38.834 26.5 -63.501c0 -61.333 -30 -92 -90 -92
c-54.667 0 -105.334 -11.667 -152.001 -35v-330c0 -122.667 -54.667 -223.667 -164 -303c109.333 -79.333 164 -180.333 164 -303v-328c45.333 -24 96 -36 152 -36c25.333 0 46.666 -8.83301 63.999 -26.5s26 -39.167 26 -64.5z" />
    <glyph glyph-name="bar" unicode="|" horiz-adv-x="459" 
d="M397 -131c0 -37.333 -16.332 -67.334 -48.999 -90.001c-29.333 -20.667 -63.333 -31 -102 -31s-72.667 10.333 -102 31c-33.333 22.667 -50 52.667 -50 90v1462c0 37.333 16.333 68 49 92c29.333 20.667 63.666 31 102.999 31c38.667 0 72.667 -10.667 102 -32
c32.667 -23.333 49 -53.666 49 -90.999v-1462z" />
    <glyph glyph-name="braceright" unicode="}" horiz-adv-x="944" 
d="M883 590l-2.00098 -3.99902v-6l-2 -2l-2 -7l-3 -2l-2 -6l-2 -2l-2 -6l-10 -10l-2 -4h-2l-6 -6l-8 -7l-9 -4l-8 -2l-8 -4l-8 -2h-14c-56 0 -106.667 -12.333 -152 -37v-327c0 -118.667 -47 -215.334 -141 -290.001c-87.333 -69.333 -192 -104 -314 -104
c-61.333 0 -92 30 -92 90c0 60.667 30.667 91 92 91c54.667 0 105.334 12 152.001 36v328c0 122.667 54.667 223.667 164 303c-109.333 79.333 -164 180.333 -164 303v330c-48 23.333 -98.667 35 -152 35c-61.333 0 -92 30.667 -92 92c0 60 30.667 90 92 90
c119.333 0 223.333 -35 312 -105c95.333 -75.333 143 -171.333 143 -288v-330c44 -23.333 94.667 -35 152 -35h6c2 -1.33301 4.66699 -2 8 -2l10 -2l8 -2l17 -8l6 -4v-2l8 -4v-2l6 -6l4 -7l2 -2l13 -24v-4l2 -4v-35z" />
    <glyph glyph-name="asciitilde" unicode="~" horiz-adv-x="1233" 
d="M1171 926c6 -23.333 3.33496 -45.333 -7.99805 -66c-92.667 -169.333 -224.334 -254 -395.001 -254c-58.667 0 -114.667 14.333 -168 43l-235 127c-44 -28.667 -79 -67 -105 -115c-18 -32.667 -44.667 -49 -80 -49c-42.667 0 -71.334 21.333 -86.001 64
c-8.66699 24.667 -6.66699 48.667 6 72c90 168.667 222 253 396 253c60.667 0 117.334 -14.333 170.001 -43l233 -127c44.667 30 79.667 68.333 105 115c18 32.667 44.333 49 79 49c47.333 0 76.666 -23 87.999 -69z" />
    <glyph glyph-name="Euro" horiz-adv-x="1081" 
d="M1020 334c0 -43.333 -17.1689 -82.168 -51.502 -116.501s-73.166 -51.5 -116.499 -51.5c-31.333 0 -57.333 10.333 -78 31l-129 129h-170l-129 -129c-20.667 -20.667 -46.667 -31 -78 -31c-44.667 0 -83.834 16.833 -117.501 50.5s-50.5 72.834 -50.5 117.501
c0 31.333 10.333 57.333 31 78l62 61v277l-68 67c-20.667 20.667 -31 46.667 -31 78c0 44.667 16.833 83.834 50.5 117.501s72.834 50.5 117.501 50.5c31.333 0 57.333 -10.333 78 -31l129 -129h170l129 129c20.667 20.667 46.667 31 78 31
c44.667 0 83.834 -16.833 117.501 -50.5s50.5 -72.834 50.5 -117.501c0 -31.333 -10.333 -57.333 -31 -78l-61 -61v-277l67 -67c20.667 -20.667 31 -46.667 31 -78zM617.998 507.998v213h-122v-213h122z" />
    <glyph glyph-name="exclamdown" unicode="&#xa1;" horiz-adv-x="459" 
d="M397 889c0 -37.333 -16.333 -67.668 -49 -91.001c-29.333 -21.333 -63.333 -32 -102 -32c-40 0 -74.333 10.333 -103 31c-32.667 22.667 -49 53.334 -49 92.001c0 37.333 16.667 67.333 50 90c29.333 20.667 63.333 31 102 31c37.333 0 71 -10.667 101 -32
c33.333 -23.333 50 -53 50 -89zM397 -82.002c0 -37.333 -16.333 -67.667 -49 -91c-29.333 -21.333 -63.333 -32 -102 -32c-40 0 -74.333 10.333 -103 31c-32.667 23.333 -49 54 -49 92v668c0 37.333 16.667 67.333 50 90c29.333 20.667 63.333 31 102 31
c37.333 0 71 -10.667 101 -32c33.333 -23.333 50 -53 50 -89v-668z" />
    <glyph glyph-name="cent" unicode="&#xa2;" horiz-adv-x="1006" 
d="M944 182c0 -37.333 -16.333 -67.335 -49 -90.002c-29.333 -20.667 -63.333 -31 -102 -31h-91v-92c0 -36 -16.667 -65.667 -50 -89c-30 -21.333 -63.667 -32 -101 -32c-38.667 0 -72.667 10.333 -102 31c-33.333 22.667 -50 52.667 -50 90v92h-151
c-38.667 0 -73 10.333 -103 31c-34 23.333 -51 53.333 -51 90v547c0 36.667 17 66.667 51 90c30 20.667 64.333 31 103 31h151v90c0 38 16.333 68.667 49 92c28.667 20.667 63 31 103 31c38.667 0 72.667 -10.667 102 -32c32.667 -23.333 49 -53.666 49 -90.999v-90h91
c38.667 0 72.667 -10.333 102 -31c32.667 -22.667 49 -52.667 49 -90s-16.333 -67.666 -49 -90.999c-29.333 -21.333 -63.333 -32 -102 -32c-58.667 0 -102.667 20.667 -132 62h-262v-424h262c30.667 39.333 74.667 59 132 59c38.667 0 72.667 -10.333 102 -31
c32.667 -22.667 49 -52.667 49 -90z" />
    <glyph glyph-name="sterling" unicode="&#xa3;" horiz-adv-x="1249" 
d="M1188 121c0 -36 -16.666 -66.001 -49.999 -90.001c-30 -20.667 -64 -31 -102 -31h-608c-38.667 0 -72.667 10.333 -102 31c-33.333 22.667 -50 52.667 -50 90v485h-90c-61.333 0 -92 30.667 -92 92c0 60 30.667 90 92 90h90v31c0 119.333 47 216.333 141 291
c87.333 69.333 192 104 314 104h305c40 0 74.333 -10.333 103 -31c32.667 -23.333 49 -53.666 49 -90.999c0 -36 -16.667 -66 -50 -90c-30 -20.667 -64 -31 -102 -31c-60 0 -104.333 20.333 -133 61h-172c-56 0 -106.333 -12.333 -151 -37v-207h303c61.333 0 92 -30 92 -90
c0 -26 -8.83301 -47.833 -26.5 -65.5s-39.5 -26.5 -65.5 -26.5h-303v-424h323c28.667 41.333 73 62 133 62c39.333 0 73.666 -10.333 102.999 -31c32.667 -24 49 -54.667 49 -92z" />
    <glyph glyph-name="currency" unicode="&#xa4;" horiz-adv-x="1278" 
d="M1216 121c0 -37.333 -16.332 -67.333 -48.999 -90c-29.333 -20.667 -63.333 -31 -102 -31h-303c-116 0 -216.667 31.667 -302 95c-92 68 -143 158 -153 270h-123c-60 0 -90 30 -90 90c0 61.333 30 92 90 92h123v151h-31c-61.333 0 -92 30 -92 90c0 62 30.667 93 92 93h35
c18 102 72.333 184 163 246c84.667 58 180.667 87 288 87h303c39.333 0 73.333 -10.333 102 -31c32.667 -23.333 49 -53.666 49 -90.999c0 -38 -16.333 -68.333 -49 -91c-28.667 -20 -62.667 -30 -102 -30c-58.667 0 -102.334 20.333 -131.001 61h-172
c-56 0 -106.667 -12.333 -152 -37v-114h363c26.667 0 48.667 -8.83301 66 -26.5s26 -39.834 26 -66.501c0 -60 -30.667 -90 -92 -90h-363v-151h273c60 0 90 -30.667 90 -92c0 -24.667 -8.83301 -45.834 -26.5 -63.501s-38.834 -26.5 -63.501 -26.5h-273v-148
c44 -23.333 94.667 -35 152 -35h172c28.667 41.333 72.334 62 131.001 62c38.667 0 72.667 -10.667 102 -32c32.667 -23.333 49 -53.666 49 -90.999z" />
    <glyph glyph-name="currency" unicode="&#x20ac;" horiz-adv-x="1278" 
d="M1216 121c0 -37.333 -16.332 -67.333 -48.999 -90c-29.333 -20.667 -63.333 -31 -102 -31h-303c-116 0 -216.667 31.667 -302 95c-92 68 -143 158 -153 270h-123c-60 0 -90 30 -90 90c0 61.333 30 92 90 92h123v151h-31c-61.333 0 -92 30 -92 90c0 62 30.667 93 92 93h35
c18 102 72.333 184 163 246c84.667 58 180.667 87 288 87h303c39.333 0 73.333 -10.333 102 -31c32.667 -23.333 49 -53.666 49 -90.999c0 -38 -16.333 -68.333 -49 -91c-28.667 -20 -62.667 -30 -102 -30c-58.667 0 -102.334 20.333 -131.001 61h-172
c-56 0 -106.667 -12.333 -152 -37v-114h363c26.667 0 48.667 -8.83301 66 -26.5s26 -39.834 26 -66.501c0 -60 -30.667 -90 -92 -90h-363v-151h273c60 0 90 -30.667 90 -92c0 -24.667 -8.83301 -45.834 -26.5 -63.501s-38.834 -26.5 -63.501 -26.5h-273v-148
c44 -23.333 94.667 -35 152 -35h172c28.667 41.333 72.334 62 131.001 62c38.667 0 72.667 -10.667 102 -32c32.667 -23.333 49 -53.666 49 -90.999z" />
    <glyph glyph-name="yen" unicode="&#xa5;" horiz-adv-x="1065" 
d="M1004 819c0 -37.333 -16.668 -67.334 -50.001 -90.001c-29.333 -20.667 -63.333 -31 -102 -31h-152v-92h183c61.333 0 92 -30 92 -90c0 -26 -8.83301 -47.833 -26.5 -65.5s-39.5 -26.5 -65.5 -26.5h-183v-90h183c61.333 0 92 -30 92 -90
c0 -26 -8.83301 -47.833 -26.5 -65.5s-39.5 -26.5 -65.5 -26.5h-183v-31c0 -37.333 -16.333 -67.333 -49 -90c-29.333 -20.667 -63.333 -31 -102 -31s-72.667 10.333 -102 31c-33.333 22.667 -50 52.667 -50 90v31h-213c-60 0 -90 30.667 -90 92c0 60 30 90 90 90h213v90
h-213c-60 0 -90 30.667 -90 92c0 60 30 90 90 90h213v92h-151c-39.333 0 -73.666 10 -102.999 30c-32.667 23.333 -49 53.666 -49 90.999v273c0 38.667 16.333 69.334 49 92.001c28.667 20 63 30 103 30c39.333 0 73.333 -10.333 102 -31
c32.667 -23.333 49 -53.666 49 -90.999v-211h303v211c0 37.333 16.333 67.666 49 90.999c30 20.667 64.333 31 103 31s73 -10.333 103 -31c32.667 -23.333 49 -53.666 49 -90.999v-273z" />
    <glyph glyph-name="brokenbar" unicode="&#xa6;" horiz-adv-x="459" 
d="M397 707c0 -38 -16.334 -68.333 -49.001 -91c-28.667 -20 -62.667 -30 -102 -30s-73.666 10 -102.999 30c-32.667 22.667 -49 53 -49 91v360c0 37.333 16.667 67.333 50 90c29.333 20.667 63.333 31 102 31s72.667 -10.333 102 -31c32.667 -22.667 49 -52.667 49 -90
v-360zM396.999 10c0 -37.333 -16.333 -67.333 -49 -90c-29.333 -20.667 -63.333 -31 -102 -31s-72.667 10.333 -102 31c-33.333 22.667 -50 52.667 -50 90v361c0 37.333 16.667 67.333 50 90c29.333 20.667 63.333 31 102 31s72.667 -10.333 102 -31
c32.667 -22.667 49 -52.667 49 -90v-361z" />
    <glyph glyph-name="section" unicode="&#xa7;" horiz-adv-x="965" 
d="M903 39c0 -37.333 -16.333 -67.334 -49 -90.001c-29.333 -20.667 -63.333 -31 -102 -31h-506c-38.667 0 -72.667 10.333 -102 31c-33.333 22.667 -50 52.667 -50 90s16.333 68 49 92c29.333 20.667 63.666 31 102.999 31c58.667 0 102.334 -20.667 131.001 -62h223v183
h-354c-39.333 0 -73.333 10 -102 30c-33.333 22.667 -50 52.667 -50 90v304c0 12 1.33301 22.667 4 32c-2.66699 10 -4 21 -4 33v303c0 37.333 16.667 67.333 50 90c29.333 20.667 63.333 31 102 31h506c38.667 0 72.667 -10.333 102 -31c32.667 -22.667 49 -52.667 49 -90
c0 -39.333 -15.333 -74.333 -46 -105s-65.667 -46 -105 -46c-58.667 0 -104 30.667 -136 92h-219v-182h355c38.667 0 72.667 -10.667 102 -32c32.667 -23.333 49 -53.666 49 -90.999v-303c0 -12.667 -1.33301 -23.667 -4 -33c2.66699 -11.333 4 -22.333 4 -33v-303z
M600 468.999v178h-203v-178h203z" />
    <glyph glyph-name="dieresis" unicode="&#xa8;" horiz-adv-x="868" 
d="M807 1153c0 -37.333 -16.666 -67.335 -49.999 -90.002c-29.333 -20.667 -63.333 -31 -102 -31s-72.667 10.333 -102 31c-32.667 22.667 -49 52.667 -49 90c0 38.667 16 69.334 48 92.001c28.667 20.667 63 31 103 31c39.333 0 73.666 -10.667 102.999 -32
c32.667 -23.333 49 -53.666 49 -90.999zM397.001 1153c0 -37.333 -16.333 -67.334 -49 -90.001c-29.333 -20.667 -63.333 -31 -102 -31s-72.667 10.333 -102 31c-33.333 22.667 -50 52.667 -50 90c0 38 16.333 68.667 49 92c28.667 20.667 63 31 103 31
c38.667 0 72.667 -10.667 102 -32c32.667 -23.333 49 -53.666 49 -90.999z" />
    <glyph glyph-name="copyright" unicode="&#xa9;" horiz-adv-x="1436" 
d="M1374 121c0 -36 -16.667 -65.667 -50 -89c-30 -21.333 -63.667 -32 -101 -32h-977c-38.667 -0 -72.667 10.333 -102 31c-33.333 22.667 -50 52.667 -50 90v971c0 37.333 16.333 67.666 49 90.999c28.667 20.667 63 31 103 31h977c39.333 0 73.333 -10.333 102 -31
c32.667 -23.333 49 -53.666 49 -90.999v-971zM1071 182v850h-674v-850h674zM961 365c0 -41.333 -25.333 -62 -76 -62h-303c-50.667 0 -76 20.667 -76 62v485c0 40.667 25.333 61 76 61h303c50.667 0 76 -20.333 76 -61v-107c0 -40.667 -25.333 -61 -76 -61
s-76 20.333 -76 61v76h-152v-424h152v76c0 39.333 25.333 59 76 59s76 -19.667 76 -59v-106z" />
    <glyph glyph-name="ordfeminine" unicode="&#xaa;" horiz-adv-x="747" 
d="M686 636c0 -27.333 -10.667 -49.1641 -32 -65.4971s-46 -24.5 -74 -24.5h-380c-28 0 -52.667 8.16699 -74 24.5s-32 38.166 -32 65.499v250c0 27.333 10.667 49.166 32 65.499s46 24.5 74 24.5h275v115h-184c-20 -30.667 -50.333 -46 -91 -46
c-28 0 -52.667 8.16699 -74 24.5s-32 38.166 -32 65.499s10.667 49.333 32 66s46 25 74 25h380c28 0 52.667 -8.33301 74 -25s32 -38.667 32 -66v-499zM475 682.002v159h-170v-159h170z" />
    <glyph glyph-name="guillemotleft" unicode="&#xab;" horiz-adv-x="1024" 
d="M963 340c0 -33.333 -4.33301 -67.667 -13 -103c-12.667 -50.667 -30 -76 -52 -76c-6 0 -11.333 2.33301 -16 7l-303 298c-22.667 22 -34 65 -34 129c0 74.667 13 128.334 39 161.001v0l317 305c6.66699 6.66699 12.667 10 18 10c28 0 42 -31.333 42 -94
c0 -42 -9.33301 -72 -28 -90l-216 -210l212 -209c22.667 -22.667 34 -65.334 34 -128.001zM512 339.999c0 -32 -4.33301 -66.334 -13 -103.001c-12 -50.667 -29.333 -76 -52 -76c-6 0 -11.333 2.33301 -16 7l-303 298c-22.667 22 -34 65 -34 129
c0 74.667 13.333 128.334 40 161.001v0l316 305c6.66699 6.66699 12.667 10 18 10c28.667 0 43 -31.333 43 -94c0 -41.333 -9.66699 -71.333 -29 -90l-215 -210l212 -209c22 -22 33 -64.667 33 -128z" />
    <glyph glyph-name="logicalnot" unicode="&#xac;" horiz-adv-x="1036" 
d="M975 401c0 -61.333 -30 -92 -90 -92c-61.333 0 -92 30.667 -92 92v115h-607c-61.333 0 -92 30 -92 90c0 61.333 30.667 92 92 92h699c48.667 0 78 -24 88 -72v-3l1 -1v-1v-6l1 -2v-1v-211z" />
    <glyph glyph-name="minus" unicode="&#xad;" horiz-adv-x="1036" 
d="M975 606c0 -60 -30.667 -90 -92 -90h-697c-61.333 0 -92 30 -92 90c0 61.333 30.667 92 92 92h697c26 0 47.833 -8.83301 65.5 -26.5s26.5 -39.5 26.5 -65.5z" />
    <glyph glyph-name="minus" unicode="&#x2212;" horiz-adv-x="1036" 
d="M975 606c0 -60 -30.667 -90 -92 -90h-697c-61.333 0 -92 30 -92 90c0 61.333 30.667 92 92 92h697c26 0 47.833 -8.83301 65.5 -26.5s26.5 -39.5 26.5 -65.5z" />
    <glyph glyph-name="registered" unicode="&#xae;" horiz-adv-x="1436" 
d="M1374 121c0 -36 -16.667 -65.667 -50 -89c-30 -21.333 -63.667 -32 -101 -32h-977c-38.667 -0 -72.667 10.333 -102 31c-33.333 22.667 -50 52.667 -50 90v971c0 37.333 16.333 67.666 49 90.999c28.667 20.667 63 31 103 31h977c39.333 0 73.333 -10.333 102 -31
c32.667 -23.333 49 -53.666 49 -90.999v-971zM1071 182v850h-674v-850h674zM965 352c0 -32.667 -21.333 -49 -64 -49c-47.333 0 -77.333 20.667 -90 62l-66 213h-86v-213c0 -41.333 -25 -62 -75 -62c-50.667 0 -76 20.667 -76 62v485c0 40.667 25.333 61 76 61h303
c50.667 0 76 -20.333 76 -61v-213c0 -35.333 -22 -55 -66 -59l66 -213c1.33301 -4 2 -8.33301 2 -13zM811 668v151h-152v-151h152z" />
    <glyph glyph-name="macron" unicode="&#xaf;" horiz-adv-x="729" 
d="M668 1464c0 -60 -31.001 -90 -93.001 -90h-389c-61.333 0 -92 30 -92 90c0 61.333 30.667 92 92 92h389c26.667 0 48.834 -8.66699 66.501 -26s26.5 -39.333 26.5 -66z" />
    <glyph glyph-name="macron" unicode="&#x2c9;" horiz-adv-x="729" 
d="M668 1464c0 -60 -31.001 -90 -93.001 -90h-389c-61.333 0 -92 30 -92 90c0 61.333 30.667 92 92 92h389c26.667 0 48.834 -8.66699 66.501 -26s26.5 -39.333 26.5 -66z" />
    <glyph glyph-name="degree" unicode="&#xb0;" horiz-adv-x="719" 
d="M657 1401c0 -42.667 -38 -74.667 -114 -96c-54 -15.333 -109.333 -23 -166 -23c-57.333 0 -113.333 7.66699 -168 23c-76.667 21.333 -115 53.333 -115 96v127c0 42.667 38.333 74.667 115 96c54.667 15.333 110.667 23 168 23c56.667 0 112 -7.66699 166 -23
c76 -21.333 114 -53.333 114 -96v-127zM471 1348v233c-28.667 6.66699 -60 10 -94 10c-35.333 0 -67.333 -3.33301 -96 -10v-233c28.667 -7.33301 60.667 -11 96 -11c34 0 65.333 3.66699 94 11z" />
    <glyph glyph-name="plusminus" unicode="&#xb1;" horiz-adv-x="1036" 
d="M975 74c0 -60 -30.668 -90 -92.001 -90h-697c-61.333 0 -92 30 -92 90c0 61.333 30.667 92 92 92h263c-54.667 23.333 -82 58.666 -82 105.999v244h-181c-61.333 0 -92 30 -92 90c0 61.333 30.667 92 92 92h181v242c0 39.333 16.333 70.333 49 93
c28.667 20 63.334 30 104.001 30c38.667 0 72.667 -10.667 102 -32c33.333 -23.333 50 -53.666 50 -90.999v-242h211c26 0 47.833 -8.83301 65.5 -26.5s26.5 -39.5 26.5 -65.5c0 -60 -30.667 -90 -92 -90h-211v-244c0 -46 -27.333 -81.333 -82 -106h293
c26 0 47.833 -8.83301 65.5 -26.5s26.5 -39.5 26.5 -65.5z" />
    <glyph glyph-name="twosuperior" unicode="&#xb2;" horiz-adv-x="611" 
d="M550 651c0 -40.667 -25.333 -61 -76 -61h-304c-50.667 0 -76 20.333 -76 61v106c0 58.667 24 107 72 145c44 35.333 96.333 53 157 53h75v151h-152v-30c0 -40.667 -25.333 -61 -76 -61s-76 20.333 -76 61v60c0 41.333 25.333 62 76 62h304c50.667 0 76 -20.667 76 -62
v-212c0 -40 -25.333 -60 -76 -60h-151c-28 0 -53.667 -6.33301 -77 -19v-164h152v31c0 40.667 25.333 61 76 61s76 -20.333 76 -61v-61z" />
    <glyph glyph-name="threesuperior" unicode="&#xb3;" horiz-adv-x="611" 
d="M550 651c0 -40.667 -25.333 -61.001 -76 -61.001h-304c-50.667 0 -76 20.333 -76 61s25.333 61 76 61c29.333 0 51.333 -10.333 66 -31h162v152c0 10.667 3.66699 21 11 31h-193c-30.667 0 -46 15 -46 45c0 30.667 15.333 46 46 46h193
c-7.33301 8.66699 -11 18.667 -11 30v121h-162c-14.667 -20 -36.667 -30 -66 -30c-50.667 0 -76 20 -76 60c0 41.333 25.333 62 76 62h304c50.667 0 76 -20.667 76 -62v-151c0 -34.667 -21.333 -54.667 -64 -60c1.33301 -5.33301 2 -10.666 2 -15.999s-0.666992 -11 -2 -17
c42.667 -5.33301 64 -25 64 -59v-182z" />
    <glyph glyph-name="acute" unicode="&#xb4;" horiz-adv-x="606" 
d="M545 1135l-137.001 -284.999c-17.333 -36 -46.5 -63.333 -87.5 -82s-82.167 -25.334 -123.5 -20.001c-70 8.66699 -104.333 41.334 -103 98.001c0 15.333 3.33301 29.666 10 42.999l138 284c34 70 95 105 183 105c54.667 0 94 -16.333 118 -49
c18.667 -26 19.334 -57.333 2.00098 -94z" />
    <glyph glyph-name="mu" unicode="&#xb5;" horiz-adv-x="1006" 
d="M944 121c0 -37.333 -16.332 -67.333 -48.999 -90c-29.333 -20.667 -63.333 -31 -102 -31h-396v-289c0 -37.333 -16.333 -67.333 -49 -90c-29.333 -20.667 -63.333 -31 -102 -31s-72.667 10.333 -102 31c-33.333 22.667 -50 52.667 -50 90v1077c0 38 16.333 68.333 49 91
c29.333 20 63.666 30 102.999 30s73.333 -10 102 -30c32.667 -22.667 49 -53 49 -91v-606h244v606c0 38 16.333 68.333 49 91c28.667 20 63 30 103 30c39.333 0 73.333 -10 102 -30c32.667 -22.667 49 -53 49 -91v-667z" />
    <glyph glyph-name="mu" unicode="&#x3bc;" horiz-adv-x="1006" 
d="M944 121c0 -37.333 -16.332 -67.333 -48.999 -90c-29.333 -20.667 -63.333 -31 -102 -31h-396v-289c0 -37.333 -16.333 -67.333 -49 -90c-29.333 -20.667 -63.333 -31 -102 -31s-72.667 10.333 -102 31c-33.333 22.667 -50 52.667 -50 90v1077c0 38 16.333 68.333 49 91
c29.333 20 63.666 30 102.999 30s73.333 -10 102 -30c32.667 -22.667 49 -53 49 -91v-606h244v606c0 38 16.333 68.333 49 91c28.667 20 63 30 103 30c39.333 0 73.333 -10 102 -30c32.667 -22.667 49 -53 49 -91v-667z" />
    <glyph glyph-name="paragraph" unicode="&#xb6;" horiz-adv-x="1239" 
d="M1178 1126c0 -60 -31.0029 -89.998 -93.0029 -89.998h-32v-1140c0 -38 -16.333 -68.333 -49 -91c-29.333 -20 -63.666 -30 -102.999 -30c-32.667 0 -62.667 12.167 -90 36.5s-41 52.5 -41 84.5v1140h-133v-1140c0 -32 -13.667 -60.167 -41 -84.5s-57.333 -36.5 -90 -36.5
c-39.333 0 -73.666 10 -102.999 30c-32.667 22.667 -49 53 -49 91v651h-108c-38.667 0 -72.667 10.333 -102 31c-33.333 22.667 -50 52.667 -50 90v424c0 37.333 16.333 67.666 49 90.999c28.667 20.667 63 31 103 31h112c10 3.33301 20.333 5 31 5h696
c26.667 0 48.834 -8.83301 66.501 -26.5s26.5 -39.834 26.5 -66.501z" />
    <glyph glyph-name="periodcentered" unicode="&#xb7;" horiz-adv-x="459" 
d="M397 606c0 -37.333 -16.333 -67.335 -49 -90.002c-29.333 -20.667 -63.333 -31 -102 -31s-72.667 10.333 -102 31c-33.333 22.667 -50 52.667 -50 90c0 38.667 16.333 69.334 49 92.001c28.667 20.667 63 31 103 31c38.667 0 72.667 -10.667 102 -32
c32.667 -23.333 49 -53.666 49 -90.999z" />
    <glyph glyph-name="cedilla" unicode="&#xb8;" horiz-adv-x="518" 
d="M457 -348c0 -32.667 -31.667 -49 -95 -49h-239c-19.333 0 -29 19 -29 57c0 36.667 9.66699 55 29 55h145v135h-151l4 27l16 217l189 -2l-13 -170h49c63.333 0 95 -15.667 95 -47v-223z" />
    <glyph glyph-name="onesuperior" unicode="&#xb9;" horiz-adv-x="520" 
d="M459 635c0 -30 -15 -45 -45 -45h-274c-30.667 0 -46 15 -46 45c0 30.667 15.333 46 46 46h61v356l-30 -28c-8.66699 -8 -19 -12 -31 -12c-30.667 0 -46 15.333 -46 46c0 12.667 5 23.667 15 33l108 98c17.333 16 37 24 59 24c50.667 0 76 -20.667 76 -62v-455h62
c30 0 45 -15.333 45 -46z" />
    <glyph glyph-name="ordmasculine" unicode="&#xba;" horiz-adv-x="682" 
d="M621 1339c0 -31.333 -31.667 -47 -95 -47h-338c-62.667 0 -94 15.667 -94 47v265c0 31.333 31.333 47 94 47h338c63.333 0 95 -15.667 95 -47v-265zM434 1364v217h-151v-217h151z" />
    <glyph glyph-name="guillemotright" unicode="&#xbb;" horiz-adv-x="1024" 
d="M963 638c0 -74.667 -13.333 -128.333 -40 -161v0l-316 -305c-7.33301 -7.33301 -13.333 -11 -18 -11c-28 0 -42 31.667 -42 95c0 42 9.33301 72 28 90l216 210l-212 209c-22.667 22.667 -34 65.334 -34 128.001c0 33.333 4.33301 67.666 13 102.999
c12 50 29.333 75 52 75c6.66699 0 12 -2 16 -6l303 -298c22.667 -22 34 -65 34 -129zM512 638.001c0 -74.667 -13 -128.333 -39 -161v0l-317 -305c-7.33301 -7.33301 -13.333 -11 -18 -11c-28 0 -42 31.667 -42 95c0 42 9.33301 72 28 90l216 210l-212 209
c-22.667 22.667 -34 65.334 -34 128.001c0 33.333 4.33301 67.666 13 102.999c12 50 29.333 75 52 75c6.66699 0 12 -2 16 -6l304 -298c22 -21.333 33 -64.333 33 -129z" />
    <glyph glyph-name="onequarter" unicode="&#xbc;" horiz-adv-x="1323" 
d="M1262 60c0 -40 -25.333 -60 -76 -60s-76 20 -76 60v104h-213c-50.667 0 -76 20.333 -76 61c0 12 3.33301 25.667 10 41l88 304c8 26.667 28.667 40 62 40c8 0 17.333 -1.66699 28 -5c37.333 -12 56 -33.667 56 -65c0 -5.33301 -0.666992 -10.333 -2 -15l-79 -270h126v124
c0 40.667 25.333 61 76 61s76 -20.333 76 -61v-319zM948 1116c0 -10 -2.00098 -20.333 -6.00098 -31l-385 -1040h-2c-16.667 -34 -44 -51 -82 -51c-60 0 -90 30.667 -90 92c0 10 2 20.333 6 31l383 1032c14.667 39.333 43.334 59 86.001 59c60 0 90 -30.667 90 -92z
M458.999 635c0 -30 -15 -45 -45 -45h-274c-30.667 0 -46 15 -46 45c0 30.667 15.333 46 46 46h61v356l-30 -28c-8.66699 -8 -19 -12 -31 -12c-30.667 0 -46 15.333 -46 46c0 12.667 5 23.667 15 33l108 98c17.333 16 37 24 59 24c50.667 0 76 -20.667 76 -62v-455h62
c30 0 45 -15.333 45 -46z" />
    <glyph glyph-name="onehalf" unicode="&#xbd;" horiz-adv-x="1436" 
d="M1374 60c0 -40 -25.333 -59.999 -76 -59.999h-304c-50 0 -75 20 -75 60v107c0 59.333 23.667 107.666 71 144.999c44 35.333 96.333 53 157 53h76v151h-153v-31c0 -40 -25.333 -60 -76 -60c-50 0 -75 20 -75 60v61c0 40.667 25 61 75 61h304c50.667 0 76 -20.333 76 -61
v-212c0 -40.667 -25.333 -61 -76 -61h-151c-28 0 -53.667 -6 -77 -18v-164h153v31c0 40 25 60 75 60c50.667 0 76 -20 76 -60v-62zM948 1116c0 -10 -2.00098 -20.333 -6.00098 -31l-385 -1040h-2c-16.667 -34 -44 -51 -82 -51c-60 0 -90 30.667 -90 92c0 10 2 20.333 6 31
l383 1032c14.667 39.333 43.334 59 86.001 59c60 0 90 -30.667 90 -92zM458.999 635.001c0 -30 -15 -45 -45 -45h-274c-30.667 0 -46 15 -46 45c0 30.667 15.333 46 46 46h61v356l-30 -28c-8.66699 -8 -19 -12 -31 -12c-30.667 0 -46 15.333 -46 46c0 12.667 5 23.667 15 33
l108 98c17.333 16 37 24 59 24c50.667 0 76 -20.667 76 -62v-455h62c30 0 45 -15.333 45 -46z" />
    <glyph glyph-name="threequarters" unicode="&#xbe;" horiz-adv-x="1441" 
d="M1380 60c0 -40 -25.333 -60 -76 -60s-76 20 -76 60v104h-213c-50 0 -75 20.333 -75 61c0 12 3.33301 25.667 10 41l87 304c7.33301 26.667 28 40 62 40c8 0 17.333 -1.66699 28 -5c37.333 -12 56 -33.667 56 -65c0 -5.33301 -0.666992 -10.333 -2 -15l-79 -270h126v124
c0 40.667 25.333 61 76 61s76 -20.333 76 -61v-319zM1066 1116c0 -10 -2.00098 -20.333 -6.00098 -31l-385 -1040h-2c-16 -34 -43.333 -51 -82 -51c-60 0 -90 30.667 -90 92c0 10 2 20.333 6 31l383 1032c14.667 39.333 43.334 59 86.001 59c60 0 90 -30.667 90 -92z
M549.999 651c0 -40.667 -25.333 -61.001 -76 -61.001h-304c-50.667 0 -76 20.333 -76 61s25.333 61 76 61c29.333 0 51.333 -10.333 66 -31h162v152c0 10.667 3.66699 21 11 31h-193c-30.667 0 -46 15 -46 45c0 30.667 15.333 46 46 46h193
c-7.33301 8.66699 -11 18.667 -11 30v121h-162c-14.667 -20 -36.667 -30 -66 -30c-50.667 0 -76 20 -76 60c0 41.333 25.333 62 76 62h304c50.667 0 76 -20.667 76 -62v-151c0 -34.667 -21.333 -54.667 -64 -60c1.33301 -5.33301 2 -10.666 2 -15.999s-0.666992 -11 -2 -17
c42.667 -5.33301 64 -25 64 -59v-182z" />
    <glyph glyph-name="questiondown" unicode="&#xbf;" 
d="M793 889c0 -38.667 -16.333 -69.332 -49 -91.999c-28.667 -20.667 -63 -31 -103 -31c-38.667 0 -72.667 10.667 -102 32c-33.333 23.333 -50 53.666 -50 90.999s16.667 67.333 50 90c29.333 20.667 63.333 31 102 31s72.667 -10.333 102 -31
c33.333 -22.667 50 -52.667 50 -90zM1006 -81.998c0 -37.333 -16.668 -67.666 -50.001 -90.999c-29.333 -21.333 -63.333 -32 -102 -32h-608c-39.333 0 -73.666 10.333 -102.999 31c-32.667 24 -49 54.667 -49 92v424c0 37.333 16.667 67.333 50 90
c29.333 20.667 63.333 31 102 31h243v123c0 37.333 16.667 67.333 50 90c29.333 20.667 63.333 31 102 31s72.667 -10.333 102 -31c33.333 -22.667 50 -52.667 50 -90v-183c0 -38.667 -16.333 -69.334 -49 -92.001c-28.667 -20 -63 -30 -103 -30h-244v-304h305v62
c0 37.333 16.667 67.333 50 90c29.333 20.667 63.333 31 102 31s72.667 -10.333 102 -31c33.333 -22.667 50 -52.667 50 -90v-121z" />
    <glyph glyph-name="Agrave" unicode="&#xc0;" 
d="M743 1389c0 -53.333 -34 -85 -102 -95c-38.667 -5.33301 -79.667 1.66699 -123 21c-45.333 20.667 -75.333 48 -90 82l-43 100c-7.33301 17.333 -11 33.333 -11 48c0 30.667 14.667 55 44 73c24.667 14.667 53.334 22 86.001 22c31.333 0 63.666 -7.33301 96.999 -22
c43.333 -19.333 72.333 -46 87 -80l43 -100c8 -18.667 12 -35 12 -49zM1006 121c0 -36 -17 -65.667 -51 -89c-30 -21.333 -63.667 -32 -101 -32c-38.667 -0 -72.667 10.333 -102 31c-33.333 22.667 -50 52.667 -50 90v414h-305v-414c0 -37.333 -16.333 -67.333 -49 -90
c-29.333 -20.667 -63.333 -31 -102 -31s-72.667 10.333 -102 31c-33.333 22.667 -50 52.667 -50 90v971c0 37.333 16.333 67.666 49 90.999c28.667 20.667 63 31 103 31h608c38.667 0 73 -10.333 103 -31c32.667 -23.333 49 -53.666 49 -90.999v-971zM702 717v315h-305v-315
h305z" />
    <glyph glyph-name="Aacute" unicode="&#xc1;" 
d="M743 1544c0 -14 -4 -30.333 -12 -49l-43 -100c-14.667 -34 -43.667 -60.667 -87 -80c-33.333 -14.667 -65.666 -22 -96.999 -22c-46.667 0 -82.334 12.333 -107.001 37c-26.667 27.333 -30.667 62.666 -12 105.999l43 100c14.667 34.667 44.667 62 90 82
c42.667 18.667 83.667 25.334 123 20.001c68 -10 102 -41.333 102 -94zM1006 121c0 -36 -17 -65.667 -51 -89c-30 -21.333 -63.667 -32 -101 -32c-38.667 -0 -72.667 10.333 -102 31c-33.333 22.667 -50 52.667 -50 90v414h-305v-414c0 -37.333 -16.333 -67.333 -49 -90
c-29.333 -20.667 -63.333 -31 -102 -31s-72.667 10.333 -102 31c-33.333 22.667 -50 52.667 -50 90v971c0 37.333 16.333 67.666 49 90.999c28.667 20.667 63 31 103 31h608c38.667 0 73 -10.333 103 -31c32.667 -23.333 49 -53.666 49 -90.999v-971zM702 717v315h-305v-315
h305z" />
    <glyph glyph-name="Acircumflex" unicode="&#xc2;" 
d="M901 1346c0 -33.333 -29.333 -49.999 -88 -49.999c-39.333 0 -66 11 -80 33l-108 119l-97 -115c-23.333 -27.333 -61.333 -41 -114 -41c-16 0 -36 2.66699 -60 8c-68 15.333 -102 39.333 -102 72c0 11.333 5.33301 21.666 16 30.999l162 192c16.667 27.333 55 41 115 41
c69.333 0 118.333 -15.667 147 -47l193 -213c10.667 -8 16 -18 16 -30zM1006 121.001c0 -36 -17 -65.667 -51 -89c-30 -21.333 -63.667 -32 -101 -32c-38.667 0 -72.667 10.333 -102 31c-33.333 22.667 -50 52.667 -50 90v414h-305v-414c0 -37.333 -16.333 -67.333 -49 -90
c-29.333 -20.667 -63.333 -31 -102 -31s-72.667 10.333 -102 31c-33.333 22.667 -50 52.667 -50 90v971c0 37.333 16.333 67.666 49 90.999c28.667 20.667 63 31 103 31h608c38.667 0 73 -10.333 103 -31c32.667 -23.333 49 -53.666 49 -90.999v-971zM702 717.001v315h-305
v-315h305z" />
    <glyph glyph-name="Atilde" unicode="&#xc3;" 
d="M926 1546c1.33301 -22.667 -3.66699 -43.6689 -15 -63.002c-76.667 -130 -171.334 -195 -284.001 -195c-62.667 0 -118.667 24.667 -168 74l-70 70c-36.667 -22.667 -68 -55.667 -94 -99c-13.333 -23.333 -33.333 -35 -60 -35c-36.667 0 -57.667 25.333 -63 76
c-3.33301 29.333 0.666992 53.333 12 72c75.333 128 170.333 192 285 192c62 0 118 -24.333 168 -73l72 -70c36 22 66.667 54.667 92 98c12.667 20.667 28.334 32.334 47.001 35.001c21.333 2.66699 39.333 -4.66602 54 -21.999s22.667 -37.333 24 -60zM1006 120.998
c0 -36 -17 -65.667 -51 -89c-30 -21.333 -63.667 -32 -101 -32c-38.667 0 -72.667 10.333 -102 31c-33.333 22.667 -50 52.667 -50 90v414h-305v-414c0 -37.333 -16.333 -67.333 -49 -90c-29.333 -20.667 -63.333 -31 -102 -31s-72.667 10.333 -102 31
c-33.333 22.667 -50 52.667 -50 90v971c0 37.333 16.333 67.666 49 90.999c28.667 20.667 63 31 103 31h608c38.667 0 73 -10.333 103 -31c32.667 -23.333 49 -53.666 49 -90.999v-971zM702 716.998v315h-305v-315h305z" />
    <glyph glyph-name="Adieresis" unicode="&#xc4;" 
d="M895 1446c0 -37.333 -16.333 -67.6689 -49 -91.002c-29.333 -20 -63.666 -30 -102.999 -30c-38.667 0 -72.667 10.333 -102 31c-32.667 22.667 -49 52.667 -49 90c0 38.667 16 69.334 48 92.001c28.667 20.667 63 31 103 31c39.333 0 73.666 -10.667 102.999 -32
c32.667 -23.333 49 -53.666 49 -90.999zM485 1446c0 -37.333 -16.333 -67.334 -49 -90.001c-29.333 -20.667 -63.333 -31 -102 -31s-72.667 10.333 -102 31c-33.333 22.667 -50 52.667 -50 90c0 38 16.333 68.667 49 92c28.667 20.667 63 31 103 31
c38.667 0 72.667 -10.667 102 -32c32.667 -23.333 49 -53.666 49 -90.999zM1006 120.996c0 -36 -17 -65.667 -51 -89c-30 -21.333 -63.667 -32 -101 -32c-38.667 0 -72.667 10.333 -102 31c-33.333 22.667 -50 52.667 -50 90v414h-305v-414
c0 -37.333 -16.333 -67.333 -49 -90c-29.333 -20.667 -63.333 -31 -102 -31s-72.667 10.333 -102 31c-33.333 22.667 -50 52.667 -50 90v971c0 37.333 16.333 67.666 49 90.999c28.667 20.667 63 31 103 31h608c38.667 0 73 -10.333 103 -31
c32.667 -23.333 49 -53.666 49 -90.999v-971zM702 716.996v315h-305v-315h305z" />
    <glyph glyph-name="Aring" unicode="&#xc5;" 
d="M807 1319c0 -31.333 -31.333 -47 -94 -47h-338c-62.667 0 -94 15.667 -94 47v264c0 31.333 31.333 47 94 47h338c62.667 0 94 -15.667 94 -47v-264zM1006 121c0 -36 -17 -65.667 -51 -89c-30 -21.333 -63.667 -32 -101 -32c-38.667 -0 -72.667 10.333 -102 31
c-33.333 22.667 -50 52.667 -50 90v414h-305v-414c0 -37.333 -16.333 -67.333 -49 -90c-29.333 -20.667 -63.333 -31 -102 -31s-72.667 10.333 -102 31c-33.333 22.667 -50 52.667 -50 90v971c0 37.333 16.333 67.666 49 90.999c28.667 20.667 63 31 103 31h608
c38.667 0 73 -10.333 103 -31c32.667 -23.333 49 -53.666 49 -90.999v-971zM618 1343v218h-149v-218h149zM702 717v315h-305v-315h305z" />
    <glyph glyph-name="AE" unicode="&#xc6;" horiz-adv-x="1681" 
d="M1620 121c0 -36 -16.665 -65.999 -49.998 -89.999c-30 -20.667 -64 -31 -102 -31h-614c-38.667 0 -72.667 10.333 -102 31c-33.333 22.667 -50 52.667 -50 90v414h-305v-414c0 -37.333 -16.333 -67.333 -49 -90c-29.333 -20.667 -63.333 -31 -102 -31
s-72.667 10.333 -102 31c-33.333 22.667 -50 52.667 -50 90v971c0 37.333 16.333 67.666 49 90.999c28.667 20.667 63 31 103 31h1222c40 0 74.333 -10.333 103 -31c32.667 -23.333 49 -53.666 49 -90.999c0 -36 -16.667 -66 -50 -90c-30 -20.667 -64 -31 -102 -31
c-58.667 0 -102.334 20.333 -131.001 61h-325v-313h395c60 0 90 -30.667 90 -92c0 -24.667 -8.83301 -45.834 -26.5 -63.501s-38.834 -26.5 -63.501 -26.5h-395v-355h325c28.667 41.333 72.334 62 131.001 62c39.333 0 73.666 -10.333 102.999 -31
c32.667 -24 49 -54.667 49 -92zM702.002 717.001v315h-305v-315h305z" />
    <glyph glyph-name="Ccedilla" unicode="&#xc7;" 
d="M1006 121c0 -36 -17 -65.6689 -51 -89.002c-30 -21.333 -63.667 -32 -101 -32h-240l-6 -78h49c63.333 0 95 -15.667 95 -47v-223c0 -32.667 -31.667 -49 -95 -49h-239c-19.333 0 -29 19 -29 57c0 36.667 9.66699 55 29 55h145v135h-151l4 27l8 123h-178
c-38.667 0 -72.667 10.333 -102 31c-33.333 22.667 -50 52.667 -50 90v971c0 37.333 16.333 67.666 49 90.999c28.667 20.667 63 31 103 31h608c38.667 0 73 -10.333 103 -31c32.667 -23.333 49 -53.666 49 -90.999v-211c0 -37.333 -16.667 -67.666 -50 -90.999
c-29.333 -21.333 -63.333 -32 -102 -32c-40 0 -74.333 10.333 -103 31c-32.667 22.667 -49 53.334 -49 92.001v151h-305v-850h305v152c0 37.333 16.667 67.333 50 90c29.333 20.667 63.333 31 102 31s72.667 -10.333 102 -31c33.333 -22.667 50 -52.667 50 -90v-213z" />
    <glyph glyph-name="Egrave" unicode="&#xc8;" 
d="M723 1438c17.333 -38 16.334 -70.6689 -2.99902 -98.002c-18 -24.667 -47.667 -40 -89 -46c-40.667 -5.33301 -81.334 1.33398 -122.001 20.001c-43.333 19.333 -73 47 -89 83l-45 100c-7.33301 17.333 -11 33 -11 47c0 22.667 8.66699 42.334 26 59.001
c26 24.667 61.333 37 106 37c31.333 0 63.333 -7 96 -21c41.333 -18 70 -45 86 -81zM1006 120.998c0 -36 -16.999 -65.667 -50.999 -89c-30 -21.333 -63.667 -32 -101 -32h-608c-38.667 0 -72.667 10.333 -102 31c-33.333 22.667 -50 52.667 -50 90v971
c0 37.333 16.333 67.666 49 90.999c28.667 20.667 63 31 103 31h608c38.667 0 73 -10.333 103 -31c32.667 -23.333 49 -53.666 49 -90.999c0 -36 -17 -65.667 -51 -89c-30 -21.333 -63.667 -32 -101 -32c-58.667 0 -102.334 20.333 -131.001 61h-326v-334h396
c60 0 90 -30.667 90 -92c0 -24.667 -8.83301 -45.834 -26.5 -63.501s-38.834 -26.5 -63.501 -26.5h-396v-334h326c28.667 41.333 72.334 62 131.001 62c38.667 0 72.667 -10.667 102 -32c33.333 -23.333 50 -53.666 50 -90.999z" />
    <glyph glyph-name="Eacute" unicode="&#xc9;" 
d="M723 1495l-45.001 -100c-14 -32 -39.333 -57.333 -76 -76c-33.333 -18 -68.666 -27 -105.999 -27c-46 0 -81.667 12.667 -107 38c-28.667 28 -33.334 63.333 -14.001 106l45 100c16 36 45.667 63.667 89 83c40.667 18.667 81.334 25 122.001 19
c41.333 -6 71 -21.333 89 -46c19.333 -26.667 20.333 -59 3 -97zM1006 121c0 -36 -16.999 -65.667 -50.999 -89c-30 -21.333 -63.667 -32 -101 -32h-608c-38.667 -0 -72.667 10.333 -102 31c-33.333 22.667 -50 52.667 -50 90v971c0 37.333 16.333 67.666 49 90.999
c28.667 20.667 63 31 103 31h608c38.667 0 73 -10.333 103 -31c32.667 -23.333 49 -53.666 49 -90.999c0 -36 -17 -65.667 -51 -89c-30 -21.333 -63.667 -32 -101 -32c-58.667 0 -102.334 20.333 -131.001 61h-326v-334h396c60 0 90 -30.667 90 -92
c0 -24.667 -8.83301 -45.834 -26.5 -63.501s-38.834 -26.5 -63.501 -26.5h-396v-334h326c28.667 41.333 72.334 62 131.001 62c38.667 0 72.667 -10.667 102 -32c33.333 -23.333 50 -53.666 50 -90.999z" />
    <glyph glyph-name="Ecircumflex" unicode="&#xca;" 
d="M872 1346c0 -33.333 -28.668 -50 -86.001 -50c-40.667 0 -67 11 -79 33l-111 119l-94 -115c-22.667 -27.333 -61.667 -41 -117 -41c-14 0 -33 2.66699 -57 8c-68.667 15.333 -103 39.333 -103 72c0 8.66699 5 19 15 31l163 192c16.667 27.333 54.334 41 113.001 41
c70 0 119.333 -15.667 148 -47l194 -213c9.33301 -8 14 -18 14 -30zM1006 121c0 -36 -16.999 -65.667 -50.999 -89c-30 -21.333 -63.667 -32 -101 -32h-608c-38.667 -0 -72.667 10.333 -102 31c-33.333 22.667 -50 52.667 -50 90v971c0 37.333 16.333 67.666 49 90.999
c28.667 20.667 63 31 103 31h608c38.667 0 73 -10.333 103 -31c32.667 -23.333 49 -53.666 49 -90.999c0 -36 -17 -65.667 -51 -89c-30 -21.333 -63.667 -32 -101 -32c-58.667 0 -102.334 20.333 -131.001 61h-326v-334h396c60 0 90 -30.667 90 -92
c0 -24.667 -8.83301 -45.834 -26.5 -63.501s-38.834 -26.5 -63.501 -26.5h-396v-334h326c28.667 41.333 72.334 62 131.001 62c38.667 0 72.667 -10.667 102 -32c33.333 -23.333 50 -53.666 50 -90.999z" />
    <glyph glyph-name="Edieresis" unicode="&#xcb;" 
d="M905 1446c0 -37.333 -16.333 -67.332 -49 -89.999c-29.333 -20.667 -63.333 -31 -102 -31s-72.667 10.333 -102 31c-33.333 22.667 -50 52.667 -50 90c0 38 16.333 68.667 49 92c28.667 20.667 63 31 103 31s74.333 -10.333 103 -31c32 -22.667 48 -53.334 48 -92.001z
M496 1446c0 -37.333 -16.667 -67.334 -50 -90.001c-29.333 -20.667 -63.333 -31 -102 -31s-72.667 10.333 -102 31c-32.667 22.667 -49 52.667 -49 90c0 38.667 16 69.334 48 92.001c28.667 20.667 63 31 103 31s74.333 -10.333 103 -31c32.667 -23.333 49 -54 49 -92z
M1006 121c0 -36 -16.999 -65.667 -50.999 -89c-30 -21.333 -63.667 -32 -101 -32h-608c-38.667 -0 -72.667 10.333 -102 31c-33.333 22.667 -50 52.667 -50 90v971c0 37.333 16.333 67.666 49 90.999c28.667 20.667 63 31 103 31h608c38.667 0 73 -10.333 103 -31
c32.667 -23.333 49 -53.666 49 -90.999c0 -36 -17 -65.667 -51 -89c-30 -21.333 -63.667 -32 -101 -32c-58.667 0 -102.334 20.333 -131.001 61h-326v-334h396c60 0 90 -30.667 90 -92c0 -24.667 -8.83301 -45.834 -26.5 -63.501s-38.834 -26.5 -63.501 -26.5h-396v-334h326
c28.667 41.333 72.334 62 131.001 62c38.667 0 72.667 -10.667 102 -32c33.333 -23.333 50 -53.666 50 -90.999z" />
    <glyph glyph-name="Igrave" unicode="&#xcc;" horiz-adv-x="514" 
d="M453 1389c0 -53.333 -34.998 -85 -104.998 -95c-38.667 -5.33301 -79.334 1.66699 -122.001 21c-44.667 20.667 -74.334 48 -89.001 82l-43 100c-7.33301 17.333 -11 33.333 -11 48c0 30.667 14.667 55 44 73c24.667 14.667 53.334 22 86.001 22
c31.333 0 63.666 -7.33301 96.999 -22c43.333 -19.333 72.333 -46 87 -80l43 -100c8.66699 -20 13 -36.333 13 -49zM418.002 121c0 -37.333 -16.667 -67.3311 -50 -89.998c-29.333 -20.667 -63.333 -31 -102 -31s-72.667 10.333 -102 31c-32.667 22.667 -49 52.667 -49 90
v971c0 37.333 16.333 67.666 49 90.999c28.667 20.667 62.667 31 102 31c40 0 74.333 -10 103 -30c32.667 -22.667 49 -53.334 49 -92.001v-971z" />
    <glyph glyph-name="Iacute" unicode="&#xcd;" horiz-adv-x="514" 
d="M453 1544c0 -12.667 -4.33398 -29.001 -13.001 -49.001l-43 -100c-14.667 -34 -43.667 -60.667 -87 -80c-33.333 -14.667 -65.666 -22 -96.999 -22c-46.667 0 -82.334 12.333 -107.001 37c-26.667 27.333 -30.667 62.666 -12 105.999l43 100
c14.667 34.667 44.334 62 89.001 82c42 18.667 82.667 25.334 122 20.001c70 -9.33301 105 -40.666 105 -93.999zM417.999 120.999c0 -37.333 -16.667 -67.3311 -50 -89.998c-29.333 -20.667 -63.333 -31 -102 -31s-72.667 10.333 -102 31c-32.667 22.667 -49 52.667 -49 90
v971c0 37.333 16.333 67.666 49 90.999c28.667 20.667 62.667 31 102 31c40 0 74.333 -10 103 -30c32.667 -22.667 49 -53.334 49 -92.001v-971z" />
    <glyph glyph-name="Icircumflex" unicode="&#xce;" horiz-adv-x="803" 
d="M741 1346c0 -33.333 -29.333 -50 -88 -50c-39.333 0 -65.333 11 -78 33l-110 119l-96 -115c-22.667 -27.333 -61 -41 -115 -41c-14 0 -33 2.66699 -57 8c-68.667 15.333 -103 39.333 -103 72c0 8.66699 5 19 15 31l161 192c18 27.333 56.333 41 115 41
c69.333 0 118.333 -15.667 147 -47l193 -213c10.667 -8 16 -18 16 -30zM569 121c0 -37.333 -16.333 -67.3311 -49 -89.998c-29.333 -20.667 -63.333 -31 -102 -31s-72.667 10.333 -102 31c-33.333 22.667 -50 52.667 -50 90v971c0 37.333 16.333 67.666 49 90.999
c30 20.667 64.333 31 103 31c40.667 0 75 -10 103 -30c32 -22.667 48 -53.334 48 -92.001v-971z" />
    <glyph glyph-name="Idieresis" unicode="&#xcf;" horiz-adv-x="868" 
d="M807 1446c0 -37.333 -16.666 -67.335 -49.999 -90.002c-29.333 -20.667 -63.333 -31 -102 -31s-72.667 10.333 -102 31c-32.667 22.667 -49 52.667 -49 90c0 38.667 16 69.334 48 92.001c28.667 20.667 63 31 103 31c39.333 0 73.666 -10.667 102.999 -32
c32.667 -23.333 49 -53.666 49 -90.999zM397.001 1446c0 -37.333 -16.333 -67.334 -49 -90.001c-29.333 -20.667 -63.333 -31 -102 -31s-72.667 10.333 -102 31c-33.333 22.667 -50 52.667 -50 90c0 38 16.333 68.667 49 92c28.667 20.667 63 31 103 31
c38.667 0 72.667 -10.667 102 -32c32.667 -23.333 49 -53.666 49 -90.999zM602.001 120.997c0 -37.333 -16.334 -67.332 -49.001 -89.999c-29.333 -20.667 -63.333 -31 -102 -31c-39.333 0 -73.666 10 -102.999 30c-32.667 23.333 -49 53.666 -49 90.999v971
c0 37.333 16.333 67.666 49 90.999c28.667 20.667 63 31 103 31c39.333 0 73.333 -10.333 102 -31c32.667 -23.333 49 -53.666 49 -90.999v-971z" />
    <glyph glyph-name="Eth" unicode="&#xd0;" horiz-adv-x="1169" 
d="M1108 395c0 -116.667 -47.667 -212.999 -143 -288.999c-88.667 -70.667 -192.667 -106 -312 -106h-305c-38.667 0 -72.667 10.333 -102 31c-32.667 22.667 -49 52.667 -49 90v395h-11c-61.333 0 -92 30 -92 90c0 61.333 30.667 92 92 92h11v394
c0 37.333 16.333 67.666 49 90.999c28.667 20.667 62.667 31 102 31h305c119.333 0 223.333 -35.333 312 -106c95.333 -76 143 -172.333 143 -289v-424zM805 217.001l-0.000976562 778c-46.667 24.667 -97.334 37 -152.001 37h-153v-334h116
c26.667 0 48.834 -8.66699 66.501 -26s26.5 -39.333 26.5 -66c0 -60 -31 -90 -93 -90h-116v-334h153c54.667 0 105.334 11.667 152.001 35z" />
    <glyph glyph-name="Ntilde" unicode="&#xd1;" 
d="M911 1546c1.33301 -23.333 -3.33203 -44.334 -13.999 -63.001c-76 -130 -171 -195 -285 -195c-63.333 0 -119.333 24.667 -168 74l-69 70c-36 -21.333 -67.333 -54.333 -94 -99c-13.333 -23.333 -33.333 -35 -60 -35c-36.667 0 -57.667 25.333 -63 76
c-3.33301 28.667 0.666992 52.667 12 72c74.667 128 169.667 192 285 192c62.667 0 118.667 -24.333 168 -73l71 -70c34 21.333 64.667 54 92 98c12.667 20.667 28.667 32.334 48 35.001c20.667 2.66699 39 -5.33301 55 -24c13.333 -16.667 20.666 -36 21.999 -58z
M1006 120.999c0 -36 -17.001 -65.668 -51.001 -89.001c-30 -21.333 -63.667 -32 -101 -32c-68 0 -115 24.667 -141 74v0l-316 633v-586c0 -37.333 -16.333 -67.333 -49 -90c-29.333 -20.667 -63.333 -31 -102 -31s-72.667 10.333 -102 31c-33.333 22.667 -50 52.667 -50 90
v971c0 37.333 16.333 67.666 49 90.999c28.667 20.667 63 31 103 31c68.667 0 114.334 -23 137.001 -69l319 -639v586c0 38.667 16.333 69.334 49 92.001c28.667 20 63 30 103 30c38.667 0 73 -10.333 103 -31c32.667 -23.333 49 -53.666 49 -90.999v-971z" />
    <glyph glyph-name="Ograve" unicode="&#xd2;" 
d="M723 1438c17.333 -38 16.334 -70.6689 -2.99902 -98.002c-18 -24.667 -47.667 -40 -89 -46c-40.667 -5.33301 -81.334 1.33398 -122.001 20.001c-43.333 19.333 -73 47 -89 83l-45 100c-7.33301 17.333 -11 33 -11 47c0 22.667 8.66699 42.334 26 59.001
c26 24.667 61.333 37 106 37c31.333 0 63.333 -7 96 -21c41.333 -18 70 -45 86 -81zM1006 120.998c0 -36 -17 -65.667 -51 -89c-30 -21.333 -63.667 -32 -101 -32h-608c-38.667 0 -72.667 10.333 -102 31c-33.333 22.667 -50 52.667 -50 90v971
c0 37.333 16.333 67.666 49 90.999c28.667 20.667 63 31 103 31h608c38.667 0 73 -10.333 103 -31c32.667 -23.333 49 -53.666 49 -90.999v-971zM702.001 181.998v850h-305v-850h305z" />
    <glyph glyph-name="Oacute" unicode="&#xd3;" 
d="M723 1495l-45.001 -100c-14 -32 -39.333 -57.333 -76 -76c-33.333 -18 -68.666 -27 -105.999 -27c-46 0 -81.667 12.667 -107 38c-28.667 28 -33.334 63.333 -14.001 106l45 100c16 36 45.667 63.667 89 83c40.667 18.667 81.334 25 122.001 19
c41.333 -6 71 -21.333 89 -46c19.333 -26.667 20.333 -59 3 -97zM1006 121c0 -36 -17 -65.667 -51 -89c-30 -21.333 -63.667 -32 -101 -32h-608c-38.667 -0 -72.667 10.333 -102 31c-33.333 22.667 -50 52.667 -50 90v971c0 37.333 16.333 67.666 49 90.999
c28.667 20.667 63 31 103 31h608c38.667 0 73 -10.333 103 -31c32.667 -23.333 49 -53.666 49 -90.999v-971zM701.999 182v850h-305v-850h305z" />
    <glyph glyph-name="Ocircumflex" unicode="&#xd4;" 
d="M872 1346c0 -33.333 -28.668 -50 -86.001 -50c-40.667 0 -67 11 -79 33l-111 119l-94 -115c-22.667 -27.333 -61.667 -41 -117 -41c-14 0 -33 2.66699 -57 8c-68.667 15.333 -103 39.333 -103 72c0 8.66699 5 19 15 31l163 192c16.667 27.333 54.334 41 113.001 41
c70 0 119.333 -15.667 148 -47l194 -213c9.33301 -8 14 -18 14 -30zM1006 121c0 -36 -17 -65.667 -51 -89c-30 -21.333 -63.667 -32 -101 -32h-608c-38.667 -0 -72.667 10.333 -102 31c-33.333 22.667 -50 52.667 -50 90v971c0 37.333 16.333 67.666 49 90.999
c28.667 20.667 63 31 103 31h608c38.667 0 73 -10.333 103 -31c32.667 -23.333 49 -53.666 49 -90.999v-971zM701.999 182v850h-305v-850h305z" />
    <glyph glyph-name="Otilde" unicode="&#xd5;" 
d="M926 1546c1.33301 -22.667 -3.66699 -43.6689 -15 -63.002c-76.667 -130 -171.334 -195 -284.001 -195c-62.667 0 -118.667 24.667 -168 74l-70 70c-36.667 -22.667 -68 -55.667 -94 -99c-13.333 -23.333 -33.333 -35 -60 -35c-36.667 0 -57.667 25.333 -63 76
c-3.33301 29.333 0.666992 53.333 12 72c75.333 128 170.333 192 285 192c62 0 118 -24.333 168 -73l72 -70c36 22 66.667 54.667 92 98c12.667 20.667 28.334 32.334 47.001 35.001c21.333 2.66699 39.333 -4.66602 54 -21.999s22.667 -37.333 24 -60zM1006 120.998
c0 -36 -17 -65.667 -51 -89c-30 -21.333 -63.667 -32 -101 -32h-608c-38.667 0 -72.667 10.333 -102 31c-33.333 22.667 -50 52.667 -50 90v971c0 37.333 16.333 67.666 49 90.999c28.667 20.667 63 31 103 31h608c38.667 0 73 -10.333 103 -31
c32.667 -23.333 49 -53.666 49 -90.999v-971zM702 181.998v850h-305v-850h305z" />
    <glyph glyph-name="Odieresis" unicode="&#xd6;" 
d="M905 1446c0 -37.333 -16.333 -67.332 -49 -89.999c-29.333 -20.667 -63.333 -31 -102 -31s-72.667 10.333 -102 31c-33.333 22.667 -50 52.667 -50 90c0 38 16.333 68.667 49 92c28.667 20.667 63 31 103 31s74.333 -10.333 103 -31c32 -22.667 48 -53.334 48 -92.001z
M496 1446c0 -37.333 -16.667 -67.334 -50 -90.001c-29.333 -20.667 -63.333 -31 -102 -31s-72.667 10.333 -102 31c-32.667 22.667 -49 52.667 -49 90c0 38.667 16 69.334 48 92.001c28.667 20.667 63 31 103 31s74.333 -10.333 103 -31c32.667 -23.333 49 -54 49 -92z
M1006 121c0 -36 -17 -65.667 -51 -89c-30 -21.333 -63.667 -32 -101 -32h-608c-38.667 -0 -72.667 10.333 -102 31c-33.333 22.667 -50 52.667 -50 90v971c0 37.333 16.333 67.666 49 90.999c28.667 20.667 63 31 103 31h608c38.667 0 73 -10.333 103 -31
c32.667 -23.333 49 -53.666 49 -90.999v-971zM702 182v850h-305v-850h305z" />
    <glyph glyph-name="multiply" unicode="&#xd7;" horiz-adv-x="770" 
d="M709 717c0 -19.333 -6.33301 -37 -19 -53l-131 -164l105 -138c17.333 -22.667 26 -45.667 26 -69c0 -52 -25.333 -94.333 -76 -127c-32 -20.667 -63.333 -31 -94 -31c-43.333 0 -76.666 15.667 -99.999 47l-62 84l-88 -98c-22 -24.667 -47 -37 -75 -37
c-60.667 0 -91 30.667 -91 92c0 20 6.33301 37 19 51l121 136l-123 161c-18 23.333 -27 46 -27 68c0 52.667 25.333 95.667 76 129c29.333 19.333 60 29 92 29c47.333 0 81.666 -15 102.999 -45l77 -107l103 127c20 24.667 45.333 37 76 37
c24.667 0 45.5 -9.16699 62.5 -27.5s25.5 -39.833 25.5 -64.5z" />
    <glyph glyph-name="Oslash" unicode="&#xd8;" 
d="M1006 121c0 -36 -17 -65.667 -51 -89c-30 -21.333 -63.667 -32 -101 -32h-428l-45 -119h-2c-16.667 -34 -44 -51 -82 -51c-60 0 -90 30.667 -90 92c0 10 2 20.333 6 31l18 47c-36 2.66699 -67 14.334 -93 35.001c-29.333 22.667 -44 51.334 -44 86.001v971
c0 37.333 16.333 67.666 49 90.999c28.667 20.667 63 31 103 31h436l33 86c15.333 40 44 60 86 60c60 0 90 -30.667 90 -92c0 -8 -2 -18.333 -6 -31l-8 -25c34 -4 63.333 -16.333 88 -37c27.333 -22.667 41 -50.334 41 -83.001v-971zM614 1032h-217v-583zM702 182v563
l-208 -563h208z" />
    <glyph glyph-name="Ugrave" unicode="&#xd9;" 
d="M723 1438c17.333 -38 16.334 -70.6689 -2.99902 -98.002c-18 -24.667 -47.667 -40 -89 -46c-40.667 -5.33301 -81.334 1.33398 -122.001 20.001c-43.333 19.333 -73 47 -89 83l-45 100c-7.33301 17.333 -11 33 -11 47c0 22.667 8.66699 42.334 26 59.001
c26 24.667 61.333 37 106 37c31.333 0 63.333 -7 96 -21c41.333 -18 70 -45 86 -81zM1006 120.998c0 -36 -17 -65.6689 -51 -89.002c-30 -21.333 -63.667 -32 -101 -32h-608c-38.667 0 -72.667 10.333 -102 31c-33.333 22.667 -50 52.667 -50 90v971
c0 37.333 16.333 67.666 49 90.999c28.667 20.667 63 31 103 31c39.333 0 73.333 -10.333 102 -31c32.667 -23.333 49 -53.666 49 -90.999v-910h305v910c0 38.667 16.333 69.334 49 92.001c28.667 20 63 30 103 30c38.667 0 73 -10.333 103 -31
c32.667 -23.333 49 -53.666 49 -90.999v-971z" />
    <glyph glyph-name="Uacute" unicode="&#xda;" 
d="M723 1495l-45.001 -100c-14 -32 -39.333 -57.333 -76 -76c-33.333 -18 -68.666 -27 -105.999 -27c-46 0 -81.667 12.667 -107 38c-28.667 28 -33.334 63.333 -14.001 106l45 100c16 36 45.667 63.667 89 83c40.667 18.667 81.334 25 122.001 19
c41.333 -6 71 -21.333 89 -46c19.333 -26.667 20.333 -59 3 -97zM1006 121c0 -36 -17 -65.6689 -51 -89.002c-30 -21.333 -63.667 -32 -101 -32h-608c-38.667 0 -72.667 10.333 -102 31c-33.333 22.667 -50 52.667 -50 90v971c0 37.333 16.333 67.666 49 90.999
c28.667 20.667 63 31 103 31c39.333 0 73.333 -10.333 102 -31c32.667 -23.333 49 -53.666 49 -90.999v-910h305v910c0 38.667 16.333 69.334 49 92.001c28.667 20 63 30 103 30c38.667 0 73 -10.333 103 -31c32.667 -23.333 49 -53.666 49 -90.999v-971z" />
    <glyph glyph-name="Ucircumflex" unicode="&#xdb;" 
d="M872 1346c0 -33.333 -28.668 -50 -86.001 -50c-40.667 0 -67 11 -79 33l-111 119l-94 -115c-22.667 -27.333 -61.667 -41 -117 -41c-14 0 -33 2.66699 -57 8c-68.667 15.333 -103 39.333 -103 72c0 8.66699 5 19 15 31l163 192c16.667 27.333 54.334 41 113.001 41
c70 0 119.333 -15.667 148 -47l194 -213c9.33301 -8 14 -18 14 -30zM1006 121c0 -36 -17 -65.6689 -51 -89.002c-30 -21.333 -63.667 -32 -101 -32h-608c-38.667 0 -72.667 10.333 -102 31c-33.333 22.667 -50 52.667 -50 90v971c0 37.333 16.333 67.666 49 90.999
c28.667 20.667 63 31 103 31c39.333 0 73.333 -10.333 102 -31c32.667 -23.333 49 -53.666 49 -90.999v-910h305v910c0 38.667 16.333 69.334 49 92.001c28.667 20 63 30 103 30c38.667 0 73 -10.333 103 -31c32.667 -23.333 49 -53.666 49 -90.999v-971z" />
    <glyph glyph-name="Udieresis" unicode="&#xdc;" 
d="M905 1446c0 -37.333 -16.333 -67.332 -49 -89.999c-29.333 -20.667 -63.333 -31 -102 -31s-72.667 10.333 -102 31c-33.333 22.667 -50 52.667 -50 90c0 38 16.333 68.667 49 92c28.667 20.667 63 31 103 31s74.333 -10.333 103 -31c32 -22.667 48 -53.334 48 -92.001z
M496 1446c0 -37.333 -16.667 -67.334 -50 -90.001c-29.333 -20.667 -63.333 -31 -102 -31s-72.667 10.333 -102 31c-32.667 22.667 -49 52.667 -49 90c0 38.667 16 69.334 48 92.001c28.667 20.667 63 31 103 31s74.333 -10.333 103 -31c32.667 -23.333 49 -54 49 -92z
M1006 121c0 -36 -17 -65.6689 -51 -89.002c-30 -21.333 -63.667 -32 -101 -32h-608c-38.667 0 -72.667 10.333 -102 31c-33.333 22.667 -50 52.667 -50 90v971c0 37.333 16.333 67.666 49 90.999c28.667 20.667 63 31 103 31c39.333 0 73.333 -10.333 102 -31
c32.667 -23.333 49 -53.666 49 -90.999v-910h305v910c0 38.667 16.333 69.334 49 92.001c28.667 20 63 30 103 30c38.667 0 73 -10.333 103 -31c32.667 -23.333 49 -53.666 49 -90.999v-971z" />
    <glyph glyph-name="Yacute" unicode="&#xdd;" 
d="M719 1544c0 -14 -4 -30.334 -12 -49.001l-43 -100c-14.667 -34 -43.667 -60.667 -87 -80c-33.333 -14.667 -66 -22 -98 -22c-46 0 -81.333 12.667 -106 38c-26.667 27.333 -31 62.333 -13 105l43 100c14.667 34.667 44.667 62 90 82
c42.667 18.667 83.667 25.334 123 20.001c68.667 -10 103 -41.333 103 -94zM1006 636.999c0 -36 -17 -65.6689 -51 -89.002c-30 -21.333 -63.667 -32 -101 -32h-152v-395c0 -36 -16.667 -65.667 -50 -89c-30 -21.333 -63.667 -32 -101 -32c-38.667 0 -73 10.333 -103 31
c-34 22.667 -51 52.667 -51 90v395h-151c-38.667 0 -72.667 10.333 -102 31c-33.333 22.667 -50 52.667 -50 90v455c0 37.333 16.333 67.666 49 90.999c28.667 20.667 63 31 103 31c39.333 0 73.333 -10.333 102 -31c32.667 -23.333 49 -53.666 49 -90.999v-394h305v394
c0 38.667 16.333 69.334 49 92.001c28.667 20 63 30 103 30c38.667 0 73 -10.333 103 -31c32.667 -23.333 49 -53.666 49 -90.999v-455z" />
    <glyph glyph-name="Thorn" unicode="&#xde;" horiz-adv-x="1006" 
d="M944 334c0 -37.333 -16.333 -67.332 -49 -89.999c-29.333 -20.667 -63.333 -31 -102 -31h-396v-92c0 -37.333 -16.333 -67.333 -49 -90c-29.333 -20.667 -63.333 -31 -102 -31s-72.667 10.333 -102 31c-33.333 22.667 -50 52.667 -50 90v971
c0 37.333 16.333 67.666 49 90.999c28.667 20.667 63 31 103 31c50.667 0 101 -40.667 151 -122v-91h396c39.333 0 73.333 -10 102 -30c32.667 -22.667 49 -52.667 49 -90v-547zM641 395.001v424h-244v-424h244z" />
    <glyph glyph-name="germandbls" unicode="&#xdf;" horiz-adv-x="1188" 
d="M1126 152c0 -116.667 -47.333 -213 -142 -289c-88.667 -71.333 -192.667 -107 -312 -107h-244c-60 0 -90 30.667 -90 92c0 60.667 30 91 90 91h244c53.333 0 103.666 12 150.999 36v535c-47.333 24.667 -97.666 37 -150.999 37h-275v-426
c0 -37.333 -16.333 -67.333 -49 -90c-29.333 -20.667 -63.333 -31 -102 -31s-72.667 10.333 -102 31c-33.333 22.667 -50 52.667 -50 90v971c0 37.333 16.333 67.666 49 90.999c28.667 20.667 63 31 103 31h547c39.333 0 73.333 -10.333 102 -31
c32.667 -23.333 49 -53.666 49 -90.999v-304c0 -43.333 -23.333 -77.333 -70 -102c74 -32.667 133.667 -79 179 -139c48.667 -65.333 73 -136.333 73 -213v-182zM661 729c-13.333 18 -20 37.667 -20 59v244h-244v-303h264z" />
    <glyph glyph-name="agrave" unicode="&#xe0;" horiz-adv-x="1006" 
d="M688 1122c0 -52.667 -33.999 -84.001 -101.999 -94.001c-38.667 -5.33301 -79.334 1.33398 -122.001 20.001c-46 20.667 -76.333 48 -91 82l-43 101c-7.33301 17.333 -11 33.333 -11 48c0 30.667 14.667 55 44 73c24.667 14.667 53.334 22 86.001 22
c31.333 0 63.666 -7.33301 96.999 -22c43.333 -19.333 72.333 -46 87 -80l43 -101c8 -18.667 12 -35 12 -49zM944.001 120.999c0 -37.333 -16.3311 -67.333 -48.998 -90c-29.333 -20.667 -63.333 -31 -102 -31h-547c-38.667 0 -72.667 10.333 -102 31
c-33.333 22.667 -50 52.667 -50 90v334c0 37.333 16.667 67.333 50 90c28.667 20 62.667 30 102 30h395v154h-264c-28.667 -40.667 -72.334 -61 -131.001 -61c-39.333 0 -73.333 10 -102 30c-33.333 22.667 -50 52.667 -50 90c0 38 16.333 68.333 49 91
c29.333 20 63.666 30 102.999 30h547c39.333 0 73.333 -10 102 -30c32.667 -22.667 49 -53 49 -91v-667zM641.003 181.999v213h-244v-213h244z" />
    <glyph glyph-name="aacute" unicode="&#xe1;" horiz-adv-x="1006" 
d="M688 1278c0 -14 -4 -30.333 -12 -49l-43 -101c-14 -32.667 -43 -59 -87 -79c-34 -15.333 -66.333 -23 -97 -23c-52.667 0 -91 16.333 -115 49c-18.667 25.333 -20 56.666 -4 93.999l43 101c14.667 35.333 44.667 62.666 90 81.999c42 18.667 83 25.334 123 20.001
c68 -9.33301 102 -40.666 102 -93.999zM944 121c0 -37.333 -16.3311 -67.333 -48.998 -90c-29.333 -20.667 -63.333 -31 -102 -31h-547c-38.667 -0 -72.667 10.333 -102 31c-33.333 22.667 -50 52.667 -50 90v334c0 37.333 16.667 67.333 50 90c28.667 20 62.667 30 102 30
h395v154h-264c-28.667 -40.667 -72.334 -61 -131.001 -61c-39.333 0 -73.333 10 -102 30c-33.333 22.667 -50 52.667 -50 90c0 38 16.333 68.333 49 91c29.333 20 63.666 30 102.999 30h547c39.333 0 73.333 -10 102 -30c32.667 -22.667 49 -53 49 -91v-667zM641.002 182
v213h-244v-213h244z" />
    <glyph glyph-name="acircumflex" unicode="&#xe2;" horiz-adv-x="1006" 
d="M827 1079c0 -32.667 -29.332 -49 -87.999 -49c-39.333 0 -66 11 -80 33l-108 119l-96 -115c-22.667 -27.333 -61 -41 -115 -41c-14.667 0 -34.334 2.66699 -59.001 8c-68.667 14.667 -103 38.667 -103 72c0 10.667 5.66699 21 17 31l161 192c16.667 27.333 55 41 115 41
c69.333 0 118.333 -15.667 147 -47l193 -213c10.667 -8 16 -18.333 16 -31zM944.001 121c0 -37.333 -16.3311 -67.333 -48.998 -90c-29.333 -20.667 -63.333 -31 -102 -31h-547c-38.667 -0 -72.667 10.333 -102 31c-33.333 22.667 -50 52.667 -50 90v334
c0 37.333 16.667 67.333 50 90c28.667 20 62.667 30 102 30h395v154h-264c-28.667 -40.667 -72.334 -61 -131.001 -61c-39.333 0 -73.333 10 -102 30c-33.333 22.667 -50 52.667 -50 90c0 38 16.333 68.333 49 91c29.333 20 63.666 30 102.999 30h547
c39.333 0 73.333 -10 102 -30c32.667 -22.667 49 -53 49 -91v-667zM641.003 182v213h-244v-213h244z" />
    <glyph glyph-name="atilde" unicode="&#xe3;" horiz-adv-x="1006" 
d="M881 1280c1.33301 -23.333 -3.66895 -44.667 -15.002 -64c-76 -129.333 -170.667 -194 -284 -194c-62 0 -118 24.667 -168 74l-70 69c-36 -20.667 -67.333 -53.334 -94 -98.001c-13.333 -23.333 -33.333 -35 -60 -35c-36.667 0 -57.667 25.333 -63 76
c-3.33301 29.333 0.666992 53.333 12 72c75.333 128 170.333 192 285 192c60.667 0 116.667 -24.667 168 -74l72 -69c34.667 22 65.334 54.667 92.001 98c12.667 20.667 28.334 32.334 47.001 35.001c21.333 2.66699 39.333 -4.83301 54 -22.5s22.667 -37.5 24 -59.5z
M943.998 120.999c0 -37.333 -16.3311 -67.333 -48.998 -90c-29.333 -20.667 -63.333 -31 -102 -31h-547c-38.667 0 -72.667 10.333 -102 31c-33.333 22.667 -50 52.667 -50 90v334c0 37.333 16.667 67.333 50 90c28.667 20 62.667 30 102 30h395v154h-264
c-28.667 -40.667 -72.334 -61 -131.001 -61c-39.333 0 -73.333 10 -102 30c-33.333 22.667 -50 52.667 -50 90c0 38 16.333 68.333 49 91c29.333 20 63.666 30 102.999 30h547c39.333 0 73.333 -10 102 -30c32.667 -22.667 49 -53 49 -91v-667zM641 181.999v213h-244v-213
h244z" />
    <glyph glyph-name="adieresis" unicode="&#xe4;" horiz-adv-x="1006" 
d="M860 1180c0 -36.667 -16.335 -66.667 -49.002 -90c-30 -20.667 -64 -31 -102 -31c-40 0 -74.333 10 -103 30c-32.667 22.667 -49 53 -49 91c0 38.667 16 69.667 48 93c28.667 20 63.334 30 104.001 30c36.667 0 70.334 -11 101.001 -33c33.333 -24.667 50 -54.667 50 -90
zM450.998 1180c0 -37.333 -16.6699 -67.333 -50.0029 -90c-29.333 -20.667 -63.333 -31 -102 -31c-39.333 0 -73.666 10 -102.999 30c-32.667 22.667 -49 53 -49 91c0 38.667 16 69.667 48 93c28.667 20 63.334 30 104.001 30c36.667 0 70.334 -11 101.001 -33
c34 -24.667 51 -54.667 51 -90zM943.995 121c0 -37.333 -16.3311 -67.333 -48.998 -90c-29.333 -20.667 -63.333 -31 -102 -31h-547c-38.667 -0 -72.667 10.333 -102 31c-33.333 22.667 -50 52.667 -50 90v334c0 37.333 16.667 67.333 50 90c28.667 20 62.667 30 102 30h395
v154h-264c-28.667 -40.667 -72.334 -61 -131.001 -61c-39.333 0 -73.333 10 -102 30c-33.333 22.667 -50 52.667 -50 90c0 38 16.333 68.333 49 91c29.333 20 63.666 30 102.999 30h547c39.333 0 73.333 -10 102 -30c32.667 -22.667 49 -53 49 -91v-667zM640.997 182v213
h-244v-213h244z" />
    <glyph glyph-name="aring" unicode="&#xe5;" horiz-adv-x="1006" 
d="M766 1073c0 -31.333 -31.333 -47 -94 -47h-338c-62.667 0 -94 15.667 -94 47v264c0 31.333 31.333 47 94 47h338c62.667 0 94 -15.667 94 -47v-264zM944 121c0 -37.333 -16.3311 -67.333 -48.998 -90c-29.333 -20.667 -63.333 -31 -102 -31h-547
c-38.667 -0 -72.667 10.333 -102 31c-33.333 22.667 -50 52.667 -50 90v334c0 37.333 16.667 67.333 50 90c28.667 20 62.667 30 102 30h395v154h-264c-28.667 -40.667 -72.334 -61 -131.001 -61c-39.333 0 -73.333 10 -102 30c-33.333 22.667 -50 52.667 -50 90
c0 38 16.333 68.333 49 91c29.333 20 63.666 30 102.999 30h547c39.333 0 73.333 -10 102 -30c32.667 -22.667 49 -53 49 -91v-667zM578.002 1098v217h-150v-217h150zM641.002 182v213h-244v-213h244z" />
    <glyph glyph-name="ae" unicode="&#xe6;" horiz-adv-x="1559" 
d="M1497 121c0 -37.333 -16.3311 -67.334 -48.998 -90.001c-29.333 -20.667 -63.333 -31 -102 -31h-1100c-38.667 0 -72.667 10.333 -102 31c-33.333 22.667 -50 52.667 -50 90v334c0 37.333 16.667 67.333 50 90c28.667 20 62.667 30 102 30h395v154h-264
c-28.667 -40.667 -72.334 -61 -131.001 -61c-39.333 0 -73.333 10 -102 30c-33.333 22.667 -50 52.667 -50 90c0 38 16.333 68.333 49 91c29.333 20 63.666 30 102.999 30h1100c39.333 0 73.333 -10 102 -30c32.667 -22.667 49 -53 49 -91v-272
c0 -37.333 -16.333 -67.333 -49 -90c-29.333 -20.667 -63.333 -31 -102 -31h-396v-213h264c28.667 41.333 72.667 62 132 62c38.667 0 72.667 -10.667 102 -32c32.667 -23.333 49 -53.666 49 -90.999zM1194 574.999v154h-244v-154h244zM641.002 181.999v213h-244v-213h244z
" />
    <glyph glyph-name="ccedilla" unicode="&#xe7;" horiz-adv-x="1006" 
d="M944 121c0 -37.333 -16.332 -67.334 -48.999 -90.001c-29.333 -20.667 -63.333 -31 -102 -31h-258l-7 -78h50c62.667 0 94 -15.667 94 -47v-223c0 -32.667 -31.333 -49 -94 -49h-240c-18 0 -27 19 -27 57c0 36.667 9 55 27 55h147v135h-151l2 27l10 123h-100
c-38.667 0 -72.667 10.333 -102 31c-33.333 22.667 -50 52.667 -50 90v667c0 38 16.333 68.333 49 91c29.333 20 63.666 30 102.999 30h547c39.333 0 73.333 -10 102 -30c32.667 -22.667 49 -53 49 -91c0 -37.333 -16.333 -67.333 -49 -90c-28.667 -20 -62.667 -30 -102 -30
c-58.667 0 -102.667 20.333 -132 61h-264v-547h264c29.333 41.333 73.333 62 132 62c38.667 0 72.667 -10.667 102 -32c32.667 -23.333 49 -53.666 49 -90.999z" />
    <glyph glyph-name="egrave" unicode="&#xe8;" horiz-adv-x="1006" 
d="M688 1122c0 -52.667 -33.999 -84.001 -101.999 -94.001c-38.667 -5.33301 -79.334 1.33398 -122.001 20.001c-46 20.667 -76.333 48 -91 82l-43 101c-7.33301 17.333 -11 33.333 -11 48c0 30.667 14.667 55 44 73c24.667 14.667 53.334 22 86.001 22
c31.333 0 63.666 -7.33301 96.999 -22c43.333 -19.333 72.333 -46 87 -80l43 -101c8 -18.667 12 -35 12 -49zM944.001 120.999c0 -37.333 -16.332 -67.334 -48.999 -90.001c-29.333 -20.667 -63.333 -31 -102 -31h-547c-38.667 0 -72.667 10.333 -102 31
c-33.333 22.667 -50 52.667 -50 90v667c0 38 16.333 68.333 49 91c29.333 20 63.666 30 102.999 30h547c39.333 0 73.333 -10 102 -30c32.667 -22.667 49 -53 49 -91v-272c0 -37.333 -16.333 -67.333 -49 -90c-29.333 -20.667 -63.333 -31 -102 -31h-396v-213h264
c29.333 41.333 73.333 62 132 62c38.667 0 72.667 -10.667 102 -32c32.667 -23.333 49 -53.666 49 -90.999zM641.002 574.998v154h-244v-154h244z" />
    <glyph glyph-name="eacute" unicode="&#xe9;" horiz-adv-x="1006" 
d="M688 1278c0 -14 -4 -30.333 -12 -49l-43 -101c-14 -32.667 -43 -59 -87 -79c-34 -15.333 -66.333 -23 -97 -23c-52.667 0 -91 16.333 -115 49c-18.667 25.333 -20 56.666 -4 93.999l43 101c14.667 35.333 44.667 62.666 90 81.999c42 18.667 83 25.334 123 20.001
c68 -9.33301 102 -40.666 102 -93.999zM944 121c0 -37.333 -16.332 -67.334 -48.999 -90.001c-29.333 -20.667 -63.333 -31 -102 -31h-547c-38.667 0 -72.667 10.333 -102 31c-33.333 22.667 -50 52.667 -50 90v667c0 38 16.333 68.333 49 91
c29.333 20 63.666 30 102.999 30h547c39.333 0 73.333 -10 102 -30c32.667 -22.667 49 -53 49 -91v-272c0 -37.333 -16.333 -67.333 -49 -90c-29.333 -20.667 -63.333 -31 -102 -31h-396v-213h264c29.333 41.333 73.333 62 132 62c38.667 0 72.667 -10.667 102 -32
c32.667 -23.333 49 -53.666 49 -90.999zM641.001 574.999v154h-244v-154h244z" />
    <glyph glyph-name="ecircumflex" unicode="&#xea;" horiz-adv-x="1006" 
d="M827 1079c0 -32.667 -29.332 -49 -87.999 -49c-39.333 0 -66 11 -80 33l-108 119l-96 -115c-22.667 -27.333 -61 -41 -115 -41c-14.667 0 -34.334 2.66699 -59.001 8c-68.667 14.667 -103 38.667 -103 72c0 10.667 5.66699 21 17 31l161 192c16.667 27.333 55 41 115 41
c69.333 0 118.333 -15.667 147 -47l193 -213c10.667 -8 16 -18.333 16 -31zM944.001 121c0 -37.333 -16.332 -67.334 -48.999 -90.001c-29.333 -20.667 -63.333 -31 -102 -31h-547c-38.667 0 -72.667 10.333 -102 31c-33.333 22.667 -50 52.667 -50 90v667
c0 38 16.333 68.333 49 91c29.333 20 63.666 30 102.999 30h547c39.333 0 73.333 -10 102 -30c32.667 -22.667 49 -53 49 -91v-272c0 -37.333 -16.333 -67.333 -49 -90c-29.333 -20.667 -63.333 -31 -102 -31h-396v-213h264c29.333 41.333 73.333 62 132 62
c38.667 0 72.667 -10.667 102 -32c32.667 -23.333 49 -53.666 49 -90.999zM641.002 574.999v154h-244v-154h244z" />
    <glyph glyph-name="edieresis" unicode="&#xeb;" horiz-adv-x="1006" 
d="M860 1180c0 -36.667 -16.335 -66.667 -49.002 -90c-30 -20.667 -64 -31 -102 -31c-40 0 -74.333 10 -103 30c-32.667 22.667 -49 53 -49 91c0 38.667 16 69.667 48 93c28.667 20 63.334 30 104.001 30c36.667 0 70.334 -11 101.001 -33c33.333 -24.667 50 -54.667 50 -90
zM450.998 1180c0 -37.333 -16.6699 -67.333 -50.0029 -90c-29.333 -20.667 -63.333 -31 -102 -31c-39.333 0 -73.666 10 -102.999 30c-32.667 22.667 -49 53 -49 91c0 38.667 16 69.667 48 93c28.667 20 63.334 30 104.001 30c36.667 0 70.334 -11 101.001 -33
c34 -24.667 51 -54.667 51 -90zM943.995 121c0 -37.333 -16.332 -67.334 -48.999 -90.001c-29.333 -20.667 -63.333 -31 -102 -31h-547c-38.667 0 -72.667 10.333 -102 31c-33.333 22.667 -50 52.667 -50 90v667c0 38 16.333 68.333 49 91c29.333 20 63.666 30 102.999 30
h547c39.333 0 73.333 -10 102 -30c32.667 -22.667 49 -53 49 -91v-272c0 -37.333 -16.333 -67.333 -49 -90c-29.333 -20.667 -63.333 -31 -102 -31h-396v-213h264c29.333 41.333 73.333 62 132 62c38.667 0 72.667 -10.667 102 -32c32.667 -23.333 49 -53.666 49 -90.999z
M640.996 574.999v154h-244v-154h244z" />
    <glyph glyph-name="igrave" unicode="&#xec;" horiz-adv-x="512" 
d="M451 1122c0 -53.333 -33.667 -84.6689 -101 -94.002c-38.667 -5.33301 -79.334 1.33398 -122.001 20.001c-46 20.667 -76.333 48 -91 82l-43 101c-16 37.333 -14.333 69.333 5 96c17.333 24.667 46.333 39.667 87 45c40 5.33301 80.667 -1 122 -19
c44.667 -18.667 74.334 -45.667 89.001 -81l43 -101c7.33301 -17.333 11 -33.666 11 -48.999zM434 120.997c0 -37.333 -16.332 -67.333 -48.999 -90c-29.333 -20.667 -63.333 -31 -102 -31s-72.667 10.333 -102 31c-33.333 22.667 -50 52.667 -50 90v667
c0 38 16.333 68.333 49 91c29.333 20 63.666 30 102.999 30s73.333 -10 102 -30c32.667 -22.667 49 -53 49 -91v-667z" />
    <glyph glyph-name="iacute" unicode="&#xed;" horiz-adv-x="512" 
d="M451 1278c0 -15.333 -3.66699 -31.668 -11 -49.001l-43 -101c-14.667 -34 -44.667 -61 -90 -81c-42 -18 -82.333 -24.333 -121 -19c-40 6 -69 21 -87 45c-19.333 26.667 -21 58.667 -5 96l43 101c14.667 35.333 44.667 62.666 90 81.999c42 18.667 83 25.334 123 20.001
c67.333 -9.33301 101 -40.666 101 -93.999zM434 120.998c0 -37.333 -16.332 -67.333 -48.999 -90c-29.333 -20.667 -63.333 -31 -102 -31s-72.667 10.333 -102 31c-33.333 22.667 -50 52.667 -50 90v667c0 38 16.333 68.333 49 91c29.333 20 63.666 30 102.999 30
s73.333 -10 102 -30c32.667 -22.667 49 -53 49 -91v-667z" />
    <glyph glyph-name="icircumflex" unicode="&#xee;" horiz-adv-x="807" 
d="M745 1079c0 -32.667 -29.333 -49 -88 -49c-40.667 0 -67 11 -79 33l-109 119l-96 -115c-22.667 -27.333 -61 -41 -115 -41c-16 0 -36.333 2.66699 -61 8c-68.667 14.667 -103 38.667 -103 72c0 10.667 5.66699 21 17 31l163 192c16.667 27.333 55 41 115 41
c70.667 0 120 -15.667 148 -47l192 -213c10.667 -8 16 -18.333 16 -31zM588 121c0 -37.333 -16.666 -67.333 -49.999 -90c-29.333 -20.667 -63.333 -31 -102 -31s-72.667 10.333 -102 31c-32.667 22.667 -49 52.667 -49 90v667c0 38 16.333 68.333 49 91
c28.667 20 62.667 30 102 30s73.666 -10 102.999 -30c32.667 -22.667 49 -53 49 -91v-667z" />
    <glyph glyph-name="idieresis" unicode="&#xef;" horiz-adv-x="868" 
d="M807 1180c0 -37.333 -16.666 -67.335 -49.999 -90.002c-29.333 -20.667 -63.333 -31 -102 -31s-72.667 10.333 -102 31c-32.667 22.667 -49 52.667 -49 90c0 38.667 16 69.334 48 92.001c28.667 20.667 63 31 103 31c39.333 0 73.666 -10.667 102.999 -32
c32.667 -23.333 49 -53.666 49 -90.999zM397.001 1180c0 -37.333 -16.333 -67.334 -49 -90.001c-29.333 -20.667 -63.333 -31 -102 -31s-72.667 10.333 -102 31c-33.333 22.667 -50 52.667 -50 90c0 38 16.333 68.667 49 92c28.667 20.667 63 31 103 31
c38.667 0 72.667 -10.667 102 -32c32.667 -23.333 49 -53.666 49 -90.999zM618.001 120.997c0 -37.333 -16.332 -67.333 -48.999 -90c-29.333 -20.667 -63.333 -31 -102 -31s-72.667 10.333 -102 31c-33.333 22.667 -50 52.667 -50 90v667c0 38 16.333 68.333 49 91
c29.333 20 63.666 30 102.999 30s73.333 -10 102 -30c32.667 -22.667 49 -53 49 -91v-667z" />
    <glyph glyph-name="eth" unicode="&#xf0;" horiz-adv-x="1135" 
d="M1073 950c0 -60 -30.667 -90.002 -92 -90.002h-37v-739c0 -37.333 -16.333 -67.333 -49 -90c-29.333 -20.667 -63.333 -31 -102 -31h-547c-38.667 0 -72.667 10.333 -102 31c-33.333 22.667 -50 52.667 -50 90v442c0 37.333 16.667 67.333 50 90
c29.333 20.667 63.333 31 102 31h395v176h-213c-61.333 0 -92 30 -92 90c0 61.333 30.667 92 92 92h213v50c0 38.667 16.333 69.334 49 92.001c28.667 20 63 30 103 30c39.333 0 73.333 -10.333 102 -31c32.667 -23.333 49 -53.666 49 -90.999v-50h37
c26 0 47.833 -8.83301 65.5 -26.5s26.5 -39.5 26.5 -65.5zM641 181.998v322h-244v-322h244z" />
    <glyph glyph-name="ntilde" unicode="&#xf1;" horiz-adv-x="1006" 
d="M881 1280c1.33301 -23.333 -3.66895 -44.667 -15.002 -64c-76 -129.333 -170.667 -194 -284 -194c-62 0 -118 24.667 -168 74l-70 69c-36 -20.667 -67.333 -53.334 -94 -98.001c-13.333 -23.333 -33.333 -35 -60 -35c-36.667 0 -57.667 25.333 -63 76
c-3.33301 29.333 0.666992 53.333 12 72c75.333 128 170.333 192 285 192c60.667 0 116.667 -24.667 168 -74l72 -69c34.667 22 65.334 54.667 92.001 98c12.667 20.667 28.334 32.334 47.001 35.001c21.333 2.66699 39.333 -4.83301 54 -22.5s22.667 -37.5 24 -59.5z
M943.998 120.999c0 -37.333 -16.333 -67.332 -49 -89.999c-29.333 -20.667 -63.333 -31 -102 -31c-39.333 0 -73.666 10 -102.999 30c-32.667 23.333 -49 53.666 -49 90.999v608h-244v-608c0 -37.333 -16.333 -67.333 -49 -90c-29.333 -20.667 -63.333 -31 -102 -31
s-72.667 10.333 -102 31c-33.333 22.667 -50 52.667 -50 90v667c0 38 16.333 68.333 49 91c29.333 20 63.666 30 102.999 30h547c39.333 0 73.333 -10 102 -30c32.667 -22.667 49 -53 49 -91v-667z" />
    <glyph glyph-name="ograve" unicode="&#xf2;" horiz-adv-x="1006" 
d="M688 1122c0 -52.667 -33.999 -84.001 -101.999 -94.001c-38.667 -5.33301 -79.334 1.33398 -122.001 20.001c-46 20.667 -76.333 48 -91 82l-43 101c-7.33301 17.333 -11 33.333 -11 48c0 30.667 14.667 55 44 73c24.667 14.667 53.334 22 86.001 22
c31.333 0 63.666 -7.33301 96.999 -22c43.333 -19.333 72.333 -46 87 -80l43 -101c8 -18.667 12 -35 12 -49zM944.001 120.999c0 -37.333 -16.332 -67.333 -48.999 -90c-29.333 -20.667 -63.333 -31 -102 -31h-547c-38.667 0 -72.667 10.333 -102 31
c-33.333 22.667 -50 52.667 -50 90v667c0 38 16.333 68.333 49 91c29.333 20 63.666 30 102.999 30h547c39.333 0 73.333 -10 102 -30c32.667 -22.667 49 -53 49 -91v-667zM641.002 181.999v547h-244v-547h244z" />
    <glyph glyph-name="oacute" unicode="&#xf3;" horiz-adv-x="1006" 
d="M688 1278c0 -14 -4 -30.333 -12 -49l-43 -101c-14 -32.667 -43 -59 -87 -79c-34 -15.333 -66.333 -23 -97 -23c-52.667 0 -91 16.333 -115 49c-18.667 25.333 -20 56.666 -4 93.999l43 101c14.667 35.333 44.667 62.666 90 81.999c42 18.667 83 25.334 123 20.001
c68 -9.33301 102 -40.666 102 -93.999zM944 121c0 -37.333 -16.332 -67.333 -48.999 -90c-29.333 -20.667 -63.333 -31 -102 -31h-547c-38.667 -0 -72.667 10.333 -102 31c-33.333 22.667 -50 52.667 -50 90v667c0 38 16.333 68.333 49 91c29.333 20 63.666 30 102.999 30
h547c39.333 0 73.333 -10 102 -30c32.667 -22.667 49 -53 49 -91v-667zM641.001 182v547h-244v-547h244z" />
    <glyph glyph-name="ocircumflex" unicode="&#xf4;" horiz-adv-x="1006" 
d="M827 1079c0 -32.667 -29.332 -49 -87.999 -49c-39.333 0 -66 11 -80 33l-108 119l-96 -115c-22.667 -27.333 -61 -41 -115 -41c-14.667 0 -34.334 2.66699 -59.001 8c-68.667 14.667 -103 38.667 -103 72c0 10.667 5.66699 21 17 31l161 192c16.667 27.333 55 41 115 41
c69.333 0 118.333 -15.667 147 -47l193 -213c10.667 -8 16 -18.333 16 -31zM944.001 121c0 -37.333 -16.332 -67.333 -48.999 -90c-29.333 -20.667 -63.333 -31 -102 -31h-547c-38.667 -0 -72.667 10.333 -102 31c-33.333 22.667 -50 52.667 -50 90v667
c0 38 16.333 68.333 49 91c29.333 20 63.666 30 102.999 30h547c39.333 0 73.333 -10 102 -30c32.667 -22.667 49 -53 49 -91v-667zM641.002 182v547h-244v-547h244z" />
    <glyph glyph-name="otilde" unicode="&#xf5;" horiz-adv-x="1006" 
d="M881 1280c1.33301 -23.333 -3.66895 -44.667 -15.002 -64c-76 -129.333 -170.667 -194 -284 -194c-62 0 -118 24.667 -168 74l-70 69c-36 -20.667 -67.333 -53.334 -94 -98.001c-13.333 -23.333 -33.333 -35 -60 -35c-36.667 0 -57.667 25.333 -63 76
c-3.33301 29.333 0.666992 53.333 12 72c75.333 128 170.333 192 285 192c60.667 0 116.667 -24.667 168 -74l72 -69c34.667 22 65.334 54.667 92.001 98c12.667 20.667 28.334 32.334 47.001 35.001c21.333 2.66699 39.333 -4.83301 54 -22.5s22.667 -37.5 24 -59.5z
M943.998 120.999c0 -37.333 -16.332 -67.333 -48.999 -90c-29.333 -20.667 -63.333 -31 -102 -31h-547c-38.667 0 -72.667 10.333 -102 31c-33.333 22.667 -50 52.667 -50 90v667c0 38 16.333 68.333 49 91c29.333 20 63.666 30 102.999 30h547c39.333 0 73.333 -10 102 -30
c32.667 -22.667 49 -53 49 -91v-667zM640.999 181.999v547h-244v-547h244z" />
    <glyph glyph-name="odieresis" unicode="&#xf6;" horiz-adv-x="1006" 
d="M860 1180c0 -36.667 -16.335 -66.667 -49.002 -90c-30 -20.667 -64 -31 -102 -31c-40 0 -74.333 10 -103 30c-32.667 22.667 -49 53 -49 91c0 38.667 16 69.667 48 93c28.667 20 63.334 30 104.001 30c36.667 0 70.334 -11 101.001 -33c33.333 -24.667 50 -54.667 50 -90
zM450.998 1180c0 -37.333 -16.6699 -67.333 -50.0029 -90c-29.333 -20.667 -63.333 -31 -102 -31c-39.333 0 -73.666 10 -102.999 30c-32.667 22.667 -49 53 -49 91c0 38.667 16 69.667 48 93c28.667 20 63.334 30 104.001 30c36.667 0 70.334 -11 101.001 -33
c34 -24.667 51 -54.667 51 -90zM943.995 121c0 -37.333 -16.332 -67.333 -48.999 -90c-29.333 -20.667 -63.333 -31 -102 -31h-547c-38.667 -0 -72.667 10.333 -102 31c-33.333 22.667 -50 52.667 -50 90v667c0 38 16.333 68.333 49 91c29.333 20 63.666 30 102.999 30h547
c39.333 0 73.333 -10 102 -30c32.667 -22.667 49 -53 49 -91v-667zM640.996 182v547h-244v-547h244z" />
    <glyph glyph-name="divide" unicode="&#xf7;" horiz-adv-x="1036" 
d="M670 934c0 -37.333 -16.667 -67.335 -50 -90.002c-29.333 -20.667 -63.333 -31 -102 -31s-72.667 10.333 -102 31c-32.667 22.667 -49 52.667 -49 90c0 38.667 16 69.334 48 92.001c28.667 20.667 63 31 103 31c38.667 0 72.667 -10.667 102 -32
c33.333 -23.333 50 -53.666 50 -90.999zM975 605.998c0 -60 -30.667 -90 -92 -90h-697c-61.333 0 -92 30 -92 90c0 61.333 30.667 92 92 92h697c26 0 47.833 -8.83301 65.5 -26.5s26.5 -39.5 26.5 -65.5zM670 298.998c0 -37.333 -16.667 -67.335 -50 -90.002
c-29.333 -20.667 -63.333 -31 -102 -31s-72.667 10.333 -102 31c-32.667 22.667 -49 52.667 -49 90c0 38.667 16 69.334 48 92.001c28.667 20.667 63 31 103 31c38.667 0 72.667 -10.667 102 -32c33.333 -23.333 50 -53.666 50 -90.999z" />
    <glyph glyph-name="oslash" unicode="&#xf8;" horiz-adv-x="1006" 
d="M944 121c0 -37.333 -16.333 -67.333 -49 -90c-29.333 -20.667 -63.333 -31 -102 -31h-351l-30 -84h-2c-16.667 -34 -44 -51 -82 -51c-60 0 -90 30.667 -90 92c0 8.66699 2 19 6 31l4 12h-2c-38.667 -0 -72.667 10.333 -102 31c-33.333 22.667 -50 52.667 -50 90v667
c0 38 16.333 68.333 49 91c29.333 20 63.666 30 102.999 30h340l41 111c14.667 39.333 43.334 59 86.001 59c60 0 90 -30.667 90 -92c0 -10.667 -2 -21 -6 -31l-19 -47h15c39.333 0 73.333 -10 102 -30c32.667 -22.667 49 -53 49 -91v-667zM518 729h-121v-328zM641 182v355
l-131 -355h131z" />
    <glyph glyph-name="ugrave" unicode="&#xf9;" horiz-adv-x="1006" 
d="M688 1122c0 -52.667 -33.999 -84.001 -101.999 -94.001c-38.667 -5.33301 -79.334 1.33398 -122.001 20.001c-46 20.667 -76.333 48 -91 82l-43 101c-7.33301 17.333 -11 33.333 -11 48c0 30.667 14.667 55 44 73c24.667 14.667 53.334 22 86.001 22
c31.333 0 63.666 -7.33301 96.999 -22c43.333 -19.333 72.333 -46 87 -80l43 -101c8 -18.667 12 -35 12 -49zM944.001 120.999c0 -37.333 -16.332 -67.333 -48.999 -90c-29.333 -20.667 -63.333 -31 -102 -31h-547c-38.667 0 -72.667 10.333 -102 31
c-33.333 22.667 -50 52.667 -50 90v667c0 38 16.333 68.333 49 91c29.333 20 63.666 30 102.999 30s73.333 -10 102 -30c32.667 -22.667 49 -53 49 -91v-606h244v606c0 38 16.333 68.333 49 91c28.667 20 63 30 103 30c39.333 0 73.333 -10 102 -30
c32.667 -22.667 49 -53 49 -91v-667z" />
    <glyph glyph-name="uacute" unicode="&#xfa;" horiz-adv-x="1006" 
d="M688 1278c0 -14 -4 -30.333 -12 -49l-43 -101c-14 -32.667 -43 -59 -87 -79c-34 -15.333 -66.333 -23 -97 -23c-52.667 0 -91 16.333 -115 49c-18.667 25.333 -20 56.666 -4 93.999l43 101c14.667 35.333 44.667 62.666 90 81.999c42 18.667 83 25.334 123 20.001
c68 -9.33301 102 -40.666 102 -93.999zM944 121c0 -37.333 -16.332 -67.333 -48.999 -90c-29.333 -20.667 -63.333 -31 -102 -31h-547c-38.667 -0 -72.667 10.333 -102 31c-33.333 22.667 -50 52.667 -50 90v667c0 38 16.333 68.333 49 91c29.333 20 63.666 30 102.999 30
s73.333 -10 102 -30c32.667 -22.667 49 -53 49 -91v-606h244v606c0 38 16.333 68.333 49 91c28.667 20 63 30 103 30c39.333 0 73.333 -10 102 -30c32.667 -22.667 49 -53 49 -91v-667z" />
    <glyph glyph-name="ucircumflex" unicode="&#xfb;" horiz-adv-x="1006" 
d="M827 1079c0 -32.667 -29.332 -49 -87.999 -49c-39.333 0 -66 11 -80 33l-108 119l-96 -115c-22.667 -27.333 -61 -41 -115 -41c-14.667 0 -34.334 2.66699 -59.001 8c-68.667 14.667 -103 38.667 -103 72c0 10.667 5.66699 21 17 31l161 192c16.667 27.333 55 41 115 41
c69.333 0 118.333 -15.667 147 -47l193 -213c10.667 -8 16 -18.333 16 -31zM944.001 121c0 -37.333 -16.332 -67.333 -48.999 -90c-29.333 -20.667 -63.333 -31 -102 -31h-547c-38.667 -0 -72.667 10.333 -102 31c-33.333 22.667 -50 52.667 -50 90v667
c0 38 16.333 68.333 49 91c29.333 20 63.666 30 102.999 30s73.333 -10 102 -30c32.667 -22.667 49 -53 49 -91v-606h244v606c0 38 16.333 68.333 49 91c28.667 20 63 30 103 30c39.333 0 73.333 -10 102 -30c32.667 -22.667 49 -53 49 -91v-667z" />
    <glyph glyph-name="udieresis" unicode="&#xfc;" horiz-adv-x="1006" 
d="M860 1180c0 -36.667 -16.335 -66.667 -49.002 -90c-30 -20.667 -64 -31 -102 -31c-40 0 -74.333 10 -103 30c-32.667 22.667 -49 53 -49 91c0 38.667 16 69.667 48 93c28.667 20 63.334 30 104.001 30c36.667 0 70.334 -11 101.001 -33c33.333 -24.667 50 -54.667 50 -90
zM450.998 1180c0 -37.333 -16.6699 -67.333 -50.0029 -90c-29.333 -20.667 -63.333 -31 -102 -31c-39.333 0 -73.666 10 -102.999 30c-32.667 22.667 -49 53 -49 91c0 38.667 16 69.667 48 93c28.667 20 63.334 30 104.001 30c36.667 0 70.334 -11 101.001 -33
c34 -24.667 51 -54.667 51 -90zM943.995 121c0 -37.333 -16.332 -67.333 -48.999 -90c-29.333 -20.667 -63.333 -31 -102 -31h-547c-38.667 -0 -72.667 10.333 -102 31c-33.333 22.667 -50 52.667 -50 90v667c0 38 16.333 68.333 49 91c29.333 20 63.666 30 102.999 30
s73.333 -10 102 -30c32.667 -22.667 49 -53 49 -91v-606h244v606c0 38 16.333 68.333 49 91c28.667 20 63 30 103 30c39.333 0 73.333 -10 102 -30c32.667 -22.667 49 -53 49 -91v-667z" />
    <glyph glyph-name="yacute" unicode="&#xfd;" horiz-adv-x="1006" 
d="M688 1278c0 -14 -4 -30.333 -12 -49l-43 -101c-14 -32.667 -43 -59 -87 -79c-34 -15.333 -66.333 -23 -97 -23c-52.667 0 -91 16.333 -115 49c-18.667 25.333 -20 56.666 -4 93.999l43 101c14.667 35.333 44.667 62.666 90 81.999c42 18.667 83 25.334 123 20.001
c68 -9.33301 102 -40.666 102 -93.999zM944 -244c0 -37.333 -16.332 -67.333 -48.999 -90c-29.333 -20.667 -63.333 -31 -102 -31h-547c-38.667 0 -72.667 10.333 -102 31c-33.333 22.667 -50 52.667 -50 90s16.333 68 49 92c29.333 20.667 63.666 31 102.999 31
c58.667 0 102.334 -20.333 131.001 -61h264v182h-395c-38.667 -0 -72.667 10.333 -102 31c-33.333 22.667 -50 52.667 -50 90v667c0 38 16.333 68.333 49 91c29.333 20 63.666 30 102.999 30s73.333 -10 102 -30c32.667 -22.667 49 -53 49 -91v-606h244v606
c0 38 16.333 68.333 49 91c28.667 20 63 30 103 30c39.333 0 73.333 -10 102 -30c32.667 -22.667 49 -53 49 -91v-1032z" />
    <glyph glyph-name="thorn" unicode="&#xfe;" horiz-adv-x="1006" 
d="M944 401c0 -116 -47.999 -211.666 -143.999 -286.999c-88.667 -70.667 -192.334 -106 -311.001 -106h-92v-174c0 -37.333 -16.333 -67.333 -49 -90c-29.333 -20.667 -63.333 -31 -102 -31s-72.667 10.333 -102 31c-33.333 22.667 -50 52.667 -50 90v1135
c0 38 16.333 68.667 49 92c28.667 20.667 63 31 103 31c50.667 0 101 -41 151 -123v-172h92c120 0 224 -35.333 312 -106c95.333 -76.667 143 -173.334 143 -290.001zM641.001 225.001l-0.000976562 355c-48 22.667 -98.667 34 -152 34h-92v-424h92
c54.667 0 105.334 11.667 152.001 35z" />
    <glyph glyph-name="ydieresis" unicode="&#xff;" horiz-adv-x="1006" 
d="M860 1180c0 -36.667 -16.335 -66.667 -49.002 -90c-30 -20.667 -64 -31 -102 -31c-40 0 -74.333 10 -103 30c-32.667 22.667 -49 53 -49 91c0 38.667 16 69.667 48 93c28.667 20 63.334 30 104.001 30c36.667 0 70.334 -11 101.001 -33c33.333 -24.667 50 -54.667 50 -90
zM450.998 1180c0 -37.333 -16.6699 -67.333 -50.0029 -90c-29.333 -20.667 -63.333 -31 -102 -31c-39.333 0 -73.666 10 -102.999 30c-32.667 22.667 -49 53 -49 91c0 38.667 16 69.667 48 93c28.667 20 63.334 30 104.001 30c36.667 0 70.334 -11 101.001 -33
c34 -24.667 51 -54.667 51 -90zM943.995 -244c0 -37.333 -16.332 -67.333 -48.999 -90c-29.333 -20.667 -63.333 -31 -102 -31h-547c-38.667 0 -72.667 10.333 -102 31c-33.333 22.667 -50 52.667 -50 90s16.333 68 49 92c29.333 20.667 63.666 31 102.999 31
c58.667 0 102.334 -20.333 131.001 -61h264v182h-395c-38.667 -0 -72.667 10.333 -102 31c-33.333 22.667 -50 52.667 -50 90v667c0 38 16.333 68.333 49 91c29.333 20 63.666 30 102.999 30s73.333 -10 102 -30c32.667 -22.667 49 -53 49 -91v-606h244v606
c0 38 16.333 68.333 49 91c28.667 20 63 30 103 30c39.333 0 73.333 -10 102 -30c32.667 -22.667 49 -53 49 -91v-1032z" />
    <glyph glyph-name="OE" unicode="&#x152;" horiz-adv-x="1681" 
d="M1620 121c0 -36 -16.665 -65.999 -49.998 -89.999c-30 -20.667 -64 -31 -102 -31h-1222c-38.667 0 -72.667 10.333 -102 31c-33.333 22.667 -50 52.667 -50 90v971c0 37.333 16.333 67.666 49 90.999c28.667 20.667 63 31 103 31h1222c40 0 74.333 -10.333 103 -31
c32.667 -23.333 49 -53.666 49 -90.999c0 -36 -16.667 -66 -50 -90c-30 -20.667 -64 -31 -102 -31c-58.667 0 -102.334 20.333 -131.001 61h-325v-334h395c60 0 90 -30.667 90 -92c0 -24.667 -8.83301 -45.834 -26.5 -63.501s-38.834 -26.5 -63.501 -26.5h-395v-334h325
c28.667 41.333 72.334 62 131.001 62c39.333 0 73.666 -10.333 102.999 -31c32.667 -24 49 -54.667 49 -92zM702.002 182.001v850h-305v-850h305z" />
    <glyph glyph-name="oe" unicode="&#x153;" horiz-adv-x="1559" 
d="M1497 121c0 -37.333 -16.332 -67.334 -48.999 -90.001c-29.333 -20.667 -63.333 -31 -102 -31h-1100c-38.667 0 -72.667 10.333 -102 31c-33.333 22.667 -50 52.667 -50 90v667c0 38 16.333 68.333 49 91c29.333 20 63.666 30 102.999 30h1100
c39.333 0 73.333 -10 102 -30c32.667 -22.667 49 -53 49 -91v-272c0 -37.333 -16.333 -67.333 -49 -90c-29.333 -20.667 -63.333 -31 -102 -31h-396v-213h264c28.667 41.333 72.667 62 132 62c38.667 0 72.667 -10.667 102 -32c32.667 -23.333 49 -53.666 49 -90.999z
M1194 574.999v154h-244v-154h244zM641.001 181.999v547h-244v-547h244z" />
    <glyph glyph-name="Scaron" unicode="&#x160;" 
d="M901 1556c0 -10.667 -5.33203 -20 -15.999 -28l-162 -195c-18 -27.333 -56.333 -41 -115 -41c-68.667 0 -117.667 16.333 -147 49l-193 213c-10.667 8.66699 -16 18.334 -16 29.001c0 32.667 29.333 49 88 49c39.333 0 65.333 -11 78 -33l110 -118l97 114
c23.333 27.333 61.333 41 114 41c19.333 0 38.666 -2 57.999 -6c69.333 -14.667 104 -39.334 104 -74.001zM1006 121c0 -36 -16.999 -65.667 -50.999 -89c-30 -21.333 -63.667 -32 -101 -32h-608c-38.667 -0 -72.667 10.333 -102 31c-33.333 22.667 -50 52.667 -50 90v123
c0 37.333 16.333 67.666 49 90.999c29.333 20 63.666 30 102.999 30c38.667 0 72.667 -10.333 102 -31c32.667 -22.667 49 -52.667 49 -90v-62h305v365h-456c-38.667 0 -72.667 10.333 -102 31c-33.333 22.667 -50 52.667 -50 90v424c0 37.333 16.333 67.666 49 90.999
c28.667 20.667 63 31 103 31h608c38.667 0 73 -10.333 103 -31c32.667 -23.333 49 -53.666 49 -90.999v-121c0 -36 -17 -65.667 -51 -89c-30 -21.333 -63.667 -32 -101 -32c-38.667 0 -72.667 10.333 -102 31c-33.333 22.667 -50 52.667 -50 90v61h-305v-303h457
c38.667 0 72.667 -10.667 102 -32c33.333 -23.333 50 -53.666 50 -90.999v-485z" />
    <glyph glyph-name="scaron" unicode="&#x161;" horiz-adv-x="1006" 
d="M827 1290c0 -10.667 -5.33398 -20 -16.001 -28l-162 -195c-17.333 -27.333 -55.333 -41 -114 -41c-69.333 0 -118.666 16.333 -147.999 49l-192 213c-11.333 8 -17 17.667 -17 29c0 32.667 29.333 49 88 49c40 0 66 -11 78 -33l111 -119l96 115
c22.667 27.333 61 41 115 41c19.333 0 38.333 -2 57 -6c69.333 -15.333 104 -40 104 -74zM943.999 121c0 -37.333 -16.332 -67.334 -48.999 -90.001c-29.333 -20.667 -63.333 -31 -102 -31h-547c-38.667 0 -72.667 10.333 -102 31c-33.333 22.667 -50 52.667 -50 90
s16.333 68 49 92c29.333 20.667 63.666 31 102.999 31c58.667 0 102.334 -20.667 131.001 -62h264v183h-395c-39.333 0 -73.333 10 -102 30c-33.333 22.667 -50 52.667 -50 90v303c0 38 16.333 68.333 49 91c29.333 20 63.666 30 102.999 30h547
c39.333 0 73.333 -10 102 -30c32.667 -22.667 49 -53 49 -91c0 -38.667 -15.5 -73.5 -46.5 -104.5s-65.833 -46.5 -104.5 -46.5c-58.667 0 -104 30.667 -136 92h-260v-182h396c38.667 0 72.667 -10.667 102 -32c32.667 -23.333 49 -53.666 49 -90.999v-303z" />
    <glyph glyph-name="Tbar" unicode="&#x166;" horiz-adv-x="1188" 
d="M1126 1092c0 -38 -16.333 -68.333 -49 -91c-28.667 -20 -62.667 -30 -102 -30c-58.667 0 -102.334 20.333 -131.001 61h-82v-334h192c26.667 0 48.834 -8.66699 66.501 -26s26.5 -39.333 26.5 -66c0 -60 -31 -90 -93 -90h-192v-395c0 -37.333 -16.667 -67.333 -50 -90
c-29.333 -20.667 -63.333 -31 -102 -31s-72.667 10.333 -102 31c-32.667 22.667 -49 52.667 -49 90v395h-201c-61.333 0 -92 30 -92 90c0 61.333 30.667 92 92 92h201v334h-82c-28.667 -40.667 -72.334 -61 -131.001 -61c-39.333 0 -73.666 10 -102.999 30
c-32.667 22.667 -49 53 -49 91c0 37.333 16.333 67.666 49 90.999c28.667 20.667 63 31 103 31h729c39.333 0 73.333 -10.333 102 -31c32.667 -23.333 49 -53.666 49 -90.999z" />
    <glyph glyph-name="Ydieresis" unicode="&#x178;" 
d="M891 1446c0 -37.333 -16.667 -67.334 -50 -90.001c-29.333 -20.667 -63.333 -31 -102 -31c-39.333 0 -73.333 10 -102 30c-32.667 22.667 -49 53 -49 91c0 38.667 16 69.334 48 92.001c28.667 20.667 63 31 103 31c37.333 0 71.333 -11 102 -33c33.333 -24 50 -54 50 -90
zM481 1446c0 -36.667 -16.335 -66.667 -49.002 -90c-30 -20.667 -64 -31 -102 -31c-40 0 -74.333 10 -103 30c-32.667 22.667 -49 53 -49 91c0 38.667 16 69.667 48 93c28.667 20 63.334 30 104.001 30c36.667 0 70.334 -11 101.001 -33c33.333 -24.667 50 -54.667 50 -90z
M1006 636.999c0 -36 -17 -65.6689 -51 -89.002c-30 -21.333 -63.667 -32 -101 -32h-152v-395c0 -36 -16.667 -65.667 -50 -89c-30 -21.333 -63.667 -32 -101 -32c-38.667 0 -73 10.333 -103 31c-34 22.667 -51 52.667 -51 90v395h-151c-38.667 0 -72.667 10.333 -102 31
c-33.333 22.667 -50 52.667 -50 90v455c0 37.333 16.333 67.666 49 90.999c28.667 20.667 63 31 103 31c39.333 0 73.333 -10.333 102 -31c32.667 -23.333 49 -53.666 49 -90.999v-394h305v394c0 38.667 16.333 69.334 49 92.001c28.667 20 63 30 103 30
c38.667 0 73 -10.333 103 -31c32.667 -23.333 49 -53.666 49 -90.999v-455z" />
    <glyph glyph-name="florin" unicode="&#x192;" horiz-adv-x="1214" 
d="M1153 1141c0 -29.333 -11.5 -54.834 -34.5 -76.501s-49.167 -32.5 -78.5 -32.5c-54.667 0 -107 -12.333 -157 -37l-43 -207h118c25.333 0 46.833 -8.66699 64.5 -26s26.5 -38.666 26.5 -63.999c0 -61.333 -30.333 -92 -91 -92h-157l-94 -454
c-23.333 -114 -90 -209.333 -200 -286c-104 -72 -216.333 -108 -337 -108c-50.667 0 -76 24 -76 72c0 29.333 11.5 54.833 34.5 76.5s49.167 32.5 78.5 32.5c56 0 109.333 12 160 36l131 631h-86c-60 0 -90 30.667 -90 92c0 60 30 90 90 90h123l8 31
c30.667 120 97 216.333 199 289c98.667 70.667 211 106 337 106c49.333 0 74 -24.333 74 -73z" />
    <glyph glyph-name="circumflex" unicode="&#x2c6;" horiz-adv-x="803" 
d="M741 1346c0 -33.333 -29.333 -50 -88 -50c-39.333 0 -65.333 11 -78 33l-110 119l-96 -115c-22.667 -27.333 -61 -41 -115 -41c-14 0 -33 2.66699 -57 8c-68.667 15.333 -103 39.333 -103 72c0 8.66699 5 19 15 31l161 192c18 27.333 56.333 41 115 41
c69.333 0 118.333 -15.667 147 -47l193 -213c10.667 -8 16 -18 16 -30z" />
    <glyph glyph-name="tilde" unicode="&#x2dc;" horiz-adv-x="909" 
d="M848 856c2 -22.667 -2.66504 -43.6689 -13.998 -63.002c-77.333 -130 -172.333 -195 -285 -195c-62 0 -118 24.667 -168 74l-70 69c-38 -21.333 -69.333 -54 -94 -98c-12.667 -22.667 -32.334 -34 -59.001 -34c-36.667 0 -58 25 -64 75
c-3.33301 28.667 0.666992 52.667 12 72c75.333 128 170.333 192 285 192c60.667 0 116.667 -24.667 168 -74l72 -69c36 22.667 66.667 55.334 92 98.001c12 20.667 27.667 32.334 47 35.001c21.333 2.66699 39.666 -5.33301 54.999 -24c13.333 -16 21 -35.333 23 -58z" />
    <glyph glyph-name="endash" unicode="&#x2013;" horiz-adv-x="1221" 
d="M1159 606c0 -60 -30.667 -90 -92 -90h-881c-61.333 0 -92 30 -92 90c0 61.333 30.667 92 92 92h881c26 0 47.833 -8.83301 65.5 -26.5s26.5 -39.5 26.5 -65.5z" />
    <glyph glyph-name="emdash" unicode="&#x2014;" horiz-adv-x="1528" 
d="M1466 606c0 -60 -30.667 -90 -92 -90h-1188c-61.333 0 -92 30 -92 90c0 61.333 30.667 92 92 92h1188c26 0 47.833 -8.83301 65.5 -26.5s26.5 -39.5 26.5 -65.5z" />
    <glyph glyph-name="quoteleft" unicode="&#x2018;" horiz-adv-x="459" 
d="M397 909c0 -36 -16.667 -65.6689 -50 -89.002c-30 -21.333 -63.667 -32 -101 -32c-38.667 0 -72.667 10.333 -102 31c-33.333 22.667 -50 52.667 -50 90v183c0 38.667 16.333 69.334 49 92.001c28.667 20 63 30 103 30c39.333 0 73.333 -10.333 102 -31
c32.667 -23.333 49 -53.666 49 -90.999v-183z" />
    <glyph glyph-name="quoteright" unicode="&#x2019;" horiz-adv-x="459" 
d="M397 909c0 -36 -16.667 -65.6689 -50 -89.002c-30 -21.333 -63.667 -32 -101 -32c-38.667 0 -72.667 10.333 -102 31c-33.333 22.667 -50 52.667 -50 90v183c0 38.667 16.333 69.334 49 92.001c28.667 20 63 30 103 30c39.333 0 73.333 -10.333 102 -31
c32.667 -23.333 49 -53.666 49 -90.999v-183z" />
    <glyph glyph-name="quotesinglbase" unicode="&#x201a;" horiz-adv-x="459" 
d="M397 -90c0 -37.333 -16.333 -67.668 -49 -91.001c-29.333 -21.333 -63.333 -32 -102 -32c-39.333 0 -73.666 10.333 -102.999 31c-32.667 24 -49 54.667 -49 92v211c0 37.333 16.333 68 49 92c29.333 20.667 63.666 31 102.999 31c38.667 0 72.667 -10.667 102 -32
c32.667 -23.333 49 -53.666 49 -90.999v-211z" />
    <glyph glyph-name="quotedblleft" unicode="&#x201c;" horiz-adv-x="854" 
d="M793 909c0 -36 -17 -65.6689 -51 -89.002c-30 -21.333 -63.667 -32 -101 -32c-38.667 0 -72.667 10.333 -102 31c-33.333 22.667 -50 52.667 -50 90v183c0 38.667 16.333 69.334 49 92.001c28.667 20 63 30 103 30c38.667 0 73 -10.333 103 -31
c32.667 -23.333 49 -53.666 49 -90.999v-183zM397 908.998c0 -37.333 -16.333 -67.335 -49 -90.002c-29.333 -20.667 -63.333 -31 -102 -31s-72.667 10.333 -102 31c-33.333 22.667 -50 52.667 -50 90v183c0 38.667 16.333 69.334 49 92.001c28.667 20 63 30 103 30
c39.333 0 73.333 -10.333 102 -31c32.667 -23.333 49 -53.666 49 -90.999v-183z" />
    <glyph glyph-name="quotedblright" unicode="&#x201d;" horiz-adv-x="854" 
d="M793 909c0 -36 -17 -65.6689 -51 -89.002c-30 -21.333 -63.667 -32 -101 -32c-38.667 0 -72.667 10.333 -102 31c-33.333 22.667 -50 52.667 -50 90v183c0 38.667 16.333 69.334 49 92.001c28.667 20 63 30 103 30c38.667 0 73 -10.333 103 -31
c32.667 -23.333 49 -53.666 49 -90.999v-183zM397 908.998c0 -37.333 -16.333 -67.335 -49 -90.002c-29.333 -20.667 -63.333 -31 -102 -31s-72.667 10.333 -102 31c-33.333 22.667 -50 52.667 -50 90v183c0 38.667 16.333 69.334 49 92.001c28.667 20 63 30 103 30
c39.333 0 73.333 -10.333 102 -31c32.667 -23.333 49 -53.666 49 -90.999v-183z" />
    <glyph glyph-name="quotedblbase" unicode="&#x201e;" horiz-adv-x="889" 
d="M827 -90c0 -37.333 -16.333 -67.666 -49 -90.999c-29.333 -21.333 -63.333 -32 -102 -32s-72.667 10.667 -102 32c-33.333 23.333 -50 53.666 -50 90.999v211c0 37.333 16.667 67.666 50 90.999c29.333 21.333 63.333 32 102 32s72.667 -10.667 102 -32
c32.667 -23.333 49 -53.666 49 -90.999v-211zM397 -90c0 -37.333 -16.333 -67.668 -49 -91.001c-29.333 -21.333 -63.333 -32 -102 -32c-39.333 0 -73.666 10.333 -102.999 31c-32.667 24 -49 54.667 -49 92v211c0 37.333 16.333 68 49 92
c29.333 20.667 63.666 31 102.999 31c38.667 0 72.667 -10.667 102 -32c32.667 -23.333 49 -53.666 49 -90.999v-211z" />
    <glyph glyph-name="dagger" unicode="&#x2020;" horiz-adv-x="1036" 
d="M975 870c0 -60 -30.667 -89.999 -92 -89.999h-197v-884c0 -38 -16.333 -68.333 -49 -91c-28.667 -20 -62.667 -30 -102 -30c-40 0 -74.333 10 -103 30c-32.667 22.667 -49 53 -49 91v884h-197c-61.333 0 -92 30 -92 90c0 62 30.667 93 92 93h197v129
c0 37.333 16.333 67.666 49 90.999c28.667 20.667 63 31 103 31c39.333 0 73.333 -10.333 102 -31c32.667 -23.333 49 -53.666 49 -90.999v-129h197c26.667 0 48.667 -8.83301 66 -26.5s26 -39.834 26 -66.501z" />
    <glyph glyph-name="daggerdbl" unicode="&#x2021;" horiz-adv-x="1036" 
d="M975 92c0 -60 -30.667 -89.999 -92 -89.999h-197v-106c0 -38 -16.333 -68.333 -49 -91c-28.667 -20 -62.667 -30 -102 -30c-40 0 -74.333 10 -103 30c-32.667 22.667 -49 53 -49 91v106h-197c-61.333 0 -92 30 -92 90c0 61.333 30.667 92 92 92h197v596h-197
c-61.333 0 -92 30 -92 90c0 62 30.667 93 92 93h197v129c0 37.333 16.333 67.666 49 90.999c28.667 20.667 63 31 103 31c39.333 0 73.333 -10.333 102 -31c32.667 -23.333 49 -53.666 49 -90.999v-129h197c26.667 0 48.667 -8.83301 66 -26.5s26 -39.834 26 -66.501
c0 -60 -30.667 -90 -92 -90h-197v-596h197c26 0 47.833 -8.83301 65.5 -26.5s26.5 -39.5 26.5 -65.5z" />
    <glyph glyph-name="bullet" unicode="&#x2022;" horiz-adv-x="688" 
d="M627 610c0 -64 -29.668 -115.998 -89.001 -155.998c-52 -35.333 -111.333 -53 -178 -53c-67.333 0 -126.666 17.667 -177.999 53c-58.667 39.333 -88 91.333 -88 156c0 67.333 28.667 120.666 86 159.999c50 35.333 110 53 180 53c67.333 0 127 -18.333 179 -55
c58.667 -40.667 88 -93.334 88 -158.001z" />
    <glyph glyph-name="ellipsis" unicode="&#x2026;" horiz-adv-x="1688" 
d="M1626 121c0 -37.333 -16.334 -67.333 -49.001 -90c-29.333 -20.667 -63.333 -31 -102 -31c-39.333 0 -73.666 10 -102.999 30c-32.667 23.333 -49 53.666 -49 90.999c0 38 16.333 68.667 49 92c28.667 20.667 63 31 103 31c38.667 0 72.667 -10.667 102 -32
c32.667 -23.333 49 -53.666 49 -90.999zM1012 121c0 -37.333 -16.667 -67.335 -50 -90.002c-29.333 -20.667 -63.333 -31 -102 -31s-72.667 10.333 -102 31c-32.667 22.667 -49 52.667 -49 90c0 38.667 16 69.334 48 92.001c28.667 20.667 63 31 103 31
c38.667 0 72.667 -10.667 102 -32c33.333 -23.333 50 -53.666 50 -90.999zM396.999 120.998c0 -37.333 -16.333 -67.334 -49 -90.001c-29.333 -20.667 -63.333 -31 -102 -31s-72.667 10.333 -102 31c-33.333 22.667 -50 52.667 -50 90c0 38 16.333 68.667 49 92
c28.667 20.667 63 31 103 31c38.667 0 72.667 -10.667 102 -32c32.667 -23.333 49 -53.666 49 -90.999z" />
    <glyph glyph-name="perthousand" unicode="&#x2030;" horiz-adv-x="2736" 
d="M2675 121c0 -37.333 -17.001 -67.333 -51.001 -90c-30 -20.667 -64.333 -31 -103 -31h-424c-38.667 -0 -72.667 10.333 -102 31c-32.667 22.667 -49 52.667 -49 90v364c0 38 16.333 68.333 49 91c28.667 20 62.667 30 102.001 30h424c39.333 0 74 -10 104 -30
c33.333 -22.667 50 -53 50 -91v-364zM1855 121c0 -37.333 -16.666 -67.333 -49.999 -90c-30 -20.667 -64.333 -31 -103 -31h-424c-38.667 -0 -72.667 10.333 -102 31c-33.333 22.667 -50 52.667 -50 90v364c0 38 16.333 68.333 49 91c29.333 20 63.666 30 102.999 30h424
c40 0 74.333 -10 103 -30c33.333 -22.667 50 -53 50 -91v-364zM1272 1116c0 -9.33301 -1.33301 -19.667 -4 -31l-387 -1040h-2c-16.667 -34 -43.334 -51 -80.001 -51c-61.333 0 -92 30.667 -92 92c0 10 2 20.333 6 31l383 1032c14.667 39.333 43.334 59 86.001 59
c60 0 90 -30.667 90 -92zM823 728.999c0 -37.333 -16.334 -67.667 -49.001 -91c-29.333 -21.333 -63.333 -32 -102 -32h-426c-39.333 0 -73.666 10.333 -102.999 31c-32.667 24 -49 54.667 -49 92v363c0 37.333 16.333 67.666 49 90.999c28.667 20.667 63 31 103 31h426
c39.333 0 73.333 -10.333 102 -31c32.667 -23.333 49 -53.666 49 -90.999v-363zM2370 181.998v242h-121v-242h121zM1550 181.998v242h-121v-242h121zM519.999 787.998v244h-123v-244h123z" />
    <glyph glyph-name="guilsinglleft" unicode="&#x2039;" horiz-adv-x="574" 
d="M512 340c0 -32 -4.33301 -66.334 -13 -103.001c-12 -50.667 -29.333 -76 -52 -76c-6 0 -11.333 2.33301 -16 7l-303 298c-22.667 22 -34 65 -34 129c0 74.667 13.333 128.334 40 161.001v0l316 305c6.66699 6.66699 12.667 10 18 10c28.667 0 43 -31.333 43 -94
c0 -41.333 -9.66699 -71.333 -29 -90l-215 -210l212 -209c22 -22 33 -64.667 33 -128z" />
    <glyph glyph-name="guilsinglright" unicode="&#x203a;" horiz-adv-x="574" 
d="M512 638c0 -74.667 -13 -128.333 -39 -161v0l-317 -305c-7.33301 -7.33301 -13.333 -11 -18 -11c-28 0 -42 31.667 -42 95c0 42 9.33301 72 28 90l216 210l-212 209c-22.667 22.667 -34 65.334 -34 128.001c0 33.333 4.33301 67.666 13 102.999c12 50 29.333 75 52 75
c6.66699 0 12 -2 16 -6l304 -298c22 -21.333 33 -64.333 33 -129z" />
    <glyph glyph-name="trademark" unicode="&#x2122;" horiz-adv-x="1155" 
d="M1094 600c0 -23.333 -18.667 -35 -56 -35c-38 0 -57 11.667 -57 35v250h-41c-10.667 -10.667 -27 -16 -49 -16c-4 0 -8 0.666992 -12 2c1.33301 -3.33301 2 -7 2 -11v-225c0 -23.333 -19.333 -35 -58 -35c-36.667 0 -55 11.667 -55 35v225c0 4 0.666992 7.66699 2 11
c-4 -1.33301 -8.66699 -2 -14 -2c-22 0 -38.333 5.33301 -49 16h-41v-250c0 -23.333 -19.333 -35 -58 -35c-36.667 0 -55 11.667 -55 35v268c0 22 18.333 33 55 33h148c38 0 57 -11 57 -33c0 -4 -0.666992 -7.33301 -2 -10c4 1.33301 8 2 12 2s9 -0.666992 15 -2
c-1.33301 2.66699 -2 6 -2 10c0 22 18.333 33 55 33h147c37.333 0 56 -11 56 -33v-268zM477 866c0 -21.333 -18.334 -32 -55.001 -32c-22 0 -38.333 5.33301 -49 16h-31v-252c0 -22 -19 -33 -57 -33c-37.333 0 -56 11 -56 33v252h-30
c-11.333 -10.667 -27.666 -16 -48.999 -16c-37.333 0 -56 10.667 -56 32c0 23.333 18.667 35 56 35h272c36.667 0 55 -11.667 55 -35z" />
    <glyph glyph-name="smileface" unicode="&#x263a;" horiz-adv-x="1461" 
d="M1399 388c0 -121.333 -68.332 -221.667 -204.999 -301c-127.333 -74 -276 -111 -446 -111c-170.667 0 -320.334 37 -449.001 111c-136.667 78.667 -205 179 -205 301v443c0 122 68.333 222.333 205 301c129.333 74.667 279 112 449 112c169.333 0 318 -37.333 446 -112
c136.667 -80 205 -180.333 205 -301v-443zM1088 222.999v771c-35.333 14 -91.333 27.333 -168 40c-74 12.667 -131.333 19 -172 19c-41.333 0 -99.666 -6.33301 -174.999 -19s-131.333 -26 -168 -40v-771c36.667 -13.333 92.667 -26.166 168 -38.499
s133.666 -18.5 174.999 -18.5s99 6.16699 173 18.5s129.667 25.166 167 38.499zM1105 765.999c0 -37.333 -16.333 -67.334 -49 -90.001c-29.333 -20.667 -63.333 -31 -102 -31s-72.667 10.333 -102 31c-33.333 22.667 -50 52.667 -50 90c0 38 16.333 68.667 49 92
c28.667 20.667 63 31 103 31c38.667 0 72.667 -10.667 102 -32c32.667 -23.333 49 -53.666 49 -90.999zM696.001 765.998c0 -37.333 -16.666 -67.334 -49.999 -90.001c-29.333 -20.667 -63.333 -31 -102 -31s-72.667 10.333 -102 31c-32.667 22.667 -49 52.667 -49 90
c0 38.667 16 69.334 48 92.001c28.667 20.667 63 31 103 31c39.333 0 73.666 -10.333 102.999 -31c32.667 -24 49 -54.667 49 -92zM1009 398.997c0 -60 -30.667 -89.999 -92 -89.999h-348c-61.333 0 -92 30 -92 90c0 62 30.667 93 92 93h348
c26.667 0 48.667 -8.83301 66 -26.5s26 -39.834 26 -66.501z" />
    <glyph glyph-name="invsmileface" unicode="&#x263b;" horiz-adv-x="1461" 
d="M1399 388c0 -121.333 -68.332 -221.667 -204.999 -301c-127.333 -74 -276 -111 -446 -111c-170.667 0 -320.334 37 -449.001 111c-136.667 78.667 -205 179 -205 301v443c0 122 68.333 222.333 205 301c129.333 74.667 279 112 449 112c169.333 0 318 -37.333 446 -112
c136.667 -80 205 -180.333 205 -301v-443zM1179 786.999c0 42.667 -20.3311 77.332 -60.998 103.999c-36 22.667 -76.333 34 -121 34c-46.667 0 -87.334 -11 -122.001 -33c-40.667 -25.333 -61 -60.333 -61 -105c0 -43.333 20.667 -77.666 62 -102.999
c34.667 -22 75 -33 121 -33c45.333 0 85.666 11 120.999 33c40.667 26 61 60.333 61 103zM686.003 786.997c0 42.667 -20.668 77.333 -62.001 104c-35.333 22.667 -75.666 34 -120.999 34c-47.333 0 -88 -11 -122 -33c-40 -25.333 -60 -60.333 -60 -105
c0 -43.333 20.333 -77.666 61 -102.999c34.667 -22 75 -33 121 -33s86.333 11 121 33c41.333 25.333 62 59.666 62 102.999zM1063 374.996c0 30 -10.834 54.667 -32.501 74s-47.834 29 -78.501 29h-419c-74 0 -111 -34.333 -111 -103c0 -30 10.833 -54.5 32.5 -73.5
s47.834 -28.5 78.501 -28.5h419c30.667 0 56.834 9.5 78.501 28.5s32.5 43.5 32.5 73.5z" />
    <glyph glyph-name="fi" unicode="&#xf001;" horiz-adv-x="1257" 
d="M1196 1092c0 -38 -16.333 -68.333 -49 -91c-28.667 -20 -63 -30 -103 -30c-39.333 0 -73.333 10 -102 30c-32.667 22.667 -49 53 -49 91c0 37.333 16.333 67.666 49 90.999c28.667 20.667 62.667 31 102 31c40 0 74.333 -10.333 103 -31
c32.667 -23.333 49 -53.666 49 -90.999zM1196 121c0 -37.333 -16.334 -67.667 -49.001 -91c-29.333 -20 -63.666 -30 -102.999 -30c-38.667 -0 -72.667 10.333 -102 31c-32.667 22.667 -49 52.667 -49 90v667c0 38 16.333 68.333 49 91c28.667 20 62.667 30 102 30
c40 0 74.333 -10 103 -30c32.667 -22.667 49 -53 49 -91v-667zM853.999 1092c0 -36 -16.667 -65.999 -50 -89.999c-30 -20.667 -64 -31 -102 -31c-58.667 0 -103 20.333 -133 61h-18c-56 0 -107.333 -12.333 -154 -37v-86h244c24.667 0 45.834 -8.83301 63.501 -26.5
s26.5 -38.834 26.5 -63.501s-8.83301 -45.834 -26.5 -63.501s-38.834 -26.5 -63.501 -26.5h-244v-608c0 -37.333 -16.333 -67.333 -49 -90c-29.333 -20.667 -63.333 -31 -102 -31s-72.667 10.333 -102 31c-33.333 22.667 -50 52.667 -50 90v698c0 117.333 48 214 144 290
c88.667 70 193 105 313 105h151c40 0 74.333 -10.333 103 -31c32.667 -23.333 49 -53.666 49 -90.999z" />
    <glyph glyph-name="fl" unicode="&#xf002;" horiz-adv-x="1196" 
d="M1135 121c0 -37.333 -16.667 -67.333 -50 -90c-29.333 -20.667 -63.333 -31 -102 -31s-72.667 10.333 -102 31c-33.333 22.667 -50 52.667 -50 90v696c0 37.333 18.667 90.666 56 159.999c29.333 54.667 61.333 102.334 96 143.001c54 64 96.333 96 127 96
c16.667 0 25 -11.333 25 -34v-1061zM854 1092c0 -36 -16.667 -65.999 -50 -89.999c-30 -20.667 -64 -31 -102 -31c-58.667 0 -103 20.333 -133 61h-18c-56 0 -107.333 -12.333 -154 -37v-86h244c24.667 0 45.834 -8.83301 63.501 -26.5s26.5 -38.834 26.5 -63.501
s-8.83301 -45.834 -26.5 -63.501s-38.834 -26.5 -63.501 -26.5h-244v-608c0 -37.333 -16.333 -67.333 -49 -90c-29.333 -20.667 -63.333 -31 -102 -31s-72.667 10.333 -102 31c-33.333 22.667 -50 52.667 -50 90v698c0 117.333 48 214 144 290c88.667 70 193 105 313 105
h151c40 0 74.333 -10.333 103 -31c32.667 -23.333 49 -53.666 49 -90.999z" />
    <glyph glyph-name=".null" horiz-adv-x="0" 
 />
    <glyph glyph-name="nonmarkingreturn" horiz-adv-x="1030" 
 />
    </font>
</defs>
</svg>
